<svg viewBox="0 0 60 60" xmlns="http://www.w3.org/2000/svg"><g id="031---Knight" fill="none"><g id="Layer_3" transform="translate(1 1)"><path id="Shape" d="m18 50.72c-1.0256174-.1976428-2.0301325-.4923006-3-.88" fill="#f34335"/><path id="Shape" d="m30 48.24c-.9390499.6404956-1.944962 1.1769821-3 1.6" fill="#f34335"/><path id="Shape" d="m30 48.24v1.95c.0730072 1.8037018.9271322 3.486401 2.34 4.61.5862052.48588.8051928 1.2869416.5476914 2.0034672s-.9363023 1.1949445-1.6976914 1.1965328h-17.38c-.761446-.0008685-1.4410203-.4779479-1.7005207-1.1938112s-.0434937-1.5175909.5405207-2.0061888c1.4189482-1.1197646 2.2774517-2.8038927 2.35-4.61v-.35c-.5430737-.2250223-1.0738203-.4787125-1.59-.76 7.43-4.6 10.5-9.38 11.75-12.29.2622261-.6201781.1961569-1.3305047-.1759499-1.891682-.3721068-.5611772-1.0007126-.8984957-1.6740501-.898318h-.31c-4.77-2.68-7.22-9.47-8.3-13.52-.0139052-.0554244-.0340331-.1090987-.06-.16 6.3331592-2.745299 13.7129495-1.1196327 18.3063814 4.0326441 4.5934319 5.1522767 5.3648626 12.6695229 1.9136186 18.6473559-1.2052517 2.089979-2.8664936 3.8811122-4.86 5.24z" fill="#7f8d93"/><path id="Shape" d="m34.86 43c2.8584459-4.9509732 2.8581035-11.050904-.0008982-16.0015563s-8.1422105-7.9997278-13.8591018-7.9984437c-.5 0-.992.032-1.48.077 6.7118137.6439338 12.3003475 5.4249735 13.9755361 11.9561936 1.6751887 6.5312202-.9222446 13.4118735-6.4955361 17.2068064v1.95c.0730072 1.8037018.9271322 3.486401 2.34 4.61.5862052.48588.8051928 1.2869416.5476914 2.0034672s-.9363023 1.1949445-1.6976914 1.1965328h3c.7613891-.0015883 1.44019-.4800072 1.6976914-1.1965328s.0385138-1.5175872-.5476914-2.0034672c-1.4128678-1.123599-2.2669928-2.8062982-2.34-4.61v-1.95c1.9935064-1.3588878 3.6547483-3.150021 4.86-5.24z" fill="#545c60"/><path id="Shape" d="m25.16 36.79c-1.25 2.91-4.32 7.69-11.75 12.29h-.01c-1.4507929.9012833-2.9460166 1.7289964-4.48 2.48-.2425859.1159582-.52137034.1305079-.77470911.0404319-.25333876-.090076-.46036118-.2773571-.57529089-.5204319l-.44-.93c-.40299273-.8801508-.12138398-1.9225235.67-2.48.0729814-.0524681.14987277-.0992715.23-.14 3.9905169-1.9332167 7.5748085-4.6112528 10.56-7.89.2484924-.2983354.3018337-.7135425.1368198-1.0650008-.1650139-.3514582-.5185517-.5756306-.9068198-.5749992h-15.82c-1.1045695 0-2-.8954305-2-2v-1c0-.5522847.44771525-1 1-1h22.31c.6733375-.0001777 1.3019433.3371408 1.6740501.898318.3721068.5611773.438176 1.2715039.1759499 1.891682z" fill="#607d8a"/><path id="Shape" d="m18.59 39.64c-2.9851915 3.2787472-6.5694831 5.9567833-10.56 7.89-.08012723.0407285-.1570186.0875319-.23.14l-5.8-9.6700013 15.82.0000013c.3882681-.0006314.7418059.223541.9068198.5749992.1650139.3514583.1116726.7666654-.1368198 1.0650008z" fill="#9d9d9d"/><path id="Shape" d="m23 34h-22l3.49-3.49c.15512608-.154297.29263566-.3253455.41-.51h6.1c.3781033.0043423.7247631-.2098857.89-.55l1-2c.1559692-.3095182.1405453-.6777279-.0407631-.9731178-.1813083-.29539-.5026437-.4758333-.8492369-.4768822h-5.54c1.07-2.41 2.81-5.3 5.33-6.73.5091515-.2882553 1.1193573-.3378415 1.6683693-.1355739.5490121.2022676.9811932.635891 1.1816307 1.1855739.0259669.0509013.0460948.1045756.06.16 1.08 4.05 3.53 10.84 8.3 13.52z" fill="#9d9d9d"/><path id="Shape" d="m12.89 27.45-1 2c-.1652369.3401143-.5118967.5543423-.89.55h-6.1c.14014537-.2285489.25101398-.4738037.33-.73.05-.18.12-.39.2-.62l.03-.09 1-2.56h5.54c.3465932.0010489.6679286.1814922.8492369.4768822.1813084.2953899.1967323.6635996.0407631.9731178z" fill="#ecf0f1"/><path id="Shape" d="m41 35c.0017568 2.5219865-.4697347 5.0219092-1.39 7.37-.155904.3817461-.5276466.6308927-.94.63h-3.81c2.8584459-4.9509732 2.8581035-11.050904-.0008982-16.0015563s-8.1422105-7.9997278-13.8591018-7.9984437v-2.97c-.0001218-.2704971.1093432-.5295053.303419-.7179284.1940759-.1884231.4562056-.2901865.726581-.2820716.7105316.035457 1.418396.1122536 2.12.23 3.2112962.5002259 6.2485271 1.788644 8.84 3.75 5.040673 3.7698727 8.0090616 9.6955323 8.01 15.99z" fill="#9d9d9d"/><path id="Shape" d="m43 14c-.1408559.7040072-.4573174 1.3610088-.92 1.91" fill="#f34335"/><path id="Shape" d="m58 31c-10 5-13-3.92-13-10 0-3.43-1.44-4.7-2.92-5.09-2.55 3.09-9.08 3.09-9.08 3.09l-.01.01c-2.5914729-1.961356-5.6287038-3.2497741-8.84-3.75-.37-3.15-1.03-15.26 10.85-15.26 22 0 16 19 16 24 0 1.88 2 6 7 7z" fill="#f34335"/><path id="Shape" d="m51 24c0-5 6-24-16-24-.423 0-.826.019-1.218.049 19.878 1.013 14.218 19.092 14.218 23.951 0 1.88 2 6 7 7-1.1800319.6125489-2.4414004 1.0536575-3.746 1.31 1.775.383 3.994.066 6.746-1.31-5-1-7-5.12-7-7z" fill="#c71e1e"/></g><g id="Layer_11" fill="#000"><path id="Shape" d="m22 23c-.5522847 0-1 .4477153-1 1s.4477153 1 1 1c4.6595285.0079951 8.8112231 2.9436418 10.372 7.334.1162777.3407705.4067755.59272.7605647.6596397.3537892.0669196.7162389-.0615241.9489448-.3362839.232706-.2747599.2997346-.6534084.1754905-.9913558-1.8441729-5.1883323-6.7506682-8.6573449-12.257-8.666z"/><path id="Shape" d="m59.2 31.02c-4.675-.935-6.2-4.795-6.2-6.02 0-3.266 2.887-13.687-2.715-20.018-2.926-3.306-7.732-4.982-14.285-4.982-8.746 0-12.521 6.358-11.955 15.124-.85-.082-1.632-.3-2.418.445-.3990825.3809886-.6255203.9082601-.627 1.46v2.022c-1.6842435.096035-3.3443114.4459843-4.924 1.038-.926315-1.1179459-2.5220168-1.408572-3.783-.689-4.179 2.384-6.3 8.2-7.019 10.586-.185.619-.207.533-3.752 4.078-.89159378.2194462-1.51922639 1.0178015-1.522 1.936v1c.00018421 1.4254302 1.00336934 2.653914 2.4 2.939l5.149 8.584c-.66376656.8812336-.78575924 2.0572891-.317 3.056l.436.928c.22870953.4870771.64351776.8618463 1.15123229 1.0401106.50771454.1782642 1.06576142.1450752 1.54876771-.0921106 1.488-.731 2.843-1.48 4.09-2.235.176.088.351.181.53.262-.1563181 1.3976864-.8639987 2.6751831-1.966 3.549-.907992.7563963-1.2456961 2.0000688-.8449791 3.1118291.4007169 1.1117602 1.4542115 1.8539965 2.6359791 1.8571709h17.374c1.1834163.0006065 2.2403799-.7402839 2.6434375-1.8529469.4030577-1.112663.0658139-2.3585993-.8434375-3.1160531-1.1903428-.9296639-1.9159506-2.3323109-1.987-3.841v-1.439c1.7697322-1.2819823 3.2735849-2.8955333 4.428-4.751h3.244c.8209744-.0002173 1.5596442-.4987304 1.867-1.26 3.1406707-7.9600468 1.1395977-17.0295471-5.059-22.929 2.092-.281 5.014-.993 6.861-2.739 1.101.555 1.659 1.872 1.659 3.928 0 6.056 2.633 12.47 8.694 12.47 2.0131277-.0723661 3.982184-.6097237 5.753-1.57.3861415-.1885765.6086298-.6027682.5526519-1.0288349-.0559779-.4260666-.3779043-.7687314-.7996519-.8511651zm-51.087-3.02h4.887l-1 2h-4.632c.174-.53.419-1.219.745-2zm-1.724 4h5.611c.756447.005029 1.4494484-.4220307 1.785-1.1l1-1.995c.3147248-.6202435.2846165-1.3594559-.0795074-1.9520497s-1.0099688-.953462-1.7054926-.9529503h-3.943c.93931919-1.9760782 2.4014496-3.657459 4.228-4.862.2612581-.1485396.5758455-.1703618.8551104-.0593171.2792649.1110448.492969.3429327.5808896.6303171v.01c.2.293 1.679 7.745 6.33 12.281h-16.637c2.124-2.124 1.754-1.744 1.975-2zm-1.625 8h2.68l3.834 6.129c-.6793333.408-1.38566667.808-2.119 1.2zm5.038 0h2.64l2.344 3.752c-.58.445-1.182.883-1.818 1.31zm-.328 11.657-.436-.928c-.22665614-.4877251-.02696181-1.0673689.452-1.312 4.0918861-2.0066511 7.773263-4.7594596 10.855-8.117.5078134-.5936977.6234441-1.4287344.2960686-2.1380839-.3273756-.7093495-1.0378197-1.1631402-1.8190686-1.1619161h-15.822c-.55228475 0-1-.4477153-1-1v-1.000003l22.314.000003c.3364019-.0008285.6506781.1675404.8363505.4480627.1856723.2805223.2178569.6356023.0856495.9449373-1.326 3.088-5.136 9.047-15.762 14.264zm5.326-11.666h4.034c-.7723958.8812858-1.6039917 1.7088723-2.489 2.477zm12.826 9.92c-.4434995.1794377-.6977752.6478691-.6066217 1.1175293.0911536.4696602.5021978.8089636.9806217.8094707.7009748-.1891252 1.3735775-.4709457 2-.838.0117765 2.1699059 1.004255 4.2180874 2.7 5.572.2578365.2184014.3530067.5739151.2387651.8919209s-.4138901.5316833-.7517651.5360791h-17.374c-.3407946-.0003617-.6449127-.213997-.7608378-.5344693-.115925-.3204723-.0188591-.6792286.2428378-.8975307 1.3508719-1.1028505 2.2711628-2.6453996 2.6-4.358.6850071.2266822 1.3873248.3972451 2.1.51.5148029-.0019782.9439854-.3944779.9918295-.9070565.0478442-.5125787-.3012855-.9777261-.8068295-1.0749435-.9335333-.1804848-1.8474456-.4507403-2.729-.807 6.671-4.524 9.481-9.1 10.617-11.749.398888-.9304399.30162-1.9993011-.2586678-2.8424545-.5602877-.8431534-1.5080198-1.3468689-2.5203322-1.3395455-4.1-2.452-6.359-8.322-7.425-12.074 7.690246-2.8259188 16.2248719 1.0446719 19.1654114 8.6918235 2.9405396 7.6471516-.8020624 16.2386731-8.4044114 19.2931765zm12.046-6.911h-2.172c2.2926583-5.1005333 1.9313994-11.0021927-.9662497-15.7850112-2.8976491-4.7828184-7.9613516-7.8355234-13.5437503-8.1649888v-2.025c.6424539.0322667 1.2827101.0990296 1.918.2 5.7095788.8884765 10.705496 4.3246906 13.5775266 9.3386832 2.8720305 5.0139925 3.3085992 11.0618156 1.1864734 16.4363168zm11.2-11.3c-2.857-1.768-3.872-6.33-3.872-9.7 0-3.213-1.162-4.791-2.456-5.555.1979491-.3946589.3444772-.8130705.436-1.245.08744-.5317506-.2622052-1.0371542-.7906321-1.1428396s-1.0455623.2263622-1.1693679.7508396c-.657 3.281-6.213 4.118-8.69 4.189-2.4599828-1.7770813-5.2776927-2.9967125-8.257-3.574-.187-2.322-.224-7.438 2.588-10.6 1.664-1.874 4.133-2.823 7.339-2.823 5.956 0 10.258 1.449 12.787 4.307 4.949 5.593 2.213 15.135 2.213 18.693 0 1.836 1.541 5.289 5.14 7.079-1.7261625.6507491-3.6508154.5122297-5.266-.379z"/><path id="Shape" d="m43.293 5.059c-2.3534545-.76359749-4.8195614-1.12169528-7.293-1.059-4.243 0-6.636 1.8-7.592 5.766-.0836001.3474408.0245076.7130895.2836001.9592097.2590924.2461203.6298073.3353205.9725.234.3426926-.1013205.6052998-.3777689.6888999-.7252097.714-2.965 2.237-4.234 5.647-4.234 2.2426305-.06187344 4.4795572.25628678 6.616.941.3361869.1209344.7113542.05332881.9841799-.1773504s.4018612-.58938639.3385-.941c-.0633612-.35161362-.309493-.6427152-.6456799-.7636496z"/></g></g></svg>