<svg viewBox="0 0 60 60" xmlns="http://www.w3.org/2000/svg"><g id="012---Carriage" fill="none"><g id="Layer_3" transform="translate(1 4)"><path id="Shape" d="m46 16v8c-.0094682 2.806864-.7468099 5.5632816-2.14 8h-27.72c-1.4067834-2.4311041-2.1451128-5.1912137-2.14-8v-8h9.4c.8555154.0064764 1.706465-.1252182 2.52-.39 1.3173683-.4256047 2.6957571-.6316873 4.08-.61 1.3842429-.0216873 2.7626317.1843953 4.08.61.813535.2647818 1.6644846.3964764 2.52.39z" fill="#ffdfb1"/><path id="Shape" d="m43 16v8c-.0094682 2.806864-.7468099 5.5632816-2.14 8h3c1.3931901-2.4367184 2.1305318-5.193136 2.14-8v-8z" fill="#dec39b"/><g fill="#607d8a"><path id="Shape" d="m33 20v7c0 .5522847-.4477153 1-1 1h-4c-.5522847 0-1-.4477153-1-1v-7c.8405796-.6952889 1.9103629-1.0518834 3-1 1.0896371-.0518834 2.1594204.3047111 3 1z"/><path id="Shape" d="m23 21v6c0 .5522847-.4477153 1-1 1h-1.027c-1.6403817.0000015-2.970793-1.3286198-2.973-2.969v-4.031c0-.5522847.4477153-1 1-1h3c.5522847 0 1 .4477153 1 1z"/><path id="Shape" d="m37 21v6c0 .5522847.4477153 1 1 1h1.027c1.6403817.0000015 2.970793-1.3286198 2.973-2.969v-4.031c0-.5522847-.4477153-1-1-1h-3c-.5522847 0-1 .4477153-1 1z"/></g><path id="Shape" d="m26 32v7.49c-2.9106499-.7458828-5.5496655-2.3029367-7.61-4.49-.8695909-.9044545-1.6252091-1.9119454-2.25-3z" fill="#ffdb00"/><path id="Shape" d="m34 32v7.49c-2.6233151.6800121-5.3766849.6800121-8 0v-7.49z" fill="#ff9701"/><path id="Shape" d="m43.85 32c-.3889453.67764-.8267723 1.3260249-1.31 1.94-.01 0-.01 0-.01.01-1.9313696.8557841-3.5740279 2.2518701-4.73 4.02-1.1930408.6742225-2.4710929 1.1854434-3.8 1.52v-7.49z" fill="#ffdb00"/><path id="Shape" d="m46 10.42v5.58h-9.4c-.8555154.0064764-1.706465-.1252182-2.52-.39-1.3173683-.4256047-2.6957571-.6316873-4.08-.61-1.3842429-.0216873-2.7626317.1843953-4.08.61-.813535.2647818-1.6644846.3964764-2.52.39h-9.4v-5.58c-.002433-.3483719.1766148-.67290102.4726128-.8566239.2959979-.18372288.6662778-.20015578.9773872-.0433761l2.03 1.02c.3200418.1604458.7014387.137562 1-.06l1.97-1.31c.3305929-.23001792.7694071-.23001792 1.1 0l1.9 1.26c.3337325.2197805.7662675.2197805 1.1 0l1.9-1.26c.3305929-.23001792.7694071-.23001792 1.1 0l.45.3 1.45.96c.3337325.2197805.7662675.2197805 1.1 0l1.45-.96.45-.3c.3305929-.23001792.7694071-.23001792 1.1 0l1.9 1.26c.3337325.2197805.7662675.2197805 1.1 0l1.9-1.26c.3305929-.23001792.7694071-.23001792 1.1 0l1.97 1.31c.2985613.197562.6799582.2204458 1 .06l2.03-1.02c.3111094-.15677968.6813893-.14034678.9773872.0433761.295998.18372288.4750458.508252.4726128.8566239z" fill="#ffea3a"/><path id="Shape" d="m44.55 9.52-1.565.786c.0070924.0376953.0121.0757531.015.114v5.58h3.0000245l-.0000245-5.58c.002433-.3483719-.1766148-.67290102-.4726128-.8566239-.2959979-.18372288-.6662778-.20015578-.9773872-.0433761z" fill="#fcd734"/><path id="Shape" d="m58 25c-.0081672 1.1011688-.8988312 1.9918328-2 2h-10.29c.1934427-.9882706.2905641-1.9929754.29-3v-1h10c1.1032019.0032948 1.9967052.8967981 2 2z" fill="#815a2c"/><path id="Shape" d="m56 23h-3c1.1032019.0032948 1.9967052.8967981 2 2-.0081672 1.1011688-.8988312 1.9918328-2 2h3c1.1011688-.0081672 1.9918328-.8988312 2-2-.0032948-1.1032019-.8967981-1.9967052-2-2z" fill="#624421"/><path id="Shape" d="m52.18 34.29c-2.9900048-1.5874235-6.5427501-1.7164132-9.64-.35-.01 0-.01 0-.01.01-4.6730959 2.0839404-7.290506 7.1164811-6.3134775 12.1390351.9770284 5.0225539 5.2901221 8.7069161 10.4036506 8.8870819 5.1135284.1801658 9.6752286-3.1915094 11.0033165-8.1328468 1.3280878-4.9413374-.928647-10.1456097-5.4434896-12.5532702zm-5.18 16.71c-3.8659932 0-7-3.1340068-7-7s3.1340068-7 7-7 7 3.1340068 7 7c-.0044086 3.8641657-3.1358343 6.9955914-7 7z" fill="#ff9701"/><path id="Shape" d="m52.18 34.29c-2.0372059-1.0980729-4.3738021-1.5111147-6.664-1.178 5.4375627.7537975 9.4849427 5.4044115 9.4809088 10.8939727-.0040338 5.4895612-4.0582442 10.1342219-9.4969088 10.8800273 5.2781326.7249805 10.3170916-2.4367265 11.9604683-7.5046248 1.6433768-5.0678984-.5812906-10.5849949-5.2804683-13.0953752z" fill="#f47c00"/><circle id="Oval" cx="47" cy="44" fill="#9d9d9d" r="2"/><path id="Shape" d="m21.41 44c-1.5517005-3.8097691-5.7432834-5.8178444-9.6845935-4.6396297-3.94131015 1.1782147-6.34308953 5.1573088-5.54927753 9.193641s4.52354833 6.8095616 8.61750333 6.4075075 7.2129386-3.8478742 7.2063677-7.9615188c.0005666-1.0288791-.1998529-2.0479612-.59-3zm-7.41 7c-2.209139 0-4-1.790861-4-4s1.790861-4 4-4 4 1.790861 4 4-1.790861 4-4 4z" fill="#ff9701"/><path id="Shape" d="m56.0000157 27-.0000157 3.3c.0034181 1.0549337-.5520924 2.0327844-1.46 2.57l-2.36 1.42c-2.9900048-1.5874235-6.5427501-1.7164132-9.64-.35.4832277-.6139751.9210547-1.26236 1.31-1.94h.01c.8979722-1.5486501 1.5237081-3.2398282 1.85-5z" fill="#90562d"/><path id="Shape" d="m53 27v3.3c.0034181 1.0549337-.5520924 2.0327844-1.46 2.57l-1.142.687c.6139979.1925667 1.210214.4378117 1.782.733l2.36-1.42c.9079076-.5372156 1.4634181-1.5150663 1.46-2.57l.0000157-3.3z" fill="#6d4122"/><path id="Shape" d="m37.8 37.97c-1.1790839 1.7896488-1.8051166 3.8868585-1.8 6.03h-14.59c-1.2216109-3.0199057-4.1523694-4.9974756-7.41-5h-6c-4.41827793-.0000001-7.99999983-3.5817221-7.99999983-8s3.5817219-7.9999999 7.99999983-8c1.1045695 0 2 .8954305 2 2s-.8954305 2-2 2c-2.209139 0-4 1.790861-4 4s1.790861 4 4 4h10.39c2.0603345 2.1870633 4.6993501 3.7441172 7.61 4.49 2.6233151.6800121 5.3766849.6800121 8 0 1.3289071-.3345566 2.6069592-.8457775 3.8-1.52z" fill="#90562d"/><path id="Shape" d="m32.49 5.68c-.3030446.41295824-.4738801.90803254-.49 1.42v2.37l-1.45.96c-.3337325.2197805-.7662675.2197805-1.1 0l-1.45-.96v-2.25c-.0198509-.57616858-.2037174-1.13470647-.53-1.61-.309139-.47988926-.4724053-1.03916303-.47-1.61-.0171625-1.56830737 1.1766004-2.8851518 2.739066-3.0214743s2.9662402.95389114 3.220934 2.5014743c.1301081.76644714-.038062 1.55362635-.47 2.2z" fill="#ffdb00"/></g><g id="Layer_11" fill="#000"><path id="Shape" d="m29 33h4c1.1045695 0 2-.8954305 2-2v-7c-.0000566-.2651948-.1054506-.5195073-.293-.707-2.378-2.378-7.707-1.069-7.707.707v7c0 1.1045695.8954305 2 2 2zm0-8.5c1.2495537-.6684495 2.7504463-.6684495 4 0v6.5h-4z"/><path id="Shape" d="m21.974 33h1.026c1.1045695 0 2-.8954305 2-2v-6c0-1.1045695-.8954305-2-2-2h-3c-1.1045695 0-2 .8954305-2 2v4.033c.0066057 2.1909033 1.7830884 3.9642569 3.974 3.967zm-1.974-8h3v6h-1.026c-1.0878063-.0010942-1.970147-.8812-1.974-1.969z"/><path id="Shape" d="m39 33h1.026c2.1914625-.0032954 3.9679457-1.7775434 3.974-3.969v-4.031c0-1.1045695-.8954305-2-2-2h-3c-1.1045695 0-2 .8954305-2 2v6c0 1.1045695.8954305 2 2 2zm0-8h3v4.03c-.0033037 1.0881907-.8858048 1.9689036-1.974 1.97h-1.026z"/><path id="Shape" d="m40.4 45.508-.011.02v.015c-1.0685483 3.2956801.1057421 6.9046427 2.9090702 8.9404852 2.8033281 2.0358424 6.5985315 2.0358424 9.4018596 0 2.8033281-2.0358425 3.9776185-5.6448051 2.9090702-8.9404852v-.015l-.011-.02c-1.0746571-3.2858021-4.1399227-5.5083189-7.597-5.5083189s-6.5223429 2.2225168-7.597 5.5083189zm6.6-3.418v3.094c-.5426218.1949475-1.0175711.5421326-1.368 1l-2.945-.957c.8693545-1.6614274 2.4645697-2.8216848 4.313-3.137zm-4.929 5.035 2.937.954c.0132039.5787301.1949629 1.1410362.523 1.618l-1.814 2.5c-1.3190631-1.3357339-1.9293389-3.2162437-1.646-5.072zm3.265 6.243 1.819-2.5c.5488193.1808448 1.1411807.1808448 1.69 0l1.819 2.5c-1.6760956.8424493-3.6519044.8424493-5.328 0zm8.593-6.243c.2820243 1.8547438-.3281315 3.7337716-1.646 5.069l-1.814-2.5c.3280371-.4769638.5097961-1.0392699.523-1.618zm-4.929-5.035c1.8474463.3142241 3.4424678 1.4724915 4.313 3.132l-2.945.957c-.3504289-.4578674-.8253782-.8050525-1.368-1zm0 5.91c0 .5522847-.4477153 1-1 1s-1-.4477153-1-1 .4477153-1 1-1 1 .4477153 1 1z"/><path id="Shape" d="m15 46c-2.7614237 0-5 2.2385763-5 5s2.2385763 5 5 5 5-2.2385763 5-5c-.0033061-2.7600532-2.2399468-4.9966939-5-5zm-1 7.816c-.846935-.3025307-1.5134693-.969065-1.816-1.816h1.816zm0-3.816h-1.816c.3025307-.846935.969065-1.5134693 1.816-1.816zm2 3.816v-1.816h1.816c-.3025307.846935-.969065 1.5134693-1.816 1.816zm0-3.816v-1.816c.846935.3025307 1.5134693.969065 1.816 1.816z"/><path id="Shape" d="m58 34.3v-2.484c1.3591796-.4990177 2.1680098-1.8975992 1.9226604-3.324551-.2453493-1.4269518-1.4748624-2.4750616-2.9226604-2.491449h-1v-2h2c.5522847 0 1-.4477153 1-1s-.4477153-1-1-1h-10v-7.584c.0010227-.6947884-.3586134-1.3403254-.9499369-1.7051109-.5913236-.3647854-1.3295969-.396545-1.9500631-.0838891l-2.033 1.017-1.957-1.308c-.6718445-.4479544-1.5471555-.4479544-2.219 0l-1.891 1.264c-1.947-1.3-2.219-1.6-3-1.6 0-.9-.082-1.176.312-1.752.7275127-1.07660188.8867551-2.43949779.4270333-3.65481758-.4597217-1.21531978-1.4811181-2.13161281-2.7390333-2.45718242v-1.136c.5522847 0 1-.44771525 1-1s-.4477153-1-1-1c0-.55228475-.4477153-1-1-1s-1 .44771525-1 1c-.5522847 0-1 .44771525-1 1s.4477153 1 1 1v1.128c-1.2389189.32137118-2.2496147 1.21553514-2.7196086 2.4060414-.469994 1.19050626-.3426693 2.53394353.3426086 3.6149586.3527352.5481382.4872466 1.2085645.377 1.851-.3948807.0000452-.780857.1173346-1.109.337l-1.891 1.263-1.89-1.26c-.6718445-.4479544-1.5471555-.4479544-2.219 0l-1.963 1.308-2.028-1.021c-.6204662-.3126559-1.3587395-.2808963-1.9500631.0838891-.5913235.3647855-.9509596 1.0103225-.9499369 1.7051109v13.584c-.0057716 3.5957258 1.1370946 7.099301 3.262 10h-8.262c-1.65685425 0-3-1.3431458-3-3s1.34314575-3 3-3c1.6568542 0 3-1.3431458 3-3s-1.3431458-3-3-3c-3.21539034.0635932-6.15260695 1.8377461-7.70522875 4.6541525-1.55262179 2.8164063-1.48476857 6.247187.178 9.0000001 1.66276858 2.752813 4.66783841 4.4094407 7.88322875 4.3458474-3.46723261 2.7882856-4.3766787 7.6916938-2.13996084 11.5379039 2.23671785 3.84621 6.94825914 5.4807997 11.08643364 3.8462509 4.1381746-1.6345488 6.4609285-6.0476338 5.4655272-10.3841548h12.283c.4525159 5.5211809 4.62708 10.014314 10.1001464 10.870908 5.4730664.8565939 10.8208229-2.1461931 12.9386261-7.2650913s.4547089-11.0222318-4.0237725-14.2828167l.984-.593c1.2152162-.7137269 1.9582552-2.0207136 1.95-3.43zm-6-10.3h2v2h-2zm-4 0h2v2h-2zm0 4h9c.5522847 0 1 .4477153 1 1-.0070059.5493566-.4506434.9929941-1 1h-9.124c.0809232-.663621.1223296-1.3314653.124-2zm-18.282-21.537c.5467012-.45802918 1.295946-.59026677 1.9664114-.34706078.6704653.24320599 1.1606831.82504886 1.2865886 1.52706078.235 1.438-.971 1.757-.971 3.457v1.83l-1 .67-1-.667c0-1.731.149-2.543-.692-3.858-.5362506-.85058521-.3610687-1.96662188.41-2.612zm-13.718 7.954 2.033 1.016c.6411776.3183609 1.4034524.2707187 2-.125l1.967-1.308 1.89 1.26c.6718445.4479544 1.5471555.4479544 2.219 0l1.891-1.26 1.89 1.26c.6718445.4479544 1.5471555.4479544 2.219 0l1.891-1.26 1.89 1.26c.6718445.4479544 1.5471555.4479544 2.219 0l1.891-1.26 1.962 1.308c.5962067.3967326 1.3590344.4444093 2 .125l2.038-1.017v4.584c-9.073 0-9.282.111-10.595-.34-2.8703636-.8825193-5.9396364-.8825193-8.81 0-1.322.453-1.546.34-10.595.34zm0 13.583v-7h8.4c2.831 0 3.027-1 6.6-1 3.52 0 3.814 1 6.6 1h8.4v7c-.0013867 2.4399602-.5979651 4.8427499-1.738 7h-26.523c-1.1403823-2.1571615-1.7373051-4.559956-1.739-7zm26.989 9c-.042.056-.081.115-.124.17-1.9025442.9049532-3.535258 2.2918636-4.736 4.023-.6831426.3724875-1.3950981.6895067-2.129.948v-5.141zm-8.989 0v5.7c-1.9792437.4074927-4.0207563.4074927-6 0v-5.7zm-8 0v5.132c-2.7859151-.9875747-5.2201239-2.7721975-7-5.132zm-11 21c-3.5219715.0027186-6.49751906-2.6117497-6.94792633-6.1048033s1.76460122-6.7768114 5.17206173-7.6675994c3.4074605-.890788 6.946149.8888219 8.2628646 4.1554027.865048 2.1565465.6049512 4.6016419-.6944101 6.5279495-1.2993613 1.9263077-3.4690219 3.0833361-5.7925899 3.0890505zm21.051-11h-13c-1.5177419-3.0591133-4.6360774-4.9957271-8.051-5h-6c-3.86599325 0-7-3.1340068-7-7s3.13400675-7 7-7c.55228475 0 1 .4477153 1 1s-.44771525 1-1 1c-2.76142375 0-5 2.2385763-5 5s2.23857625 5 5 5h9.965c2.1152278 2.1143075 4.7477051 3.6372482 7.635 4.417.029.012.063.012.093.022 3.2995913.8724505 6.7861022.7246224 10-.424-.3414601.9632559-.5572405 1.9665342-.642 2.985zm21.949 1c0 5.5228475-4.4771525 10-10 10s-10-4.4771525-10-10 4.4771525-10 10-10c5.5203344.0060624 9.9939376 4.4796656 10 10zm-2-13.7c.0037199.7042704-.3682491 1.3571217-.976 1.713l-1.908 1.148c-2.2470167-1.0779965-4.7781436-1.4151766-7.229-.963.7279051-1.3203682 1.2757712-2.7322417 1.629-4.198h8.4840276z"/></g></g></svg>