<svg viewBox="0 0 60 60" xmlns="http://www.w3.org/2000/svg"><g id="037---Princess" fill="none"><g id="Layer_3" transform="translate(1 1)"><path id="Shape" d="m36 33.36v6.64l-.01.01c-.01 0 .01 5.99-6.99 5.99s-6.98-5.99-6.99-5.99l-.01-.01v-6.64c1.78 2.52 4.13 4.64 7 4.64s5.22-2.12 7-4.64z" fill="#ffdfb1"/><path id="Shape" d="m33 36.551v3.449l-.01.01c-.0933205 3.0598174-2.4435127 5.5748227-5.49 5.875.496481.0752619.9978486.1137001 1.5.115 7 0 6.98-5.99 6.99-5.99l.01-.01v-6.64c-.8271739 1.2138458-1.8394528 2.2905732-3 3.191z" fill="#dec39b"/><path id="Shape" d="m49 37c.0010251 1.8509001-.8557935 3.5977759-2.32 4.73l-.03.17-5.73-1.02-4.92-.88v-6.64c.36-.5.69-1.02 1-1.54 1.0732864-1.8359478 1.9738169-3.767569 2.69-5.77.2047025-.5711506.3095668-1.1732745.31-1.78v-4.91c.0075976-.366975-.1593863-.7157857-.45-.94-1.26-.89-5.56-4.13-8.3-6.42h12.45c.2017307.9872004.3022508 1.9924015.3 3v16.09c2.8867789.4837665 5.0011619 2.9829672 5 5.91z" fill="#90562d"/><path id="Shape" d="m44 31.09v-16.09c.0022508-1.0075985-.0982693-2.0127996-.3-3h-3c.2017307.9872004.3022508 1.9924015.3 3v16.09c2.2657001.3762865 4.1157021 2.016942 4.7600809 4.2214293.6443787 2.2044873-.0307365 4.5832428-1.7370809 6.1205707l2.627.468.03-.17c1.8800211-1.4574367 2.7192722-3.8893682 2.1382529-6.1961013-.5810192-2.3067331-2.4721537-4.0509359-4.8182529-4.4438987z" fill="#6d4122"/><path id="Shape" d="m40 19.36v4.91c-.0004332.6067255-.1052975 1.2088494-.31 1.78-.7161831 2.002431-1.6167136 3.9340522-2.69 5.77-.31.52-.64 1.04-1 1.54-1.78 2.52-4.13 4.64-7 4.64s-5.22-2.12-7-4.64c-.36-.5-.69-1.02-1-1.54-1.0732864-1.8359478-1.9738169-3.767569-2.69-5.77-.2047025-.5711506-.3095668-1.1732745-.31-1.78v-4.91c-.0075976-.366975.1593863-.7157857.45-.94 1.26-.89 5.56-4.13 8.3-6.42h4.5c2.74 2.29 7.04 5.53 8.3 6.42.2906137.2242143.4575976.573025.45.94z" fill="#ffdfb1"/><path id="Shape" d="m39.55 18.42c-1.26-.89-5.56-4.13-8.3-6.42h-3c2.74 2.29 7.04 5.53 8.3 6.42.2906137.2242143.4575976.573025.45.94v4.91c-.0004332.6067255-.1052975 1.2088494-.31 1.78-.7161831 2.002431-1.6167136 3.9340522-2.69 5.77-.31.52-.64 1.04-1 1.54-1.458 2.064-3.3 3.839-5.5 4.421.4882661.1383077.9925723.2119364 1.5.219 2.87 0 5.22-2.12 7-4.64.36-.5.69-1.02 1-1.54 1.0732864-1.8359478 1.9738169-3.767569 2.69-5.77.2047025-.5711506.3095668-1.1732745.31-1.78v-4.91c.0075976-.366975-.1593863-.7157857-.45-.94z" fill="#dec39b"/><path id="Shape" d="m21 31.82c.31.52.64 1.04 1 1.54v6.64l-4.92.88-5.73 1.02-.03-.17c-1.88002113-1.4574367-2.71927219-3.8893682-2.13825293-6.1961013.58101925-2.3067331 2.47215373-4.0509359 4.81825293-4.4438987v-16.09c-.0022508-1.0075985.0982693-2.0127996.3-3h12.45c-2.74 2.29-7.04 5.53-8.3 6.42-.2906137.2242143-.4575976.573025-.45.94v4.91c.0004332.6067255.1052975 1.2088494.31 1.78.7161831 2.002431 1.6167136 3.9340522 2.69 5.77z" fill="#90562d"/><path id="Shape" d="m15.73 8.01c2.2181037-4.2178006 6.3101307-7.12910687 11.0220322-7.84171534 4.7119014-.71260847 9.4818232.85845333 12.8479678 4.23171534 1.0681239 1.0607936 1.9684478 2.27808553 2.67 3.61" fill="#90562d"/><path id="Shape" d="m39.6 4.4c-2.8050799-2.82171111-6.6212447-4.40577953-10.6-4.4-.493 0-.978.032-1.459.079 4.9853082.52864077 9.3815311 3.50131054 11.729 7.931h3c-.7015522-1.33191447-1.6018761-2.5492064-2.67-3.61z" fill="#6d4122"/><path id="Shape" d="m45 9.01v1.99c0 .5522847-.4477153 1-1 1h-30c-.5522847 0-1-.4477153-1-1v-1.99c0-.55228475.4477153-1 1-1h5.59c.2630672.00257812.5158296-.10213772.7-.29l2-1.99c.3930079-.38997787 1.0269921-.38997787 1.42 0l1.47 1.47c.2054458.20568963.4902329.31179197.7801813.29066991.2899483-.02112207.5563518-.16737736.7298187-.40066991l1.51-2.69c.1888544-.25180584.4852427-.4.8-.4s.6111456.14819416.8.4l1.51 2.69c.1734669.23329255.4398704.37954784.7298187.40066991.2899484.02112206.5747355-.08498028.7801813-.29066991l1.47-1.47c.3930079-.38997787 1.0269921-.38997787 1.42 0l2 1.99c.1841704.18786228.4369328.29257812.7.29h5.59c.2652165 0 .5195704.10535684.7071068.29289322s.2928932.44189029.2928932.70710678z" fill="#ffea3a"/><path id="Shape" d="m55 50.25v6.75c0 .5522847-.4477153 1-1 1h-8v-4z" fill="#673ab6"/><path id="Shape" d="m52 51.5v5.5c0 .5522847-.4477153 1-1 1h3c.5522847 0 1-.4477153 1-1v-6.75z" fill="#45279f"/><path id="Shape" d="m12 54v4h-8c-.55228475 0-1-.4477153-1-1v-6.75z" fill="#673ab6"/><path id="Shape" d="m29 58h-17v-4l-9-3.75-1.77-.74c-.74186862-.3112015-1.22605486-1.0355127-1.23-1.84v-.4c-.00038801-1.9010745 1.33733498-3.5397851 3.2-3.92l8.15-1.45 5.73-1.02c.33 2.42 2.08 9.12 11.92 9.12-1.66 0-3 1.79-3 4s1.34 4 3 4z" fill="#9c27af"/><path id="Shape" d="m58 47.27v.4c-.0039451.8044873-.4881314 1.5287985-1.23 1.84l-1.77.74-9 3.75v4h-17c1.66 0 3-1.79 3-4s-1.34-4-3-4c9.84 0 11.59-6.7 11.92-9.12l5.73 1.02 8.15 1.45c1.862665.3802149 3.200388 2.0189255 3.2 3.92z" fill="#9c27af"/><path id="Shape" d="m54.8 43.35-8.15-1.45-5.73-1.02c-.021.156-.049.331-.084.519l2.814.5 8.15 1.45c1.8630333.3802899 3.2008634 2.0195499 3.2 3.921v.4c-.0039451.8044873-.4881314 1.5287985-1.23 1.84l-1.77.74-9 3.75v4h3v-4l9-3.75 1.77-.74c.7418686-.3112015 1.2260549-1.0355127 1.23-1.84v-.4c.000388-1.9010745-1.337335-3.5397851-3.2-3.92z" fill="#6a1b99"/><path id="Shape" d="m40.92 40.88c-.33 2.42-2.08 9.12-11.92 9.12s-11.59-6.7-11.92-9.12l4.92-.88.01.01c.01 0-.01 5.99 6.99 5.99s6.98-5.99 6.99-5.99l.01-.01z" fill="#673ab6"/><ellipse id="Oval" cx="29" cy="54" fill="#ffea3a" rx="3" ry="4"/></g><path id="Shape" d="m55.976 43.366-6.405-1.142c1.3902022-1.8257302 1.7945093-4.2180221 1.0814917-6.399205s-2.4523146-3.8727415-4.6524917-4.524795c0-16.784.06-15.839-.166-17.489.7082938-.3249548 1.1633433-1.0317255 1.166-1.811v-1.991c0-1.1045695-.8954305-2-2-2h-1.15c-2.8537179-4.95220764-8.1344015-8.00391455-13.85-8.00391455s-10.9962821 3.05170691-13.85 8.00391455h-1.15c-1.1045695 0-2 .8954305-2 2v1.991c.0030456.7789121.4580336 1.4851971 1.166 1.81-.228 1.667-.166.62-.166 17.49-2.2001444.6517691-3.9394931 2.3431381-4.65253481 4.5241951s-.30871024 4.5732483 1.08153481 6.3988049l-6.429 1.147c-2.32429937.4819261-3.99315511 2.5262744-4 4.9v.4c-.00020536 1.2096149.72842405 2.3001908 1.846 2.763l1.154.481v6.086c0 1.1045695.8954305 2 2 2h50c1.1045695 0 2-.8954305 2-2v-6.086l1.155-.482c1.1170266-.462763 1.8452387-1.5529103 1.845-2.762v-.4c-.0092354-2.3818846-1.6897547-4.4299131-4.024-4.904zm-9.976-7.366v-2.563c1.5825761.6831306 2.697948 2.1377748 2.9469964 3.8434094.2490483 1.7056346-.4038241 3.418469-1.7249964 4.5255906l-9.222-1.644v-5.493c1.5086508-2.2677886 2.7290399-4.7146133 3.633-7.284.488-1.374.367-1.927.367-7.022.0071854-.6943201-.3184799-1.3501119-.876-1.764-.888-.624-3.6-2.654-6.052-4.6h8.77c.216 1.508.158.084.158 22 0 .5522847.4477153 1 1 1s1-.4477153 1-1zm-17.889-22h3.778c2.736 2.264 6.794 5.329 8.068 6.222.0307383.0403432.0459946.0903695.043.141 0 4.876.1 5.362-.251 6.349-1.578 4.398-5.101 11.288-9.749 11.288s-8.179-6.916-9.748-11.284c-.352-1.005-.252-1.397-.252-6.353-.0011539-.0439837.0073811-.0876829.025-.128.118 0 5.417-4.028 8.086-6.235zm7.889 23.126c0 .967-.009 3.83-.01 3.866-.048 1.175-.62 5.008-5.99 5.008s-5.942-3.833-5.99-5.008c-.0750264-1.287484-.0783649-2.5781451-.01-3.866 3.73 3.785 8.165 3.891 12 0zm-6 10.874c5.893 0 7.438-3.843 7.844-5.834l2.909.518c-.64 2.757-2.886 7.316-10.753 7.316s-10.113-4.559-10.753-7.316l2.908-.518c.405 1.986 1.945 5.834 7.845 5.834zm11.484-39.987h-2.071l-2-1.994c-.7807702-.77943189-2.0452298-.77943189-2.826 0l-1.472 1.467c-1.49-2.659-1.453-2.6-1.515-2.688-.4049311-.49989016-1.0209486-.78082473-1.663891-.75881692-.6429425.02200781-1.238308.34440781-1.608109.87081692l-1.443 2.576-1.472-1.467c-.7807702-.77943189-2.0452298-.77943189-2.826 0l-2 1.994h-2.076c2.6113046-3.76654296 6.9032962-6.01353048 11.4865-6.01353048s8.8751954 2.24698752 11.4865 6.01353048zm-26.484 2h5.587c.5300181.0014764 1.038682-.2087569 1.413-.584l2-1.993 1.478 1.472c.4100267.40909901.9772713.62034956 1.555011.57910984s1.1092274-.33091903 1.456989-.79410984c.064-.087-.012.039 1.509-2.676 1.538 2.745 1.445 2.589 1.509 2.676.3477616.46319081.8792493.75287012 1.456989.79410984s1.1449843-.17001083 1.555011-.57910984l1.48-1.473 2 1.994c.3740736.37499675.8823283.5852097 1.412.584h5.588v1.987h-30zm-1 23.424v2.563c0 .5522847.4477153 1 1 1s1-.4477153 1-1c0-21.708-.062-20.464.158-22h8.77c-2.455 1.945-5.168 3.978-6.067 4.609-.5496432.4144424-.8693155 1.0656679-.861 1.754 0 5.123-.119 5.655.368 7.025.9036335 2.5680851 2.1236963 5.0135855 3.632 7.28v5.494l-9.222 1.644c-1.3211723-1.1071216-1.9740447-2.819956-1.7249964-4.5255906.2490484-1.7056346 1.3644203-3.1602788 2.9469964-3.8434094zm-2 24.563h-7v-5.252l7 2.919zm14.82 0h-12.82v-5c0-.5522847-.4477153-1-1-1s-1 .4477153-1 1v.5l-9.384-3.913c-.36945847-.1559226-.61135194-.516014-.616-.917v-.4c.00190699-1.4160326.99149389-2.6388555 2.376-2.936l12.9-2.3c.61 2.655 2.7 7.6 9.7 8.719-1.2481551 1.879335-1.3087964 4.3077085-.156 6.247zm3.18 0c-1.084 0-2-1.374-2-3s.916-3 2-3 2 1.374 2 3-.916 3-2 3zm25 0h-7v-2.333l7-2.919zm3-9.33c-.0047354.4006657-.2461059.7605628-.615.917l-9.385 3.913v-.5c0-.5522847-.4477153-1-1-1s-1 .4477153-1 1v5h-12.82c1.1502771-1.9403799 1.0869175-4.3682573-.163-6.246 7-1.122 9.094-6.064 9.7-8.719l12.883 2.295c1.3944529.2893645 2.3956631 1.5158469 2.4 2.94z" fill="#000"/></g></svg>