<svg viewBox="0 0 54 58" xmlns="http://www.w3.org/2000/svg"><g id="Page-1" fill="none" fill-rule="evenodd"><g id="001---Diving-Helmet" fill-rule="nonzero"><path id="Shape" d="m10 48c-3.3137085 0-6 2.6862915-6 6v4h46v-4c0-3.3137085-2.6862915-6-6-6z" fill="#f0c419"/><path id="Shape" d="m32 4.58v-1.58c0-1.65685425-1.3431458-3-3-3h-4c-1.6568542 0-3 1.34314575-3 3v1.58z" fill="#f29c1f"/><path id="Shape" d="m6.5 34h-2.5c-2.209139 0-4-1.790861-4-4v-8c0-2.209139 1.790861-4 4-4h2.5z" fill="#f29c1f"/><path id="Shape" d="m47.5 34h2.5c2.209139 0 4-1.790861 4-4v-8c0-2.209139-1.790861-4-4-4h-2.5z" fill="#f29c1f"/><path id="Shape" d="m36.17 46h6.83c.5522847 0 1 .4477153 1 1v2c0 4.9705627-4.0294373 9-9 9h-16c-4.9705627 0-9-4.0294373-9-9v-2c0-.5522847.4477153-1 1-1z" fill="#e57e25"/><path id="Shape" d="m14 46v3.121c-.0205173.9414058.2451953 1.8668667.762 2.654.9652156 1.3884934 2.5469889 2.2189431 4.238 2.225h16c1.6910111-.0060569 3.2727844-.8365066 4.238-2.225.5168047-.7871333.7825173-1.7125942.762-2.654v-3.121z" fill="#f29c1f"/><circle id="Oval" cx="3" cy="10" fill="#3b97d3" r="2"/><circle id="Oval" cx="9" cy="3" fill="#3b97d3" r="3"/><circle id="Oval" cx="2" cy="4" fill="#2980ba" r="1"/><circle id="Oval" cx="51" cy="10" fill="#3b97d3" r="2"/><circle id="Oval" cx="45" cy="3" fill="#3b97d3" r="3"/><circle id="Oval" cx="52" cy="4" fill="#2980ba" r="1"/><circle id="Oval" cx="27" cy="26" fill="#f0c419" r="22"/><circle id="Oval" cx="27" cy="26" fill="#f29c1f" r="16"/><circle id="Oval" cx="27" cy="26" fill="#e57e25" r="13"/><path id="Shape" d="m38 26c.0023954 5.0609336-3.4471614 9.4710513-8.3597143 10.6875539-4.9125529 1.2165025-10.0214609-1.0742703-12.381014-5.5514976-2.359553-4.4772272-1.3613696-9.9865113 2.4190146-13.351292s9.368244-3.7174911 13.5417137-.8547643c2.9918014 2.0498631 4.7801939 5.4433192 4.78 9.07z" fill="#2fa8cc"/><path id="Shape" d="m34 21c-.0009551 4.0819186-2.2621883 7.8276696-5.873761 9.7299323-3.6115726 1.9022627-7.9795564 1.6482073-11.346239-.6599323-1.7898626-4.4979067-.428797-9.6372563 3.3526939-12.6596889 3.781491-3.0224325 9.0944368-3.2174205 13.0873061-.4803111.5155107 1.2949963.780207 2.6761683.78 4.07z" fill="#67b9cc"/><g fill="#e57e25"><circle id="Oval" cx="27" cy="8" r="1"/><circle id="Oval" cx="14.272" cy="13.272" r="1"/><circle id="Oval" cx="9" cy="26" r="1"/><circle id="Oval" cx="14.272" cy="38.728" r="1"/><circle id="Oval" cx="27" cy="44" r="1"/><circle id="Oval" cx="39.728" cy="38.728" r="1"/><circle id="Oval" cx="45" cy="26" r="1"/><circle id="Oval" cx="39.728" cy="13.272" r="1"/></g><path id="Shape" d="m21 27c-.5522847 0-1-.4477153-1-1 .0044086-3.8641657 3.1358343-6.9955914 7-7 .5522847 0 1 .4477153 1 1s-.4477153 1-1 1c-2.7600532.0033061-4.9966939 2.2399468-5 5 0 .5522847-.4477153 1-1 1z" fill="#9fc9d3"/></g></g></svg>