<svg viewBox="0 0 60 60" xmlns="http://www.w3.org/2000/svg"><g id="Page-1" fill="none" fill-rule="evenodd"><g id="016---Puffer-Fish" fill-rule="nonzero"><g fill="#f29c1f"><path id="Shape" d="m49.971 17.69c-.4408769.0005403-.8300902-.2877099-.9581268-.709586-.1280366-.421876.0353166-.8778265.4021268-1.122414l2.19-1.46c.297245-.1982824.6776931-.2229246.9980331-.0646441.3203401.1582805.5319049.4754371.555.832s-.1457881.6983617-.4430331.8966441l-2.191 1.46c-.16352.1097575-.3560598.1682506-.553.168z"/><path id="Shape" d="m30 7c-.5522847 0-1-.44771525-1-1v-5c0-.55228475.4477153-1 1-1s1 .44771525 1 1v5c0 .55228475-.4477153 1-1 1z"/><path id="Shape" d="m39.185 8.827c-.3340879.00008408-.6461499-.1666752-.8317466-.44446758-.1855966-.27779238-.2202091-.62991929-.0922534-.93853242l1.913-4.619c.2214269-.4935975.7952475-.72160323 1.2950606-.51458807.499813.20701516.7443685.77398012.5519394 1.27958807l-1.913 4.619c-.1544456.37364684-.5186917.61752995-.923.618z"/><path id="Shape" d="m46.971 14.029c-.4043959-.0000863-.7689341-.2437275-.923678-.6173454-.1547439-.373618-.0692299-.8036603.216678-1.0896546l3.536-3.535c.2486399-.27014567.6253227-.38231463.9812426-.2921953.3559199.09011932.6338334.36803283.7239527.72395272s-.0220496.73260273-.2921953.98124258l-3.535 3.535c-.1873289.1879162-.4416616.2936783-.707.294z"/><path id="Shape" d="m52.173 21.816c-.4772478.0002902-.8881898-.3367019-.9813647-.804766s.1573876-.9367382.5983647-1.119234l4.62-1.913c.3316775-.1459579.7163639-.1010622 1.0055166.1173512.2891526.2184134.4375216.5761647.3878157.9351117-.0497059.3589471-.2897082.6629179-.6273323.7945371l-4.62 1.913c-.1213628.0505969-.2515126.0767628-.383.077z"/><path id="Shape" d="m59 31h-5c-.5522847 0-1-.4477153-1-1s.4477153-1 1-1h5c.5522847 0 1 .4477153 1 1s-.4477153 1-1 1z"/><path id="Shape" d="m56.793 42.1c-.1314874-.0002372-.2616372-.0264031-.383-.077l-4.62-1.913c-.3376241-.1316192-.5776264-.43559-.6273323-.7945371-.0497059-.358947.0986631-.7166983.3878157-.9351117.2891527-.2184134.6738391-.2633091 1.0055166-.1173512l4.62 1.913c.4409771.1824958.6915396.6511699.5983647 1.119234s-.5041169.8050562-.9813647.804766z"/><path id="Shape" d="m50.506 51.506c-.2651948-.0000566-.5195073-.1054506-.707-.293l-3.535-3.535c-.3789722-.3923789-.3735524-1.0160848.0121814-1.4018186s1.0094397-.3911536 1.4018186-.0121814l3.535 3.536c.2859079.2859943.3714219.7160366.216678 1.0896546-.1547439.3736179-.5192821.6172591-.923678.6173454z"/><path id="Shape" d="m41.1 57.793c-.4046724-.0000657-.7694151-.244017-.924-.618l-1.913-4.619c-.1490611-.332282-.1056935-.7193283.1132107-1.0103808.2189042-.2910524.5787296-.4400867.9393209-.3890528.3605913.051034.6649281.2940663.7944684.6344336l1.913 4.619c.1278879.3084495.0933838.6603789-.0919756.9381168s-.4971137.4446334-.8310244.4448832z"/><path id="Shape" d="m30 60c-.5522847 0-1-.4477153-1-1v-5c0-.5522847.4477153-1 1-1s1 .4477153 1 1v5c0 .5522847-.4477153 1-1 1z"/><path id="Shape" d="m18.9 57.793c-.3339107-.0002498-.645665-.1671453-.8310244-.4448832s-.2198635-.6296673-.0919756-.9381168l1.913-4.619c.2214269-.4935975.7952475-.7216032 1.2950606-.5145881.499813.2070152.7443685.7739802.5519394 1.2795881l-1.913 4.619c-.1545849.373983-.5193276.6179343-.924.618z"/><path id="Shape" d="m9.494 51.506c-.40395711-.0004892-.76794763-.2439725-.92260109-.6171533s-.06959314-.8027596.21560109-1.0888467l3.535-3.535c.3923789-.3789722 1.0160848-.3735524 1.4018186.0121814s.3911536 1.0094397.0121814 1.4018186l-3.536 3.534c-.1872476.1873046-.44115178.2926784-.706.293z"/><path id="Shape" d="m3.207 42.1c-.47724781.0002902-.88818979-.3367019-.98136471-.804766s.15738756-.9367382.59836471-1.119234l4.62-1.913c.33167747-.1459579.71636394-.1010622 1.00551658.1173512s.43752159.5761647.38781568.9351117c-.04970591.3589471-.28970815.6629179-.62733226.7945371l-4.62 1.911c-.12122334.0512828-.25137832.0781294-.383.079z"/><path id="Shape" d="m6 31h-5c-.55228475 0-1-.4477153-1-1s.44771525-1 1-1h5c.55228475 0 1 .4477153 1 1s-.44771525 1-1 1z"/><path id="Shape" d="m7.827 21.816c-.13148737-.0002372-.26163717-.0264031-.383-.077l-4.62-1.913c-.33762411-.1316192-.57762635-.43559-.62733226-.7945371-.04970591-.358947.09866304-.7166983.38781568-.9351117s.67383911-.2633091 1.00551658-.1173512l4.62 1.913c.44097715.1824958.69153963.6511699.59836471 1.119234s-.5041169.8050562-.98136471.804766z"/><path id="Shape" d="m13.029 14.029c-.2651948-.0000566-.5195073-.1054506-.707-.293l-3.535-3.536c-.27014567-.24863985-.38231463-.62532269-.2921953-.98124258.09011932-.35591989.36803283-.6338334.72395272-.72395272.35591989-.09011933.73260273.02204963.98124258.2921953l3.535 3.535c.2859079.2859943.3714219.7160366.216678 1.0896546-.1547439.3736179-.5192821.6172591-.923678.6173454z"/><path id="Shape" d="m20.815 8.827c-.4043083-.00047005-.7685544-.24435316-.923-.618l-1.913-4.619c-.1924291-.50560795.0521264-1.07257291.5519394-1.27958807.4998131-.20701516 1.0736337.02099057 1.2950606.51458807l1.913 4.619c.1279557.30861313.0933432.66074004-.0922534.93853242-.1855967.27779238-.4976587.44455166-.8317466.44446758z"/></g><path id="Shape" d="m54 30c.0005895 11.8871379-8.7005557 21.9837072-20.457487 23.7383047s-23.0268844-5.3614969-26.4970773-16.7308332c-3.47019295-11.3693363 1.90506168-23.5659456 12.6378998-28.67576283 10.7328382-5.10981722 23.5890896-1.59308012 30.2266645 8.26829133.4926985.7250721.9402145 1.4798379 1.34 2.26 1.8128524 3.4329602 2.7570414 7.2577841 2.75 11.14z" fill="#f0c419"/><path id="Shape" d="m51.25 18.86c-1.38-.3-6.01-1.1-7.36 1.59-.1659906.3394325-.5121694.5533632-.89.55-.1568573.0017042-.3116173-.0361261-.45-.11-.2368736-.1184807-.4166003-.3266797-.4992264-.5783137s-.061304-.5258491.0592264-.7616863c1.54-3.1 5.33-3.24 7.8-2.95.4926985.7250721.9402145 1.4798379 1.34 2.26z" fill="#e57e25"/><circle id="Oval" cx="35" cy="17" fill="#ecf0f1" r="5"/><circle id="Oval" cx="36" cy="16" fill="#3f5c6c" r="2"/><path id="Shape" d="m34.287 9.586c-.3004978.00036187-.5852286-.13442741-.7754202-.36707774s-.2656796-.53849561-.2055798-.83292226l.9-4.548c.0607603-.35885977.3117002-.65636906.6551778-.77676559.3434775-.12039653.7252464-.04466574.9967584.19772516.2715121.2423909.3898867.61316044.3090638.96804043l-.9 4.549c-.0908867.46964133-.5016459.80914642-.98.81z" fill="#f29c1f"/><path id="Shape" d="m42.148 12.853c-.369357-.0003105-.7084667-.2041933-.8819667-.5302645s-.1531347-.7212279.0529667-1.0277355l2.67-3.974c.1963121-.30337464.5410211-.47724275.9016743-.45479639.3606533.02244636.6811432.23771518.8383231.56309047s.126597.71023777-.0799974 1.00670592l-2.67 3.975c-.1860131.2766336-.497643.4423862-.831.442z" fill="#f29c1f"/><path id="Shape" d="m51.423 26.759c-.5145333-.000004-.9450828-.3904523-.9952313-.9025359s.2964742-.9786407.8012313-1.0784641l4.548-.9c.5417913-.1074194 1.0680806.2447087 1.1755.7865.1074193.5417913-.2447087 1.0680806-.7865 1.1755l-4.548.9c-.0642214.0127009-.1295348.0190648-.195.019z" fill="#f29c1f"/><path id="Shape" d="m55.963 36.189c-.0671382.000458-.1341491-.0059081-.2-.019l-4.548-.9c-.5409426-.1079493-.8923145-.6335356-.7853023-1.1746643s.631989-.8934105 1.1733023-.7873357l4.548.9c.5045705.0997852.8511565.5660479.8012825 1.0779669-.049874.5119191-.47994.9025161-.9942825.9030331z" fill="#f29c1f"/><path id="Shape" d="m52.12 45.819c-.1984206-.0001516-.3923109-.0593281-.557-.17l-3.973-2.67c-.3033746-.1963121-.4772428-.5410211-.4547964-.9016743.0224464-.3606533.2377152-.6811432.5630905-.8383231s.7102377-.126597 1.0067059.0799974l3.974 2.67c.3653787.2455352.5272175.7011287.3986137 1.1221396-.1286039.421011-.5173991.7084053-.9576137.7078604z" fill="#f29c1f"/><path id="Shape" d="m44.768 53.155c-.3346327.0003846-.6472789-.1666353-.833-.445l-2.654-3.981c-.205674-.297208-.2349653-.6822701-.0766144-1.0071691s.4796973-.5390655.8405141-.5601743.7049443.1541256.9001003.4583434l2.655 3.98c.2040789.3066761.2230279.7007175.0493181 1.025561-.1737098.3248436-.5119458.5278806-.8803181.528439z" fill="#f29c1f"/><path id="Shape" d="m35.143 56.971c-.4752686.000097-.8849463-.3343337-.98-.8l-.9-4.548c-.0808229-.35488.0375517-.7256495.3090638-.9680404.271512-.2423909.6532809-.3181217.9967584-.1977252.3434776.1203965.5944175.4179058.6551778.7767656l.9 4.547c.0583885.2936803-.0178957.5980711-.2078844.8295049-.1899888.2314338-.4736873.365554-.7731156.3654951z" fill="#f29c1f"/><path id="Shape" d="m24.812 56.962c-.0671549.0008526-.1342069-.0055174-.2-.019-.5413842-.1076155-.8931881-.633531-.786-1.175l.9-4.549c.0621163-.3577282.3132503-.6536826.6560986-.7731938s.7235387-.0438002.9945702.1977983c.2710315.2415984.3898166.6111217.3103312.9653955l-.9 4.548c-.092604.4658176-.5000749.8022423-.975.805z" fill="#f29c1f"/><path id="Shape" d="m15.18 53.122c-.369357-.0003105-.7084667-.2041933-.8819667-.5302645s-.1531347-.7212279.0529667-1.0277355l2.67-3.975c.3081749-.4583963.9296037-.5801749 1.388-.272s.5801749.9296037.272 1.388l-2.67 3.974c-.185785.277014-.4974542.4431626-.831.443z" fill="#f29c1f"/><path id="Shape" d="m7.846 45.767c-.44087694.0005403-.8300902-.2877099-.95812681-.709586-.12803661-.421876.03531659-.8778265.40212681-1.122414l3.981-2.654c.459119-.2945253 1.0695686-.1667863 1.3720769.2871125.3025083.4538989.185463 1.0664887-.2630769 1.3768875l-3.98 2.655c-.1639154.1095946-.35682323.1677455-.554.167z" fill="#f29c1f"/><path id="Shape" d="m4.027 36.144c-.51434252-.000517-.94440849-.391114-.99428247-.9030331-.04987399-.511919.29671194-.9781817.80128247-1.0779669l4.548-.9c.54179134-.1074194 1.06808062.2447087 1.1755.7865s-.24470866 1.0680806-.7865 1.1755l-4.548.9c-.06455757.0127087-.13020345.0190724-.196.019z" fill="#f29c1f"/><path id="Shape" d="m8.587 26.713c-.06716004.0009785-.1342256-.0053928-.2-.019l-4.548-.9c-.54094255-.1079493-.89231453-.6335356-.78530233-1.1746643.10701221-.5411287.63198908-.8934105 1.17330233-.7873357l4.548.9c.50457053.0997852.85115646.5660479.80128247 1.0779669-.04987398.5119191-.47993995.9025161-.99428247.9030331z" fill="#f29c1f"/><path id="Shape" d="m11.852 18.851c-.1984206-.0001516-.3923109-.0593281-.557-.17l-3.974-2.67c-.45839634-.3081749-.58017489-.9296037-.272-1.388s.92960366-.5801749 1.388-.272l3.973 2.67c.3652246.2454324.5270978.7007629.3987585 1.1216608-.1283394.4208979-.5167289.7084433-.9567585.7083392z" fill="#f29c1f"/><path id="Shape" d="m17.888 12.826c-.3348225.0001618-.6475083-.1672546-.833-.446l-2.655-3.98c-.306518-.45977705-.1822771-1.08098196.2775-1.3875s1.080982-.18227705 1.3875.2775l2.654 3.981c.2046328.3067094.2238907.701139.05011 1.0263244s-.5124026.5283622-.88111.5286756z" fill="#f29c1f"/><path id="Shape" d="m25.758 9.577c-.4771156-.00047789-.8874398-.3379486-.98-.806l-.9-4.547c-.0794854-.35427383.0392997-.7237971.3103312-.96539553s.6517219-.31730943.9945702-.19779825c.3428483.11951117.5939823.41546562.6560986.77319378l.9 4.548c.0600998.29442665-.0153882.60027193-.2055798.83292226s-.4749224.36743961-.7754202.36707774z" fill="#f29c1f"/><path id="Shape" d="m24.826 35c-.392322-.0001076-.7804059-.0811286-1.14-.238-4.851-2.114-4.838-6.851-4.608-8.789.1077936-1.0067294.7183927-1.8902535 1.622-2.347 3.256-1.607 8.141-1.626 8.347-1.626.5522847 0 1 .4477153 1 1s-.4477153 1-1 1c-.046 0-4.627.02-7.458 1.419-.296425.1581137-.4936458.4545084-.525.789-.22 1.857-.07 5.2 3.42 6.721.2966967.1245596.6374629.0798627.892-.117 1.739125-1.3364242 3.3769335-2.7997561 4.9-4.378.3816288-.3993019 1.0146981-.4136288 1.414-.032s.4136288 1.0146981.032 1.414c-1.5940176 1.6534103-3.3091058 3.1856584-5.131 4.584-.5065495.3882683-1.1267651.5991065-1.765.6z" fill="#e57e25"/><path id="Shape" d="m30 51c-.5522847 0-1-.4477153-1-1v-2c0-.5522847.4477153-1 1-1s1 .4477153 1 1v2c0 .5522847-.4477153 1-1 1z" fill="#f29c1f"/><path id="Shape" d="m22.347 49.478c-.3340879.0000841-.6461499-.1666752-.8317466-.4444676-.1855966-.2777924-.2202091-.6299193-.0922534-.9385324l1.477-3.553c.1316192-.3376241.43559-.5776264.7945371-.6273323.358947-.0497059.7166983.0986631.9351117.3878157.2184134.2891527.2633091.6738391.1173512 1.0055166l-1.476 3.552c-.1545849.373983-.5193276.6179343-.924.618z" fill="#f29c1f"/><path id="Shape" d="m15.857 45.142c-.4043959-.0000863-.7689341-.2437275-.923678-.6173454-.1547439-.373618-.0692299-.8036603.216678-1.0896546l1.415-1.414c.2527654-.2525868.6210837-.3511379.966213-.25853s.6146361.3623054.707.7075c.0923638.3451947-.0064476.7134432-.259213.96603l-1.415 1.414c-.1876563.1871827-.4419486.2922087-.707.292z" fill="#f29c1f"/><path id="Shape" d="m11.522 38.654c-.4770598-.0001871-.8875577-.3373304-.9804619-.8052565-.0929043-.4679261.1576586-.9363195.5984619-1.1187435l3.552-1.472c.3301134-.1368327.7081502-.087158.9917075.1303123.2835573.2174702.4295561.569697.383.924-.0465561.3543029-.2785941.656855-.6087075.7936877l-3.553 1.472c-.1215373.0499069-.2516153.0757188-.383.076z" fill="#f29c1f"/><path id="Shape" d="m12 31h-2c-.55228475 0-1-.4477153-1-1s.44771525-1 1-1h2c.5522847 0 1 .4477153 1 1s-.4477153 1-1 1z" fill="#f29c1f"/><path id="Shape" d="m15.075 24.818c-.1313847-.0002812-.2614627-.0260931-.383-.076l-3.552-1.472c-.5103111-.2112489-.7527489-.7961889-.5415-1.3065s.7961889-.7527489 1.3065-.5415l3.553 1.472c.4409771.1824958.6915396.6511699.5983647 1.119234s-.5041169.8050562-.9813647.804766z" fill="#f29c1f"/><path id="Shape" d="m17.272 18.272c-.2651948-.0000566-.5195073-.1054506-.707-.293l-1.415-1.414c-.3907414-.3904653-.3909653-1.0237585-.0005-1.4145.3904653-.3907414 1.0237585-.3909653 1.4145-.0005l1.415 1.414c.2866239.2859.3725934.7164072.2177586 1.0904636-.1548349.3740564-.5199229.6178554-.9247586.6175364z" fill="#f29c1f"/><path id="Shape" d="m23.8 16.023c-.4046724-.0000657-.7694151-.244017-.924-.618l-1.449-3.5c-.1366541-.3301134-.0868143-.7080549.1307453-.9914575.2175595-.2834026.5697863-.4292108.924-.3825.3542136.0467108.6566006.2788441.7932547.6089575l1.449 3.5c.1275203.3085065.0926891.6603002-.0928531.9378102s-.497324.4441356-.8311469.4441898z" fill="#f29c1f"/><path id="Shape" d="m44.925 24.818c-.4772478.0002902-.8881898-.3367019-.9813647-.804766s.1573876-.9367382.5983647-1.119234l3.558-1.472c.5103111-.2112489 1.0952511.0311889 1.3065.5415s-.0311889 1.0952511-.5415 1.3065l-3.552 1.472c-.1230937.0505466-.2549328.0763708-.388.076z" fill="#f29c1f"/><path id="Shape" d="m50 31h-2c-.5522847 0-1-.4477153-1-1s.4477153-1 1-1h2c.5522847 0 1 .4477153 1 1s-.4477153 1-1 1z" fill="#f29c1f"/><path id="Shape" d="m48.478 38.654c-.1313847-.0002812-.2614627-.0260931-.383-.076l-3.553-1.472c-.3301134-.1368327-.5621514-.4393848-.6087075-.7936877-.0465561-.354303.0994427-.7065298.383-.9240001.2835573-.2174702.6615941-.2671449.9917075-.1303122l3.552 1.472c.4408033.182424.6913662.6508174.5984619 1.1187435-.0929042.4679261-.5034021.8050694-.9804619.8052565z" fill="#f29c1f"/><path id="Shape" d="m44.143 45.142c-.2650514.0002087-.5193437-.1048173-.707-.292l-1.415-1.414c-.2527654-.2525868-.3515768-.6208353-.259213-.96603.0923639-.3451946.3618707-.6148921.707-.7075s.7134476.0059432.966213.25853l1.415 1.414c.2859079.2859943.3714219.7160366.216678 1.0896546-.1547439.3736179-.5192821.6172591-.923678.6173454z" fill="#f29c1f"/><path id="Shape" d="m37.653 49.478c-.4046724-.0000657-.7694151-.244017-.924-.618l-1.471-3.552c-.1459579-.3316775-.1010622-.7163639.1173512-1.0055166.2184134-.2891526.5761647-.4375216.9351117-.3878157.3589471.0497059.6629179.2897082.7945371.6273323l1.472 3.558c.1279557.3086131.0933432.66074-.0922534.9385324-.1855967.2777924-.4976587.4445517-.8317466.4444676z" fill="#f29c1f"/><circle id="Oval" cx="30" cy="43" fill="#f3d55b" r="1"/><circle id="Oval" cx="33" cy="38" fill="#f3d55b" r="1"/><circle id="Oval" cx="27" cy="38" fill="#f3d55b" r="1"/><circle id="Oval" cx="37" cy="33" fill="#f3d55b" r="1"/><circle id="Oval" cx="38" cy="26" fill="#f3d55b" r="1"/><circle id="Oval" cx="20.808" cy="39.192" fill="#f3d55b" r="1"/><circle id="Oval" cx="17" cy="30" fill="#f3d55b" r="1"/><circle id="Oval" cx="20.808" cy="20.808" fill="#f3d55b" r="1"/><circle id="Oval" cx="43" cy="30" fill="#f3d55b" r="1"/><circle id="Oval" cx="39.192" cy="39.192" fill="#f3d55b" r="1"/><circle id="Oval" cx="57" cy="10" fill="#3b97d3" r="2"/><circle id="Oval" cx="49" cy="3" fill="#3b97d3" r="2"/><circle id="Oval" cx="56" cy="3" fill="#2980ba" r="1"/><circle id="Oval" cx="35" cy="15" fill="#ecf0f1" r="1"/></g></g></svg>