<svg id="Capa_1" enable-background="new 0 0 512 512" height="512" viewBox="0 0 512 512" width="512" xmlns="http://www.w3.org/2000/svg"><g><g><g fill="#c0c5d7"><path d="m266.62 374.662c-7.607-7.66-19.516 3.348-14.916 16.263 1.492 2.223 12.287.793 14.494 1.176 7.422-.72 3.47-15.269.422-17.439z"/><path d="m228.715 370.778c-11.277-2.173-17.083 20.731-8.367 21.323 0-.001 15.29-.001 15.29-.001 6.281-.565 5.309-12.108 2.235-17.664-2.316-3.394-7.595-3.658-9.158-3.658z"/><path d="m159.371 18.37c-76.494 6.296-74.23 26.11-125.142 67.565-14.005 10.513-18.924 15.236-14.972 23.176 14.352 17.029 45.03-19.196 60.072-40.738 4.358-8.314 25.555-29.116 60.251-27.292 7.816-3.661 14.007-11.412 21.881-15.299 3.394-1.931 1.833-7.553-2.09-7.412z"/><path d="m70.988 294.435c-4.605-.007-14.736 3.548-11.757 9.744 5.817 7.19 8.375 15.374 14.56 16.048 3.874.087 6.997-14.186 8.556-16.544 1.33-5.773-6.686-9.258-11.359-9.248z"/><path d="m66.576 275.236c-2.285-11.201-23.437-7.351-21.648 1.474 3.081 5.4 6.214 19.323 12.62 21.051 8.3-2.394 11.533-15.203 9.028-22.525z"/></g><path d="m356.818 480.717c.747-1.08.917-2.456.455-3.685l-23.53-62.55c-.947-2.758-4.857-3.494-6.737-1.245 0 0-43.918 49.548-43.918 49.548-44.278-51.553-25.095-52.872-64.836 2.503-37.8-58.192-20.241-47.811-61.744-.016-1.818-1.27-25.51-54.762-29.388-51.547-4.143-3.155-25.363 62.095-26.984 63.272-1.045 2.51 1.003 5.523 3.732 5.443 3.277-1.665 251.065 3.22 252.95-1.723z" fill="#ffbf48"/><path d="m323.449 408.72c-3.435 1.881-192.443-3.618-194.23 1.918-4.229.256 24.374 49.575 24.248 50.953.628 1.209 1.826 2.015 3.181 2.142 2.344 3.118 32.141-39.321 33.655-40.021 37.228 57.344 21.075 48.541 58.501-1.532l31.28 38.492c1.469 1.893 4.549 1.964 6.098.13l40.26-45.43c2.294-2.421.356-6.768-2.993-6.652z" fill="#bc88e5"/><path d="m359.614 481.415c-.477.004-261.23.049-261.965.025-13.272 0-24.358 9.944-25.787 23.129-.287 2.292 1.655 4.484 3.977 4.431 2.967-1.293 306.66 2.493 308.634-1.319 3.852-13.41-11.795-26.587-24.859-26.266z" fill="#548dc8"/><path d="m325.922 393.69c-.587-1.559-2.078-2.59-3.743-2.59h-186.1c-1.652 0-3.134 1.016-3.73 2.556-.058 2.663-6.392 11.748-3.679 14.325 1.676 4.972 194.363.071 197.516 1.743 8.308-.532.543-12.24-.264-16.034z" fill="#5bd0fc"/><path d="m279.377 333.235c-12.7-23.705 9.768-56.944 10.718-70.935-2.365-3.635-17.785-.949-20.928-2.282-7.523 1.712-10.783 24.835-11.292 29.528-2.677 42.432 8.594 69.246 19.059 79.315 7.646 7.36 7.792 15.653 7.5 18.878-.774 7.09 12.748 3.559 16.354 4.362 2.188.039 4.104-1.919 3.998-4.111-.813-30.669-13.822-31.92-25.409-54.755z" fill="#9499a9"/><path d="m178.097 244.833c-1.421-.986-3.317-.946-4.697.101-10.466 7.944-23.797 14.876-39.625 20.606-18.088 6.56-33.719 9.495-39.599 10.452-3.854.051-5.557 10.391-7.084 12.744-5.367 2.887 42.653 37.345 43.196 39.288 10.447 5.094 12.384-21.504 4.215-36.397 4.891-1.137 35.298-9.457 45.147-42.359.497-1.659-.13-3.449-1.553-4.435z" fill="#9499a9"/><path d="m488.934 406.622c-2.072-8.001-13.77-11.233-19.859-5.498-7.569 6.489-16.684 10.063-25.665 10.063-29.623-2.44-39.599-29.615-41.845-62.526 8.948-94.179 179.075-139.777 26.241-231.182-9.368-76.106-100.389-118.234-182.069-114.476-131.024-8.286-172.108 145.238-166.853 202.96-1.379 1.657-45.268 18.673-42.511 22.232-.628 13.624 1.404 27.612 6.04 41.575 4.173 8.722 14.113-9.108 22.684 4.698 6.285 7.833-7.2 19.682 2.631 21.182 19.538-.884 11.353 16.65 24.919-18.409 15.494-.196 77.44-21.671 90.08-39-2.285 2.849 22.76 18.667 27.41 13.642.186 16.738.934 31.861 1.545 44.344 3.787 46.224-2.103 53.224-9.561 62.085-4.909 5.833-10.473 12.445-14.469 28.841-.29 1.193-.018 2.453.741 3.418.893 3.027 22.707.957 24.936 1.53 7.105-.367 1.549-12.767 7.196-16.76 3.952-4.692 12.411-5.305 16.303-.41 5.319 3.999-1.77 16.606 5.921 17.17 2.005-.245 6.23.714 7.679-1.233 2.255-4.599.663-11.845 4.684-14.776 3.021-3.259 7.994-3.657 11.012-.323 5.053 3.233.138 16.03 7.075 16.332 3.15-.494 11.86 1.801 12.162-3.516.311-2.546.708-11.511-7.22-19.958-12.4-5.771-31.896-76.382-9.5-110.495-.634 9.012 74.632-.427 67.76-14.297 14.995 6.723 28.021 9.673 32.98 38.506.313 2.233 2.645 3.807 4.831 3.272-1.899 3.164-3.253 3.933-3.2 6.769 2.074 16.406 1.945 36.766-.394 62.241-2.238 24.243 3.104 43.634 15.877 57.633 25.074 25.065 55.803 25.261 75.745 24.621 23.027-.031 40.013-5.379 26.694-30.255zm-147.046-332.648c.004-.011.009-.021.013-.031.012.003.021.006.033.009-.015.007-.031.014-.046.022zm14.311 145.486c-.037-.038-.076-.077-.113-.114.079.006.158.011.237.013-.044.036-.085.07-.124.101z" fill="#d8deec"/></g><g><path d="m495.845 416.549c-.976-2.834-3.176-8.414-4.184-11.237-3.485-9.757-16.726-13.457-24.486-6.512-12.203 10.361-29.3 13.524-42.274 2.557-12.148-9.881-19.371-28.638-20.338-52.817-1.036-25.892 20.049-50.255 42.371-76.049 15.917-18.393 32.376-37.411 42.549-58.716 10.696-22.403 3.414-46.762-21.06-70.444-15.272-14.778-32.483-24.808-37.829-27.758-.991-7.049-5.841-32.003-26.903-57.173-14.238-17.017-32.969-30.562-55.673-40.26-28.177-12.037-62.588-18.14-102.276-18.14-26.903 0-50.96 4.918-71.984 14.657-8.518.043-78.038 1.346-106.139 36.261-12.629 15.691-25.669 25.474-35.189 32.617-12.367 9.278-21.263 15.963-15.858 26.913 2.052 4.157 5.815 6.411 10.404 6.39 15.221-.003 40.151-24.058 54.875-46.842 13.221-20.458 37.412-24.887 50.223-25.742-30.521 31.37-44.169 73.798-50.244 103.868-5.495 27.196-5.971 48.972-5.964 55.938l-40.357 18.862c-1.155.54-1.925 1.665-2.01 2.938-3.749 56.229 36.613 97.734 38.333 99.473 1.677 1.799 4.924 1.124 5.749-1.189l10.562-27.082 43.396 35.882c1.453 1.25 3.831.992 4.983-.536.518-.659 11.932-15.622 2.168-38.828 4.268-1.337 11.234-4.034 18.539-9.004 9.848-6.701 22.03-18.854 26.619-39.49 4.97 3.578 13.421 8.787 23.35 11.374-1.268 35.17 11.228 83.145-9.104 102.713-8.337 10.828-12.858 16.736-13.56 28.931h-50.857c-1.446 0-2.744.89-3.265 2.238l-34.058 88.134c-15.359.68-27.646 13.384-27.646 28.907-.322 2.266 1.014 4.645 3.5 4.618h312.931c2.486.025 3.822-2.35 3.5-4.618 0-15.516-12.274-28.215-27.623-28.906l-33.138-88.105c-.513-1.365-1.818-2.268-3.276-2.268h-16.811c-.577-21.05-6.423-28.645-13.729-38.119-3.647-4.73-7.782-10.091-12.028-18.144-10.984-20.832 8.38-59.467 12.866-67.876 14.312-1.312 31.868-5.124 47.328-14.786 9.962 2.557 33.899 12.757 25.395 105.173-2.312 25.12 3.292 45.284 16.655 59.933 21.398 23.457 56.575 25.99 70.706 25.99 13.585-.436 48.989-.121 40.861-23.726zm-419.874-350.352c-15.144 23.433-38.704 44.215-49.378 43.63-1.81-.101-2.933-.849-3.755-2.499-2.149-4.316-1.553-6.679 13.793-18.194 9.817-7.366 23.262-17.453 36.441-33.828 19.586-24.334 63.158-31.074 86.294-32.939-6.993 4.293-13.592 9.199-19.788 14.716-8.042-.303-44.795.001-63.607 29.114zm-18.418 227.563c-3.128-5.497-6.216-11.708-8.899-18.521 17.142-11.305 18.33 11.064 8.899 18.521zm15.583 22.516c-2.646-3.148-6.46-8.015-10.558-14.282 4.118-4.016 11.469-5.513 16.037.232zm59.963-28.433c-2.221.373-3.521 3.032-2.453 5.014 7.852 15.536 4.653 26.881 2.195 32.08l-42.02-34.744 3.999-10.254c5.588-.913 21.788-3.919 40.315-10.634 16.301-5.908 29.89-12.993 40.683-21.186-9.813 32.773-41.268 39.435-42.719 39.724zm20.215 179.966c1.073 2.224 4.393 2.538 5.863.546l30.889-39.469 25.229 39.206c1.258 2.082 4.522 2.122 5.837.075l27.886-40.969 31.337 38.568c1.277 1.66 4.009 1.714 5.335.114l44.308-49.992 23.528 62.553h-249.654l23.464-60.718zm-20.687-55.087h190.824l-40.265 45.43-31.701-39.016c-1.394-1.8-4.38-1.676-5.61.238l-27.556 40.483-25.032-38.9c-1.21-1.998-4.309-2.142-5.7-.263l-30.568 39.059zm248.884 92.278h-305.674c1.191-10.981 10.519-19.558 21.812-19.558h260.92c11.656-.547 21.747 8.156 22.942 19.558zm-55.337-99.278h-194.201l4.104-10.62h186.102zm-103.305-28.754c2.027-3.138 10.109-2.607 11.696-.283 1.956 2.865 1.691 8.015 1.07 11.417h-15.288c-.172-3.414.528-8.046 2.522-11.134zm31.672 11.134c.013-6.404 3.289-15.701 9.479-10.406 2.044 1.748 2.158 6.316 2.181 10.406zm21.301-52.999c4.527 8.586 8.857 14.201 12.677 19.154 6.998 9.075 11.754 15.251 12.273 33.844h-12.374c.501-5.518-.695-14.407-8.714-22.124-10.025-9.647-20.378-35.939-17.837-76.175.521-8.248 3.256-17.022 7.297-25.787 3.316.385 12.123.725 17.57.46-6.887 13.701-22.309 48.973-10.892 70.628zm212.875 91.059c-5.82 7.956-26.372 6.127-33.732 7.11-13.202 0-46.016-2.31-65.535-23.707-11.981-13.134-16.979-31.496-14.855-54.573 2.345-25.482 2.49-46.421.387-63.112 1.831-3.314 12.29-20.683 27.187-17.896 4.452.901 5.765-6.109 1.29-6.88-10.854-2.435-22.902 4.714-30.132 14.611-8.233-51.576-48.467-29.54-52.642-63.148-.126-4.546-7.257-4.229-6.993.304.011.248.305 6.164 3.802 12.773 2.55 4.82 7.259 10.773 15.726 14.618-22.906 11.876-49.761 11.672-60.681 10.977 17.455-32.691 50.05-63.315 50.489-63.723 3.368-3.047-1.493-8.264-4.771-5.123-.616.574-15.255 14.266-30.472 33.513-20.657 26.129-31.727 48.825-32.904 67.456-2.881 45.607 9.362 70.27 20.342 81.994 5.791 6.184 6.635 12.895 6.169 16.746h-8.19c1.757-25.588-26.695-24.16-25.668 0h-4.783c5.443-27.847-32.319-27.096-29.424 0h-21.787c10.129-41.567 30.373-15.91 24.127-92.2-.591-12.068-1.261-25.746-1.516-42.232 0-.002 0-.004 0-.005 0-.014-.001-.028-.001-.042-.879-57.132 46.497-118.073 46.975-118.682 2.859-3.529-2.747-7.936-5.501-4.328-.305.387-4.791 6.123-10.947 15.627-4.88-4.951-6.999-9.32-6.944-21.851.253-4.533-6.845-4.825-6.994-.291-.702 16.851 5.86 24.755 10.174 28.104-3.108 5.054-6.47 10.849-9.837 17.235-18.573 35.219-23.421 62.21-23.893 79.754-8.933-2.701-16.509-7.738-20.465-10.703 4.348-4.508 7.994-9.285 10.914-14.329 25.936-44.798-14.229-137.929-15.951-141.872-1.757-4.188-8.293-1.331-6.415 2.802.103.235 10.362 23.876 17.403 52.474 9.176 37.27 8.798 66.002-1.094 83.088-24.186 41.776-99.006 52.563-99.759 52.667-1.256.174-2.321 1.014-2.782 2.196l-7.679 19.69c-4.056-3.316-8.788-4.588-13.622-3.552 9.838-16.675-5.872-34.224-21.523-23.14-3.991-12.019-6.513-25.593-5.841-40.135l40.504-18.931c1.263-.59 2.055-1.874 2.017-3.267-.027-.986-2.052-99.227 54.203-157.045 27.2-27.958 63.756-42.134 108.649-42.134 38.603 0 71.992 5.873 99.241 17.456 21.663 9.208 39.518 22.032 53.069 38.116 23.092 27.408 25.77 55.242 25.793 55.515.102 1.196.809 2.256 1.874 2.81.804.418 80.127 42.357 57.445 89.861-9.766 20.454-25.912 39.11-41.525 57.152-23.254 26.87-45.218 52.25-44.072 80.909 1.048 26.215 9.186 46.802 22.915 57.969 15.497 13.022 36.544 9.936 51.192-2.626 4.255-3.798 11.802-1.859 13.425 3.594 1.349 4.523 7.012 13.765 3.618 18.406z"/><path d="m418.406 218.292c-6.099-.474-4.911 12.996 2.515 20.854 3.674 3.887 21.415 7.188 21.343-1.198-.441-1.883-2.321-3.05-4.206-2.612-22.74 4.609-11.987-16.236-19.652-17.044z"/><path d="m420.016 138.792c1.61-1.069 2.049-3.24.98-4.851-.358-.539-8.922-13.366-22.837-27.714-18.836-19.423-37.568-31.625-55.675-36.264-1.651-.423-3.367.404-4.063 1.961-.425.951-10.457 23.633-13.759 53.575-4.411 40.003 5.623 73.582 29.018 97.105 1.267 1.274 3.287 1.378 4.679.256 1.516-1.223 37.244-30.216 46.919-53.715 1.791-4.175-4.806-6.889-6.473-2.665-7.602 18.461-34.136 41.897-42.381 48.882-20.51-22.042-28.861-51.934-24.825-88.907 2.511-23.007 9.337-41.997 12.064-48.892 39.013 11.915 71.174 59.756 71.502 60.25 1.069 1.609 3.241 2.049 4.851.979z"/><path d="m355.095 192.247c-.462 4.513 6.632 5.15 6.974.612 1.246-14.197 7.079-20.931 13.833-28.728 5.488-6.334 11.707-13.514 15.524-25.386.001-.004.003-.008.004-.013 2.073-6.455 1.489-12.523-1.736-18.034-8.626-14.74-33.576-19.972-34.633-20.188-4.436-.972-5.857 6.014-1.399 6.859.228.047 22.96 4.832 29.997 16.874 1.163 1.99 1.798 4.058 1.938 6.232-3.231-2.452-7.724-4.848-12.841-4.705-5.825.18-11.015 3.513-15.427 9.907-2.628 3.695 3.22 7.755 5.762 3.976 3.072-4.452 6.389-6.769 9.858-6.885 4.767-.166 9.128 3.612 11.173 5.709-3.406 9.407-8.537 15.331-13.51 21.072-6.919 7.985-14.073 16.243-15.517 32.698z"/></g></g></svg>