<svg id="Capa_1" enable-background="new 0 0 512.001 512.001" height="512" viewBox="0 0 512.001 512.001" width="512" xmlns="http://www.w3.org/2000/svg"><g><g><path d="m322.709 258.919c-1.117-25.507 6.743-34.684 8.906-44.771-39.115-27.78-93.071-25.757-135.265-5.21-1.505.728-2.399 2.314-2.242 3.978 2.513 26.605-13.335 46.119-18.252 51.466-1.087 1.183-1.362 2.901-.697 4.364 9.681 17.439 13.842 56.951-.513 73.592-1.085 1.575-.904 3.699.433 5.068 43.895 49.243 121.242 54.213 163.413 2.409.713-.824 1.056-1.908.949-2.995-1.039-10.585.303-19.537 10.186-31.445 5.876-5.24-27.853-25.121-26.918-56.456zm-62.879 100.405c-22.611 0-41.734-18.615-49.062-47.648 22.419 15.115 71.465 27.531 95.998.211-6.446 28.881-24.735 47.437-46.936 47.437z" fill="#ffdac4"/><path d="m410.154 315.732c-2.359-17.359-11.709-31.852-25.65-39.76-28.876-16.659-27.348-39.204-31.847-49-5.475-4.254-11.112-8.167-16.754-11.63-1.881-1.206-4.592-.478-5.612 1.508-18.825 38.805-5.879 72.77 20.552 95.766-23.988 21.004-11.379 65.15 20.512 66.371 28.055-2.268 42.364-38.661 38.799-63.255z" fill="#644c4c"/><path d="m195.296 215.827c-.044-2.851-3.416-4.79-5.896-3.346-13.447 8.176-20.312 11.098-23.799 17.003-1.113 6.312-6.536 27.719-29.549 38.216-38.315 17.766-44.913 86.738 5.343 95.221 10.504.794 19.792-3.989 29.192-13.894 28.651-30.735 6.995-77.643 4.62-82.526 2.447-2.471 21.312-22.495 20.089-50.674z" fill="#644c4c"/><path d="m260.393 345.253c-10.721 0-20.905-6.38-25.945-16.254-1.669-3.015 1.534-6.784 4.769-5.632 12.737 3.97 26.813 5.423 39.412 2.541 15.119 1.568-7.892 21.773-18.236 19.345z" fill="#fff"/><path d="m303.515 317.216c-1.383-1.06-3.291-1.103-4.718-.109-4.003 3.797-10.893 4.21-13.926 8.641-9.009 25.292-42.375 24.98-52.665-3.309-3.103-4.407-10.009-4.811-14.357-7.982-1.458-.775-3.256-.575-4.509.521-1.25 1.092-1.695 2.842-1.12 4.399 5.447 18.121 25.36 43.002 47.493 41.171 11.643.001 32.99-5.04 45.133-38.805.588-1.637.05-3.468-1.331-4.527z" fill="#494a57"/><path d="m331.609 367.591c-2.868-2.056-5.805-6.336-9.426-3.659-36.585 32.487-97.356 27.219-132.495-4.677-8.278-3.949-41.213 35.225-50.811 45.692-21.359 26.772-28.952 49.87-4.446 55.533 18.072.776 45.383-37.994 64.2-65.304-35.441 79.619 22.094 100.258 40.52 20.042-1.164 19.191 2.218 68.949 31.289 49.348 11.476-12.34 11.078-45.529 10.678-55.538 5.12 13.314 27.106 53.597 42.448 51.479 28.223-5.464 5.535-44.914-4.723-61.416 16.776 20.31 48.604 58.301 68.834 59.224 39.199-12.979-20.411-61.474-56.068-90.724z" fill="#d34242"/><path d="m67.738 159.706c3.227 2.248 7.14-.597 10.912-.019 5.214-.245 9.902 1.651 14.5 2.895 10.459-5.454 31.999-26.264 43.11-56.86 9.389 25.541 16.077 47.122 22.636 54.895 14.615 6.064 21.977 12.341 25.579 16.539 12.148 9.138 20.368-47.226 19.449-46.524 39.054 45.643 20.079 63.232 52.532-5.22.174-44.809-34.564-122.242-94.069-122.1-17.341-1.685-33.789 3.456-47.136 15.285-28.14 19.223-52.751 110.534-47.513 141.109z" fill="#d34242"/><g fill="#ffbf48"><path d="m433.26 158.67c-44.941.806-44.943 67.611.001 68.41 44.95-.805 44.934-67.61-.001-68.41z"/><path d="m126.451 509c2.305-.827 40.815 2.121 40.72-2.063 2.468 5.964 182.296.033 186.306 2.067 1.502-.004 2.823-.841 3.504-2.085.108 4.318 38.858 1.177 41.269 2.082 8.873-1.409 4.881-31.053-3.548-50.209-.787-1.72-2.706-2.639-4.506-2.226-12.501 1.447-24.343-7.823-43.641-26.778-3.721-2.781-6.765-9.524-11.896-10.87-2.751-.064-4.806 2.96-3.708 5.499 4.795 11.873 6.377 21.252 4.586 27.155-12.745 24.31-38.536-10.738-47.658-30.592-1.576-3.908-7.756-2.651-7.67 1.555 2.073 47.954-33.323 69.767-39.604 12.014.014-4.271-6.396-5.337-7.753-1.253-5.2 17.821-24.235 42.635-40.907 25.858-7.559-10.253-1.492-34.243.792-43.274 1.202-4.094-4.691-6.887-7.107-3.342-22.297 31.751-38.717 42.553-52.867 49.204-2.142 4.823-7.436 18.642-10.286 42.789-.31 2.3 1.639 4.525 3.974 4.469z"/><path d="m165.593 221.636c.174 3.069 4.024 4.813 6.428 2.853 54.537-41.807 124.993-36.191 179.689.287 4.496-2.367 1.547-19.814 4.298-30.188 3.076-20.738 9.184-37.486 18.154-49.78.968-1.327 1.026-3.11.148-4.497-10.551-5.917-44.006 10.731-51.759 28.584-1.841-4.479-8.029-20.64-7.781-35.015.026-1.548-.843-2.973-2.232-3.657-10.717.141-29.201 24.73-33.939 43.171-27.408-57.991-18.341-55.321-45.769.3-1.764-2.144-11.636-29.247-26.548-39.775-1.978-.021-3.749 1.536-3.971 3.505-1.134 9.061-4.529 26.533-14.544 42.637-6.063-9.682-19.668-18.38-40.806-24.63-2.973-.101-5.062 3.49-3.448 6.029 7.471 12.696 20.275 37.398 22.08 60.176z"/><path d="m78.741 227.081c44.95-.806 44.934-67.61-.001-68.41-44.941.806-44.943 67.61.001 68.41z"/></g><path d="m442.05 160.73c2.124.042 4.05-1.844 4-3.992 2.411-29.168-11.915-111.948-38.09-132.199-44.067-43.209-115.588-18.784-137.626 40.018-12.134 29.633-15.118 54.857-14.406 62.811 1.615 1.649 18.275 44.351 22.101 41.754 1.659.001 3.155-1.03 3.742-2.58 8.413-22.138 27.924-36.048 32.59-39.131-1.989 5.944 1.796 47.411 12.126 36.728 6.264-10.867 21.506-17.602 35.368-23.529 4.194-5.147 17.712-27.31 22.119-39.75.737 3.31 6.424 40.777 30.129 64.143 8.311-3.955 18.392-7.089 27.947-4.273z" fill="#bc88e5"/></g><g><path d="m449.038 159.198c.113-6.703.075-26.569-3.464-50.349-5.786-38.886-17.709-67.949-35.438-86.382-14.338-14.908-32.328-22.467-53.472-22.467-40.336 0-71.167 21.97-89.159 63.535-5.66 13.075-9.205 26.058-11.415 36.789-1.986-9.818-5.115-21.52-10.038-33.463-16.49-40.005-45.326-63.015-83.389-66.543-18.699-1.737-35.315 3.662-49.397 16.034-19.354 17.004-33.691 46.63-42.613 88.054-5.485 25.466-7.11 47.787-7.507 54.711-12.74 5.91-21.602 18.816-21.602 33.76 0 20.512 16.688 37.2 37.201 37.2s37.201-16.688 37.201-37.2c0-12.711-6.412-23.949-16.168-30.662 8.086-6.811 26.186-23.872 36.324-47.551 5.491 15.706 11.544 30.335 15.193 38.835-3.451-1.167-7.184-2.305-11.245-3.393-3.008-.915-5.65 2.791-3.809 5.336.274.406 27.283 40.882 26.541 72.634-.281 2.016-4.119 26.017-27.977 36.895-15.322 6.986-27.732 24.005-31.617 43.357-10.511 39.003 37.846 80.801 70.371 41.853 1.868 1.906 4.631 4.59 8.184 7.679-6.598 5.618-22.083 19.246-36.06 34.879-27.445 32.258-40.079 56.369-16.731 70.303-2.724 6.816-7.475 21.443-9.889 45.105-.249 2 1.468 3.9 3.482 3.856h44.715.005.01 189.394.006.005 44.53c1.624 0 3.034-1.117 3.407-2.697.239-1.015 5.524-24.424-7.235-51.882 25.02-24.711-46.922-76.149-67.253-94.9 3.008-2.655 5.463-5.08 7.346-7.064 7.32 22.892 36.927 36.932 56.004 16.765 15.309-15.309 22.47-36.043 19.646-56.888-2.478-18.293-12.369-33.592-27.138-41.972-27.889-15.825-28.858-43.875-28.886-45.104 0-.019-.006-.036-.007-.055-.001-.027.003-.053.001-.08-.034-.584-3.054-58.814 24.857-87.975 2.207-2.156.343-6.214-2.74-5.914-.277.017-4.335.279-10.302 1.449 3.786-5.623 10.096-16.35 13.925-24.681 2.86 11.636 9.647 30.878 25.635 54.163-7.612 6.816-12.413 16.711-12.413 27.709 0 20.512 16.688 37.2 37.201 37.2s37.201-16.688 37.201-37.2c-.002-14.874-8.778-27.73-21.421-33.679zm-340.093 33.678c0 16.652-13.548 30.2-30.201 30.2s-30.201-13.548-30.201-30.2c0-16.653 13.548-30.201 30.201-30.201s30.201 13.548 30.201 30.201zm22.298-124.242c-.429-4.519-7.52-3.744-6.958.763 1.092 9.967 4.319 22.336 8.284 34.731-9.189 28.59-33.043 49.312-39.414 54.453-6.872-2.975-15.412-3.734-22.833-1.932 1.465-20.8 9.528-101.629 47.571-135.045 12.577-11.046 27.418-15.86 44.124-14.316 35.753 3.314 61.826 24.196 77.491 62.067 10.729 25.935 12.671 51.428 12.952 56.287l-19.582 40.997c-4.414-9.021-13.397-25.254-26.843-39.617-2.013-2.296-6.104-.717-6.055 2.334-.004.249-.552 23.477-12.472 45.194-3.871-4.51-11.726-11.256-27.081-17.631-3.807-8.599-26.061-59.786-29.184-88.285zm10.888 290.358c-26.323-4.937-36.586-28.084-32.08-49.287 3.404-16.957 14.519-32.375 27.658-38.366 25.083-11.437 30.756-35.036 31.827-41.163 2.573-2.075 10.247-7.953 21.766-14.172 1.22 28.106-18.903 47.657-19.115 47.859-1.132 1.072-1.418 2.764-.701 4.149.247.477 24.362 48.052-3.829 78.286-8.333 8.937-16.93 13.212-25.526 12.694zm256.124 146.008h-37.761c.319-6.645-.244-20.206-8.514-31.319-2.657-3.684-8.38.577-5.615 4.179 7.063 9.492 7.39 21.627 7.107 27.14h-182.799c.089-5.077 1.155-15.47 7.637-24.976 2.614-3.715-3.28-7.732-5.783-3.943-7.537 11.054-8.773 22.955-8.858 28.919h-37.219c2.811-23.796 8.042-37.292 9.966-41.633 16.548-3.106 38.264-29.072 52.444-48.465-5.246 20.754-11.332 52.32 14.679 53.677 16.799-.002 27.116-17.602 33.067-33.906.733 24.323 15.992 51.08 36.028 31.93 7.54-5.998 11.434-27.695 11.573-44.031 10.081 23.27 40.737 59.785 55.053 30.494 2.605-7.971-.227-19.33-4.602-30.148 2.878 3.21 5.917 6.48 9.044 9.677 20.707 21.168 36.291 30.356 47.372 27.875 9.245 20.008 8.076 37.924 7.181 44.53zm-2.213-58.776c-6.602 28.802-56.122-26.399-78.199-54.86-2.559-3.618-8.246.341-5.744 3.997 5.917 11.339 29.873 44.387 17.386 58.963-16.154 12.94-40.033-35.188-45.771-49.465-1.349-3.644-7.125-2.311-6.738 1.558.842 11.68.782 44.405-9.47 55.421-26.487 17.964-25.156-42.902-23.868-54.441.484-4.391-6.371-5.22-6.946-.841-2.401 16.026-13.371 57.13-34.973 54.93-22.964-6.421-2.808-53.593 1.664-67.941 1.66-3.815-4.055-6.759-6.198-3.194-12.539 17.005-53.706 82.892-70.779 62.124-16.015-19.482 37.306-70.515 60.79-90.086 15.759 12.509 41.659 28.18 72.515 28.18 28.626 0 50.844-12.442 64.938-23.49 21.832 17.862 75.731 60.223 71.393 79.145zm-136.331-62.656c-40.942 0-73.721-30.72-81.769-38.953 9.189-13.322 12.396-30.343 9.243-49.776-2.092-12.896-6.362-23.313-8.383-27.749 5.601-6.092 21.94-26.486 19.286-54.552 7.533-3.634 16.288-7.163 26.031-9.892 19.581-5.483 39.191-6.677 58.287-3.548 15.466 2.535 30.642 7.949 45.358 16.125-3.473 6.048-9.657 20.223-9.053 43.796.682 26.595 20.302 46.942 27.844 53.8-11.097 13.36-12.15 23.591-11.09 34.393-5.374 6.241-33.513 36.356-75.754 36.356zm122.82-104.117c12.852 7.292 21.474 20.714 23.656 36.823 2.527 18.66-3.909 37.248-17.66 50.998-12.195 12.197-26.916 8.393-36.094-.785-6.228-6.228-9.99-14.789-10.32-23.487-.383-10.091 3.753-19.765 11.963-27.974 1.467-1.405 1.319-3.99-.3-5.217-20.655-14.979-39.709-54.52-19.964-91.056 5.536 3.394 11.002 7.188 16.389 11.376.591 7.069 4.637 33.608 32.33 49.322zm-30.478-85.447c-1.651 11.135-2.047 20.886-2.085 27.163-59.544-46.576-136.62-33.57-180.391.154-1.875-23.717-15.2-49.283-22.616-61.888 19.212 6.495 31.374 13.204 37.49 22.864.904 2.644 4.803 3.049 6.226.64 10.601-16.658 14.311-34.715 15.608-45.015 15.113 18.381 23.186 38.086 23.274 38.305 1.019 2.769 5.211 2.912 6.403.197l20.008-41.89 19.62 41.867c1.288 2.989 6.004 2.457 6.59-.742 4.363-20.082 19.832-34.87 28.587-41.851-.294 17.396 8.141 36.777 8.557 37.721 1.093 2.721 5.26 2.747 6.387.04 8.938-19.606 32.386-26.671 45.222-29.119-9.364 12.83-15.703 30.12-18.88 51.554zm35.763-94.697c5.235-13.904 7.421-26.502 6.474-37.592-.308-4.529-7.43-3.925-6.975.596 1.509 17.674-6.483 37.532-13.452 51.078-6.402 12.443-13.143 21.985-15.242 24.858-14.911 4.366-28.448 13.069-35.474 23.687-2.963-8.573-7.114-23.578-4.643-34.833.74-2.907-2.756-5.387-5.255-3.729-1.14.703-25.399 15.912-35.214 41.75l-18.486-39.449c.35-5.094 2.723-32.515 14.452-59.523 17.045-39.249 44.857-59.15 82.663-59.15 19.162 0 35.453 6.834 48.418 20.31 34.828 36.2 37.007 110.283 36.965 129.423-9.288-2.382-20.055-.64-27.95 4.267-22.42-32.755-25.838-57.327-26.281-61.693zm45.44 123.769c-16.653 0-30.201-13.548-30.201-30.2 0-16.653 13.548-30.201 30.201-30.201s30.201 13.548 30.201 30.201c0 16.652-13.548 30.2-30.201 30.2z"/><path d="m309.229 307.282c-1.357-.712-3.02-.461-4.105.623-6.022 6.022-12.779 10.402-20.233 13.146-20.136 10.472-63.458-5.277-72.984-13.568-2.486-1.811-6.155.679-5.384 3.66 16.144 68.693 90.069 70.501 104.517-.126.28-1.507-.454-3.021-1.811-3.735zm-29.682 22.522c-9.518 17.036-32.981 14.149-41.536-2.626 13.849 4.383 29.202 5.539 41.536 2.626zm-19.836 26.749c-25.989 0-38.751-25.066-43.738-38.565 3.324 1.772 7.564 3.833 12.471 5.804 11.361 31.641 50.453 32.109 60.214 3.242 4.365-1.718 8.516-3.93 12.425-6.643-4.975 13.817-16.819 36.162-41.372 36.162z"/><path d="m221.997 272.755c2.927 3.468 8.299-1.187 5.298-4.576-4.423-6.399-19.785-10.63-28.406-.192-3.259 3.164 1.786 8.205 4.95 4.949 5.324-6.943 15.515-4.248 18.158-.181z"/><path d="m308.528 272.755c2.927 3.468 8.299-1.187 5.298-4.576-4.423-6.399-19.784-10.63-28.406-.192-3.259 3.164 1.786 8.205 4.95 4.949 5.324-6.943 15.515-4.248 18.158-.181z"/><path d="m259.584 305.232c4.801 0 9.96-1.706 14.745-6.49 3.259-3.166-1.786-8.207-4.95-4.95-9.586 9.587-20.156.885-21.342-.15-3.357-3.049-8.074 2.286-4.636 5.245 3.306 2.931 9.387 6.345 16.183 6.345z"/></g></g></svg>