<svg id="Capa_1" enable-background="new 0 0 512 512" height="512" viewBox="0 0 512 512" width="512" xmlns="http://www.w3.org/2000/svg"><g><g><path d="m271.386 193.595c-5.987-7.633-32.164-8.198-38.541-.875-.422 1.048-.383 2.224.108 3.24 3.272 6.77 4.191 14.496 2.585 21.755-.309 1.398.153 2.855 1.21 3.819 8.294 7.744 21.739 8.482 30.813 1.646 1.426-1.04 2.002-2.893 1.416-4.558-2.468-7.017-1.696-14.952 2.118-21.771.557-.995.662-2.179.291-3.256z" fill="#5b8baf"/><path d="m345.842 204.559c-5.736-27.216-5.085-27.185-32.702-28.208-36.111.811-53.362 21.401-43.754 46.353 13.438 25.595 64.122 17.434 78.234-3.708 2.209-4.375-1.558-9.746-1.778-14.437z" fill="#c2e9f9"/><path d="m193.855 174.245c-9.253-.022-19.532 1.834-30.266 5.299-6.128 4.856-6.488 14.838-8.892 22.249-.615 6.256-4.842 12.218-4.063 18.043 7.836 15.679 25.772 25.81 45.697 25.81 56.275.647 53.078-73.258-2.476-71.401z" fill="#c2e9f9"/><path d="m255.064 323.818c69.808 3.478 104.781-47.526 95.452-99.642-.232-1.951-1.999-3.492-3.962-3.468-1.129 0-2.227.479-2.999 1.352-8.188 9.273-25.168 15.748-41.292 15.748-12.974.113-21.803-3.071-33.068-15.41-14.899 5.295-17.062 6.961-32.11-.732-1.583-.011-3.089.987-3.689 2.455-11.812 28.431-61.495 25.212-77.73 1.833-2.182-3.03-7.371-1.202-7.16 2.529-2.107 51.938 42.119 99.186 106.558 95.335zm-20.033-49.903c19.773 2.087 39.586.344 59.34-4.719-8.794 46.163-75.107 36.058-82.015.123 2.589.87 10.558 3.286 22.675 4.596z" fill="#ffdac4"/><path d="m169.124 178.789c21.292-5.723 47.714-5.841 60.584 11.819 3.289 4.072 14.991-3.453 21.536-1.954 7.705-1.527 20.58 6.888 23.49 3.042 5.646-10.038 35.933-18.199 56.373-12.665 1.471.259 3.01-.343 3.906-1.568 3.119-8.221-20.313-34.542-27.707-36.735-1.568-.009-3.044.955-3.664 2.393-5.955 12.593-28.257 21.91-37.065 4.991-7.03-9.033-8.62 12.839-30.272-2.134-6.739 1.446-3.986 12.521-18.592 12.577-21.324-1.227-13.022-17.928-21.027-18.666-6.525.807-42.29 36.48-27.562 38.9z" fill="#ffdac4"/><path d="m207.054 156.671c10.852 8.013 27.512-.077 27.82-13.643 5.202 12.024 23.763 12.346 29.198.663 1.195 12.653 17.67 18.233 28.19 12.054 4.199-2.243 17.591-12.71 11.552-18.516-15.99-10.693-35.379-16.041-55.076-15.299-16.342.597-32.558 5.376-46.894 13.821-5.538 5.831-.64 16.824 5.21 20.92z" fill="#935252"/><path d="m222.115 115.229c-2.619.077-4.699-2.754-3.803-5.242 0 0 7.466-22.853 7.466-22.853-15.403-25.796-27.159-29.511 11.616-27.042 16.231-30.954 13.492-37.02 30.051-1.202 28.577 1.583 40.541-3.974 12.795 22.792 4.504 35.749 10.917 43.092-23.515 16.649l-32.817 16.473c-.568.285-1.182.425-1.793.425z" fill="#fff"/><path d="m253.294 286.528c-10.957.881-27.934-8.839-15.892-13.321 4.545.374 9.197.632 13.898.617 5.689 1.218 18.376-3.603 21.652 1.242 1.804 6.995-9.139 11.183-19.658 11.462z" fill="#fff"/><path d="m290.194 269.309c-4.95 1.792-12.374.34-15.44 4.842-3.223 8.309-13.076 11.268-21.225 11.267-10.509-.001-19.567-4.444-21.538-10.565-.463-1.438-1.696-2.492-3.188-2.726-5.118.069-10.566-4.276-14.605-.808-.985 1.185-1.203 2.831-.559 4.231 12.667 34.174 71.143 34.429 80.349-.979.908-2.486-1.159-5.341-3.794-5.262z" fill="#494a57"/><g fill="#d34242"><path d="m343.742 198.71c2.136 10.572 3.139 23.41 11.991 30.433 11.637 8.284 26.285 3.575 35.327-7.676 8.181-11.056 9.205-25.5 9.115-38.187 2.125-57.064-23.41-122.215-73.344-149.822-1.337.614-2.229 1.908-2.328 3.373l-7.41 110.76c10.121 15.017 22.616 30.343 26.649 51.119z"/><path d="m395.064 445.775c2.608 1.581 6.22-.651 5.954-3.7-1.411-8.648.374-25.426-4.293-30.765-19.786-11.438-54.806-11.26-69.559 7.228.584 2.778-2.608 22.958 1.056 24.276 1.156.771 2.626.886 3.882.313 8.815-4.022 18.764-6.147 28.771-6.147 12.135 0 23.957 3.042 34.189 8.795z"/><path d="m305.471 406.184-32.078-1.578c-25.153-38.116-16.261-35.231-42.583-.308-51.673-1.409-36.372 1.048-11.157 32.406l-6.821 34.366c-.795 3.412 3.43 6.164 6.228 4.048 0 0 35.732-25.189 35.732-25.189 39.384 28.616 45.243 43.625 30.6-15.778l22.608-21.043c2.589-2.255.905-6.871-2.529-6.924z"/><path d="m314.883 325.378c-38.525 14.367-80.564 13.968-121.429 2.779-3.451-.127-5.404 4.56-2.762 6.895 17.653 16.857 38.725 25.767 60.937 25.767 23.507 0 46.958-10.144 66.033-28.564 2.594-2.341.689-7.009-2.779-6.877z"/><path d="m176.288 27.653c-27.721 13.255-43.384 49.065-54.567 86.297-7.85 32.989-5.236 68.325-3.136 96.734.871 7.917 6.409 15.905 16.723 15.913 28.088-.571 12.172-43.417 48.167-75.59.817-.803 1.253-1.918 1.194-3.063l-6.01-116.84c-.077-1.506-.994-2.839-2.371-3.451z"/><path d="m177.274 410.538c-19.523-12.24-44.372-8.753-61.821 6.796-3.31 6.523-1.826 15.23-3.138 22.453-.316 2.882 2.884 5.212 5.525 4.015 7.519-3.128 15.955-4.781 24.397-4.781 38.839.875 37.643 28.582 36.946-25.073.002-1.391-.722-2.683-1.909-3.41z"/></g><path d="m199.132 136.238c1.222.661 2.702.64 3.906-.057 29.283-17.291 68.137-17.955 97.004-.16 2.438 1.576 5.973-.252 6.064-3.169 0 0 6.85-108.12 6.85-108.12-7.548-13.573-54.357-22.467-69.412-21.786-12.801.01-47.593 4.317-52.806 15.542.001.002 6.301 114.452 6.301 114.452.078 1.387.87 2.636 2.093 3.298zm36.453-75.199c4.078 1.622 15.54-27.477 17.463-29.386 17.946 35.808 6.26 27.144 45.818 29.208-27.886 28.858-18.627 14.174-14.735 56.164-38.689-27.834-18.54-21.454-67.103.107 11.932-37.781 13.666-23.422-7.429-56.819.001.001 25.948.726 25.986.726z" fill="#ffbf48"/><path d="m112.56 502.523c7.99 4.723 41.311 4.251 62.509 5.435 1.441.049 2.876-.733 3.564-2.008.646 1.269 1.934 2.159 3.453 2.197 22.244.556 47.08.842 73.816.852 22.745.02 45.99-.189 65.397-.601 1.515-.032 2.812-.912 3.464-2.181.684 1.28 2.113 2.075 3.559 2.031 19.956-1.967 63.703 1.358 71.714-7.186 1.47-5.199 2.391-25.531 1.387-50.563-.052-1.296-.728-2.486-1.816-3.193-20.668-13.671-50.823-15.45-72.335-2.666l1.099-31.965c1.211 1.516 3.535 1.912 5.179.862 9.653-5.929 20.921-9.063 32.583-9.063 9.735-.316 18.866 2.832 27.592 5.986 2.321.054 4.358-2.215 3.964-4.545-3.437-25.021-8.377-40.441-14.683-45.835-15.56-13.308-38.111-33.921-47.083-42.165-1.601-1.521-4.349-1.36-5.749.349-8.461 9.916-39.177 42.272-79.204 42.272-33.477.304-63.351-28.561-71.279-37.266-1.292-1.394-3.384-1.679-4.993-.71-29.88 18.615-59.62 39.26-59.534 87.657-.308 2.299 1.662 4.497 3.973 4.443 17.146-10.288 36.218-14.881 54.238-5.163 1.583.828 3.645.433 4.812-.921v40.265c-17.895-12.851-44.461-14.127-64.232-4.443-1.292.625-2.15 1.895-2.249 3.327-.67 19.23-3.924 44.119.854 54.798zm116.714-97.225c2.514 2.144 22.174-28.872 23.715-29.938 26.994 40.788 11.642 28.072 59.535 32.174-39.264 37.103-27.791 16.178-18.329 71.004-53.607-39.037-27.03-35.295-81.844.09 9.118-52.643 16.282-32.297-18.538-73.33z" fill="#ffbf48"/><path d="m365.975 232.15c-5.336.416-14.271-9.53-15.612-.05 5.943 50.397-32.324 94.097-95.301 90.715-64.998 3.497-108.04-43.271-105.625-95.444.096-2.931-3.407-4.989-5.927-3.49-3.11 2.4-9.005.472-10.005 5.145-13.018 96.967 91.772 123.13 168.843 101.66 21.927-6.601 40.432-18.963 52.106-34.806 15.246-20.54 22.762-55.08 11.521-63.73z" fill="#bc88e5"/><path d="m306.594 140.385c3.112 2.727 10.264 9.124 11.882 1.48 0 .001 7.319-109.289 7.319-109.289.102-4.135-5.567-5.571-7.988-7.593-2.446-1.584-5.978.239-6.075 3.163 0 0-6.88 108.68-6.88 108.68-.093 1.399.577 2.771 1.742 3.559z" fill="#bc88e5"/><path d="m185.754 145.796c2.348 2.034 13.286-6.345 12.505-9.036-.001-.001-6.33-114.981-6.33-114.981-1.479-7.622-9.335-1.323-12.806 1.152-1.13.79-1.773 2.106-1.702 3.483l5.96 115.93c.076 1.506.994 2.841 2.373 3.452z" fill="#bc88e5"/></g><g><path d="m205.728 61.69 16.752 25.871-9.631 29.471c-1.036 2.839 2.253 5.659 4.897 4.216l38.694-19.417 26.289 19.119c2.362 1.842 6.036-.36 5.526-3.311l-4.842-34.93 19.122-19.887c2.11-2.053.528-5.931-2.415-5.925l-30.773-.949-13.14-26.948c-1.147-2.559-5.041-2.57-6.263-.059l-14.361 28.098-26.819-.75c-2.725-.17-4.596 3.158-3.036 5.401zm31.868 2.409c1.346.038 2.6-.704 3.215-1.906l12.176-23.823 10.995 22.547c.57 1.168 1.739 1.924 3.038 1.965l25.006.771-14.836 15.429c-.743.773-1.091 1.844-.944 2.907l3.945 28.46-21.357-15.532c-1.058-.77-2.458-.885-3.629-.298l-33.093 16.606 7.541-23.077c.328-1.005.186-2.103-.389-2.99l-14.042-21.686z"/><path d="m234.472 258.123c4.636 4.121 12.105 6.243 19.57 6.243 6.331 0 12.66-1.526 17.257-4.652 6.388-4.344 8.463-11.185 5.693-18.768-.663-1.816-2.672-2.749-4.489-2.087-1.816.663-2.75 2.673-2.087 4.489 1.673 4.582.675 8.042-3.054 10.577-7.313 4.972-22.092 4.431-28.24-1.034-2.974-2.643-3.309-6.064-1.025-10.457.892-1.715.225-3.829-1.49-4.721-1.715-.893-3.829-.225-4.721 1.49-3.756 7.224-2.814 14.121 2.586 18.92z"/><path d="m254.958 304.451c30.702 0 41.87-23.2 43.486-35.467.383-2.382-2.045-4.52-4.36-3.843-24.84 6.529-45.589 6.215-58.623 4.801-14.142-1.534-22.514-4.657-22.597-4.688-2.508-1.047-5.356 1.445-4.651 4.07.082.352 8.666 35.127 46.745 35.127zm14.409-27.617c-2.673 2.804-7.504 5.695-16.069 5.695-8.39 0-13.189-2.671-15.89-5.317 8.866.798 19.647.96 31.959-.378zm-41.179-.751c5.281 16.398 42.628 19.285 50.296-.484 3.788-.613 7.691-1.365 11.712-2.29-2.818 8.471-11.271 24.142-35.237 24.142-23.413 0-33.678-14.852-37.688-23.575 2.839.72 6.512 1.517 10.917 2.207z"/><path d="m183.024 214.858c8.986-5.973 20.451-9.361 29.538-.947 3.355 3.064 8.085-2.278 4.643-5.239-4.956-4.394-11.593-6.91-18.217-6.91-.018 0-.037 0-.055 0-6.642.014-13.291 2.56-18.243 6.986-2.418 2.012-.75 6.224 2.334 6.11z"/><path d="m295.915 211.4c3.611-3.296 8.502-5.147 13.374-5.15 4.888.023 9.745 1.945 13.325 5.273 3.278 3.141 8.14-2.083 4.767-5.127-4.853-4.511-11.436-7.116-18.06-7.146-.04 0-.079 0-.119 0-6.585 0-13.141 2.54-18.006 6.979-3.4 3.013 1.412 8.281 4.719 5.171z"/><path d="m403.551 434.388c-3.655-53.282-12.13-71.058-18.597-76.587-15.755-13.472-38.386-34.178-46.596-41.725 23.994-17.923 40.064-48.972 34.349-80.183 8.041-1.328 15.929-6.106 20.764-12.643 8.755-11.839 9.789-27.501 9.702-39.845 2.67-69.073-30.766-124.265-75.377-155.427-84.142-60.711-186.446-18.251-208.981 85.238-7.974 33.46-5.338 69.074-3.221 97.69.628 8.484 6.327 15.545 14.519 17.987.116.035.232.058.348.09-5.948 34.732 10.861 73.919 40.113 92.547-13.745 8.476-50.107 33.158-54.542 59.519-2.732 16.241-5.822 44.677-7.514 69.15-3.297 47.688.244 52.451 1.577 54.245 1.266 1.703 2.7 3.633 34.35 5.315 17.809.946 42.258 1.632 70.705 1.983 14.048.173 28.355.257 42.46.257 43.481 0 85.028-.796 111.053-2.216 31.015-1.691 32.145-3.618 33.341-5.658 3.39-5.779 3.536-40.726 1.547-69.737zm-72.387-15.708c18.22-13.295 43.911-14.937 63.603-3.879.963 8.422 1.773 18.511 2.259 27.491-20.132-11.323-45.565-12.389-66.577-2.799zm65.01-235.466c.087 12.023-.795 25.681-8.332 35.872-6.927 8.566-19.129 14.188-29.64 6.909-7.57-5.951-8.553-18.315-10.555-28.168-4.924-19.831-14.035-36.855-26.567-49.968l7.417-110.763c40.465 30.441 70.177 82.063 67.677 146.118zm-81.691-41.618c-1.807-1.557-3.657-3.062-5.58-4.475-.019-.014-.038-.026-.057-.04l6.883-108.681c2.045 1.253 4.07 2.558 6.073 3.912zm-48.718-6.38c-2.586-.572-4.062 1.783-4.435 4.121-.811 5.079-6.206 8.948-11.361 9.127-5.568.208-11.093-4.075-12.31-9.516-.877-4.293-7.595-3.046-6.879 1.273.771 5.252-1.848 10.863-6.37 13.644s-10.711 2.588-15.051-.469-6.605-8.82-5.508-14.014c.013-.06.01-.119.019-.179 14.219-8.374 29.967-12.726 45.013-13.278 18.911-.697 37.479 4.484 52.712 14.63-2.826 5.249-6.743 9.361-11.163 11.633-5.194 2.672-11.444 2.785-15.922.294-4.267-2.375-7.359-7.442-6.308-11.758.557-2.288.144-5.004-2.437-5.508zm-78.391 6.924-5.961-115.932c2.133-1.488 4.306-2.892 6.518-4.21l6.331 114.977c-2.349 1.611-4.648 3.331-6.888 5.165zm-1.029 10.323c3.281-3.109 6.739-6.013 10.335-8.577 1.068 21.073 32.372 25.95 39.625 6.091 7.135 7.239 19.628 7.224 26.648-.169 9.121 19.455 37.173 11.269 44.353-5.077 10.042 7.982 18.296 18.244 24.491 30.356-36.265-6.327-53.342 6.342-60.059 13.965-12.091-5.541-26.525-5.85-38.869-.902-13.207-16.944-35.677-20.597-63.743-13.363 4.829-8.612 10.672-16.046 17.219-22.324zm50.208 41.751c9.93-3.653 21.29-3.406 31.05.683-4.391 7.852-5.264 16.89-2.401 25.049-3.654 2.67-8.249 4.113-12.765 3.95-4.754-.171-9.474-2.109-12.99-5.315 1.82-8.231.741-16.849-2.894-24.367zm39.29.85c4.928-6.426 20.591-20.468 59.56-12.158 4.881 10.491 6.076 22.379 9.073 33.618-8.901 11.357-23.928 18.019-41.822 18.218-30.182.005-39.052-21.859-26.811-39.678zm-110.99-11.73c.057-.016.115-.019.172-.038 26.167-8.498 48.018-6.196 59.955 6.315 7.977 8.361 10.496 20.739 6.42 31.533-4.378 11.593-15.038 18.951-29.319 20.193-20.297 2.186-39.912-7.38-47.871-23.29 4.342-11.091 5.342-24.75 10.643-34.713zm31.472 65.317c17.354.453 34.529-8.118 40.761-22.984 4.376 3.156 9.723 5.031 15.1 5.224.312.011.624.017.936.017 5.356 0 10.745-1.643 15.218-4.602 15.243 24.371 61.755 17.044 78.216-1.597 1.553 11.602 3.598 43.135-15.181 66.476-15.286 19.001-40.96 28.635-76.309 28.635-35.785 0-62.805-9.878-80.311-29.359-18.894-21.027-21.996-48.367-22.249-62.055 9.733 12.546 26.249 20.246 43.819 20.245zm65.536-240.321c15.998 2.391 32.001 7.902 47.101 16.153l-6.847 108.119c-30.502-18.476-69.55-18.132-101.076.114l-6.302-114.447c20.154-10.1 43.065-13.534 67.124-9.939zm-139.285 202.059c-2.081-28.121-4.67-63.119 3.04-95.511 9.736-36.913 26.221-64.979 49.049-83.573l6.007 116.842c-14.818 14.517-26.187 34.6-30.713 60.653-1.498 16.692-25.256 19.437-27.383 1.589zm14.864 19.34c2.825-.191 5.536-.99 7.999-2.343.046 14.312 2.958 44.176 24.061 67.702 18.889 21.058 47.678 31.735 85.566 31.735 37.6 0 65.122-10.528 81.798-31.292 17.136-21.335 18.522-48.016 17.485-63.691 3.205 2.396 7.043 3.851 11.2 4.285 3.617 14.468.636 37.094-14.319 57.384-11.171 15.157-28.942 27-50.039 33.349-17.498 5.266-37.087 7.136-61.648 5.886-28.287-1.439-48.942-6.835-65.004-16.981-27.24-17.21-42.844-53.763-37.099-86.034zm177.446 99.649c-34.902 33.701-84.179 38.353-121.433 2.779 41.833 11.424 83.593 11.591 121.433-2.779zm-139.698 113.959c-17.79-9.788-40.132-11.025-58.886-3.229.535-6.578 1.148-13.269 1.808-19.784 7.84-6.944 19.05-12.132 28.312-13.025 10.005-.964 20.197 1.4 28.766 6.65zm-59.659 56.516c-1.157-1.295-2.345-15.363.164-51.854 18.694-9.04 42.009-7.809 59.494 3.476v52.482c-34.505-.996-55.275-2.57-59.658-4.104zm140.374 5.146c-28.556-.015-53.283-.335-73.715-.852v-115.936c.066-4.543-7.068-4.541-7.001 0v17.722c-9.036-4.594-19.32-6.576-29.437-5.602-8.668.835-18.443 4.712-26.614 10.332 1.231-11.031 2.556-21.052 3.801-28.452 4.204-24.989 43.602-50.097 53.814-56.223 7.869 8.486 37.861 38.121 73.217 38.545 42.291.539 74.355-33.258 83.245-43.678 7.88 7.247 31.09 28.498 47.192 42.267 5.456 4.665 10.154 20.262 13.321 43.34-19.772-9.144-43.708-7.732-62.268 3.67l.651-18.94c.224-4.539-6.924-4.784-6.997-.24l-3.901 113.451c-18.512.385-41.211.611-65.308.596zm140.282-5.029c-4.986 1.659-28.72 3.339-67.964 4.276l1.956-56.865c20.978-10.959 47.427-9.615 67.248 3.275 1.032 25.688-.004 44.929-1.24 49.314z"/><path d="m317.022 405.891c-.482-1.322-1.71-2.226-3.115-2.295l-38.846-1.915-19.125-29.124c-1.247-2.024-4.424-2.087-5.761-.131l-20.904 28.877h-36.547c-2.907-.096-4.621 3.654-2.648 5.79l26.345 30.462-8.232 41.52c-.696 2.987 3.003 5.391 5.451 3.541l41.088-28.971 38.132 28.9c2.459 1.993 6.317-.483 5.532-3.546l-9.701-43.818 27.428-25.527c1.03-.958 1.386-2.441.903-3.763zm-34.567 25.53c-.908.845-1.301 2.108-1.033 3.319l8.075 36.474-32.581-24.693c-1.216-.921-2.887-.95-4.132-.071l-36.027 25.402 6.862-34.613c.21-1.058-.08-2.154-.786-2.97l-22.456-25.965h30.68c1.123 0 2.177-.539 2.835-1.448l18.977-26.214 17.316 26.369c.614.934 1.637 1.52 2.754 1.574l32.34 1.594z"/></g></g></svg>