<svg id="Capa_1" enable-background="new 0 0 511.994 511.994" height="512" viewBox="0 0 511.994 511.994" width="512" xmlns="http://www.w3.org/2000/svg"><g><g><path d="m421.832 216.185c-6.222-.456-34.418 4.96-33.878 14.378 3.056 5.73 2.987 23.849 7.664 25.728 1.433.468 3.037.084 4.102-1.011 8.002-8.201 17.114-9.922 23.35-9.922 19.423-.305 37.201 16.988 36 36.831.674 26.784-38.279 49.772-65.043 33.395-6.121.362-5.773 15.823-8.765 20.935-.611 1.886.25 3.936 2.025 4.819 26.075 13.531 57.195 6.553 76.792-15.538 37.606-34.279 8.341-110.927-42.247-109.615z" fill="#ffdac4"/><path d="m124.188 219.61c-47.068-22.562-105.973 28.154-92.424 77.396 6.146 37.655 53.821 69.022 90.16 49.704 1.849-.942 2.67-3.143 1.889-5.067-3.675-5.384-5.799-26.695-11.165-25.807-23.231 18.464-55.786 1.812-56.663-28.282-.83-28.873 32.008-51.486 57.141-34.566 1.779.023 3.448-1.267 3.872-2.999 2.218-8.563 5.304-16.97 9.171-24.985.994-1.954.047-4.548-1.981-5.394z" fill="#ffdac4"/><g fill="#efb17c"><path d="m436.365 246.364c-14.816-5.411-35.85.259-42.393 15.715 1.297 4.134-1.771 12.672 3.837 14.489-5.334 2.647-2.515 9.599-3.622 14.472-.048 2.34 1.6 4.326 3.073 6.026-6.378.721-3.924 10.429-5.688 14.544-.298 1.622.428 3.261 1.83 4.128 13.05 8.203 30.465 8.167 44.177.919 31.33-14.381 28.07-61.8-1.214-70.293z"/><path d="m338.429 206.648c-17.41-11.208-44.885-13.713-67.978-11.821-24.254-.605-53.444-5.393-75.14 5.411-58.487 27.187-63.626 92.354-18.681 132.248 1.295 1.801 3.458 3.537 5.766 2.4-.779 1.748-2.054 3.655-1.192 5.61 2.629 6.556 3.18 13.703 3.763 21.27-2.238 38.788 38.648 59.893 76.552 58.75 38.554 1.001 69.39-18.202 67.389-52.969.622-8.788 1.262-17.877 5.295-26.968.903-1.868-.216-3.776-.937-5.5 41.379-23.163 51.147-102.789 5.163-128.431zm-88.568 125.031c-7.999 10.823-29.122 2.835-24.535-11.738 5.079-12.918 31.721-.14 24.535 11.738zm40.437-7.207c-1.264 14.766-28.066 17.725-26.11.933 2.797-11.289 27.75-16.156 26.11-.933z"/><path d="m113.89 253.128c-46.04-30.632-84.879 46.635-36.711 69.215 10.945 5.398 33.833 1.931 37.755-11.072-1.386-3.802.358-10.191-4.022-12.146 4.314-3.317.337-17.359 1.948-23.285.201-1.985-1.317-3.396-2.776-4.479 4.634-.729 3.421-6.061 4.414-9.539.28-2.978 2.19-6.54-.608-8.694z"/></g><path d="m344.26 164.15c-51.944-7.802-105.315-7.827-157.606-5.187-125.615 78.049-79.956 236.741 31.743 272.8 46.823 13.836 103.443-.115 137.527-38.145 49.578-67.455 62.597-165.516-11.664-229.468zm-2.889 164.586c-27.219 30.166 3.202 65.63-42.83 84.527-23.157 9.442-58.831 7.866-81.132-2.865-37.891-17.598-26.183-40.614-35.841-71.639-4.865-11.04-14.978-18.864-21.956-28.282-36.608-48.662 12.139-120.368 70.529-116.212 14.102-.071 27.242 2.34 41.281 2.426 19.636.241 35.145-4.074 55.332 4.368 52.31 20.529 51.368 92.763 14.617 127.677z" fill="#935252"/><path d="m280.422 314.021c-8.501-.812-22.316 8.964-15.859 18.732 15.176 18.493 43.158-15.951 15.859-18.732z" fill="#935252"/><path d="m234.217 313.557c-18.317.839-9.798 25.886 5.222 24.227 21.941-1.931 11.479-24.5-5.222-24.227z" fill="#935252"/><path d="m260.379 116.195c-.7-.184-1.389-.474-2.14-.686-1.876-.529-3.754-.712-5.072-2.334-.883-1.088-1.251-2.526-1.258-3.927-.012-2.389.998-4.766 2.726-6.416 4.595-4.388 11.84-2.02 12.971 4.13.675 3.674-1.099 8.183-4.977 9.271-.812.228-1.536.15-2.25-.038z" fill="#fff"/><path d="m154.998 162.093c69.177-5.811 138.661-4.907 207.565 4.791 17.092-.19 21.438-17.717 2.643-24.578-12.33-4.869-26.613-8.897-42.128-11.972 1.019-.564 1.716-1.604 1.918-2.745l14.873-84.563c4.893-18.683-2.561-31.451-21.486-35.038-42.299-5.99-90.281-9.869-134.107 14.583-21.932 15.776-7.384 45.749-3.163 67.268 3.263 12.35 4.285 26.278 8.852 37.791-31.723 4.118-51.499 10.417-52.358 22.248-.068 9.495 6.897 12.082 17.391 12.215zm66.395-43.101c-7.402-8.969 2.268-17.785 12.438-18.539 1.374-.115 2.591-.93 3.222-2.155.631-1.226.586-2.69-.118-3.875-6.23-11.032 3.566-20.932 13.242-21.45 10.63.207 7.706 9.755 13.624 12.836 1.4.335 2.907-.12 3.886-1.203 5.9-7.575 22.057-9.703 26.419-.801 3.205 7.925-6.607 11.589-6.991 18.179.305 1.333 1.267 2.418 2.554 2.879 5.487 1.693 9.131 11.625 5.709 16.371-.986 1.461-.853 3.513.326 4.825-24.179-2.743-49.915-3.723-74.677-1.592 1.537-1.375 1.71-3.902.366-5.475z" fill="#d34242"/><path d="m228.961 124.621c21.001-1.141 42.886 1.383 63.495 1.148 10.456-6.641 3.86-24.326-8.261-22.61 30.616-24.148-8.56-37.01-21.626-13.818.701-32.298-43.351-12.462-23.483 10.319-16.072-2.922-33.432 15.615-10.125 24.961zm28.856-22.687c9.881-2.994 12.65 12.969 2.805 13.583-8.196.829-10.324-11.398-2.805-13.583z" fill="#ffbf48"/><path d="m352.514 407.888c-5.295 0-13.116.882-20.371 5.124-14.843 9.055-30.185 15.541-45.599 19.277-1.452.342-2.627 1.527-2.952 2.983-2.944-3.659-21.764 2.231-28.404.849-6.406 1.253-20.283-3.849-24.151-.046-.369-1.432-1.565-2.574-3.013-2.878-16.985-3.207-32.48-11.475-47.748-20.149-49.974-8.672-46.569 32.278-34.166 67.994 5.145 25.993 20.645 34.518 40.106 21.727 13.537-10.05 49.311-24.249 48.434-30.359 11.674 9.403 34.765 7.876 45.613-2.009-2.583 5.481 60.161 33.694 65.689 31.951 22.971-.681 22.854-31.036 29.482-48.132 9.391-23.685 8.615-46.57-22.92-46.332z" fill="#bc88e5"/></g><g><path d="m256.25 118.818c18.582 5.623 19.692-24.722.756-20.804-9.636 2.019-10.907 17.732-.756 20.804zm2.463-14.016c7.116-1.545 6.793 9.547-.059 7.442-3.539-.699-3.16-6.873.059-7.442z"/><path d="m472.352 242.205c-9.074-14.332-24.743-24.775-41.928-27.939-14.88-2.739-29.319.189-40.895 8.223-7.428-21.02-19.227-39.133-35-53.612 9.713 3.136 23.458-1.123 25.486-9.517 4.872-21.306-34.851-26.222-52.097-31.085l14.909-84.754c5.195-20.169-3.112-35.292-23.706-38.445-18.914-4.514-44.389-6.149-68.183-4.37-20.003 1.495-48.074 6.054-68.206 19.289-9.003 5.919-13.933 16.261-12.866 26.993 2.648 26.525 11.723 52.305 15.585 78.565-14.993 2.609-28.911 6.215-41.03 10.83-10.325 3.391-13.181 17.485-5.065 24.139 10.321 7.587 23.355 3.662 33.869 3.384-20.561 15.158-36.518 33.079-47.446 53.132-23.117-10.43-50.384-6.393-71.439 10.675-21.756 17.633-30.654 44.258-25.493 69.997 7.854 39.161 56.026 71.567 94.044 51.87 10.466 23.044 27.171 44.633 46.579 59.87-11.218-.134-24.036 1.335-29.673 12.664-10.824 21.756-.533 49.185 6.654 70.293 5.288 15.531 11.754 18.675 22.475 19.583 13.744.38 55.18-28.779 68.019-34.562 12.313 6.471 29.762 5.441 41.48-1.966 16.827 10.091 34.772 18.478 52.788 26.255 33.651 14.527 37.145-16.843 44.551-41.149 4.765-15.64 12.913-37.345 2.098-47.228-6.449-5.893-16.584-9.149-28.649-8.224 17.256-16.6 28.934-37.805 37.562-60.679 9.562 4.6 19.514 6.85 29.311 6.849 18.601-.001 36.633-8.102 50.309-23.578 18.135-20.522 27.004-54.911 5.957-85.503zm-75.127 58.86c8.328 6.566 22.188 6.487 30.227-.337 3.536-2.852-1.023-8.337-4.474-5.385-6.38 5.774-21.158 4.504-24.8-4.005.254-3.505.414-7.011.471-10.511 9.285-6.671 22.546-7.31 32.404-1.505 3.881 2.361 7.498-3.785 3.552-6.032-10.815-6.367-24.947-6.467-36.01-.645-.105-3.66-.311-7.308-.642-10.933 9.134-11.764 23.629-16.314 37.083-11.571 10.529 3.712 21.546 14.059 21.033 31.984-.371 12.973-7.945 24.556-20.333 30.982-13.188 6.838-28.475 6.504-40.226-.771.684-3.742 1.248-7.502 1.715-11.271zm-212.178-211.949c-3.54-19.215-18.155-49.429 1.53-63.272 32.984-21.683 96.968-20.488 131.046-13.93 16.834 3.24 22.649 13.697 18.333 30.266l-14.904 84.72c-7.262-1.37-14.732-2.522-22.335-3.46 4.766-7.234.463-19.42-7.702-22.34 22.375-22.631-10.128-36.979-26.293-19.188-7.58-27.267-43.505-6.111-31.229 14.551-14.054 1.178-24.5 13.785-15.186 25.07-8.862.667-17.552 1.631-25.949 2.896-1.725-11.796-5.158-23.624-7.311-35.313zm45.177 31.706c-17.091-5.692-4.958-20.203 9.541-16.961 3.195.787 5.605-3.38 3.335-5.757-17.96-18.282 18.196-35.03 15.337-6.689-.35 3.655 4.96 5.163 6.584 1.87 9.566-20.606 44.261-13.552 15.109 7.938-3.125 2.175-.556 7.344 3.063 6.174 9.164-2.388 14.526 9.818 6.975 15.089-19.719-1.99-40.121-2.55-59.944-1.664zm-65.733 36.756c-6.536.4-23.629 2.753-22.891-7.414 1.2-16.525 66.783-20.659 88.425-22.395 47.058-2.182 97.575 3.987 133.713 18.259 16.21 6.038 10.355 18.899-4.64 16.582-2.414-.373-4.819-.811-7.242-1.119-62.29-7.92-125.002-9.265-187.365-3.913zm-91.428 185.234c-19.372-9.062-33.684-26.87-37.351-46.473-.01-.055-.022-.11-.035-.164-5.439-22.933 3.401-47.083 23.07-63.025 18.88-15.302 43.206-19.026 63.825-9.881-3.983 8.25-7.141 16.836-9.446 25.717-27.216-18.032-61.766 7.512-61.142 38.652.627 31.283 36.111 52.654 60.666 32.199 1.864 7.879 4.353 15.671 7.461 23.307-14.309 7.293-30.929 7.209-47.048-.332zm37.492-81.679c-.441 2.492-.619 3.742-.926 6.249-6.337-4.006-14.295-5.486-21.953-3.861-9.343 1.982-16.552 8.018-19.778 16.56-1.66 4.213 4.98 6.759 6.549 2.473 2.367-6.267 7.718-10.708 14.682-12.186 7.169-1.521 14.644.478 19.735 5.213-.435 6.673-.41 13.376.069 20.069-9.019 4.001-20.577 4.675-28.687 1.563-4.217-1.69-6.77 4.972-2.508 6.535 9.789 3.71 21.983 2.96 31.895-.831.366 3.029.815 6.053 1.365 9.068-9.089 8.795-21.073 11.302-32.287 6.656-12.177-5.044-19.257-17.218-19.727-30.997-.916-26.836 30.062-48.749 52.448-31.358-.243 1.195-.664 3.644-.877 4.847zm73.507 238.259c-14.508 9.233-26.484 6.383-31.277-10.159-6.02-20.779-16.146-44.841-6.838-63.754 5.515-11.206 21.776-9.418 34.007-8.438 14.48 9.552 30.404 16.42 47.224 20.068-3.965 9.187-8.067 24.94 3.517 35.871 0 0-35.33 19.218-46.633 26.412zm52.797-30.313c-8.071-6.387-8.956-17.223-2.598-30.645 15.36 2.494 30.811 2.204 46.176-.718 6.285 12.215 5.325 22.702-2.809 29.677-10.585 9.074-30.397 9.892-40.769 1.686zm135.958-50.884c9.188 9.372.307 29.148-3.149 40.931-5.512 18.793-7.639 48.964-35.716 36.149-16.778-7.658-33.812-15.133-49.706-24.513 8.471-8.773 9.612-21.088 3.241-34.587 15.756-3.823 31.432-10.404 46.741-19.745 12.999-7.605 32.23-4.721 38.589 1.765zm-19.996-27.103c-6.167 7.606-13.649 14.121-22.24 19.362-36.357 22.185-74.76 28.228-111.048 17.477-33.63-10.1-61.266-32.597-80.366-62.903-36.74-58.619-37.374-146.72 47.725-202.071 51.159-3.109 103.116-1.65 154.923 4.358 34.394 26.547 45.463 63.71 48.67 90.31 5.633 46.721-8.799 97.863-37.664 133.467zm108.327-68.018c-14.4 16.295-41.813 29.735-72.077 14.68 1.936-5.963 3.591-12.033 4.955-18.171 27.511 15.976 67.925-4.804 69.038-37.259 1.209-35.243-42.098-54.544-66.206-29.837-1.166-7.999-2.864-15.696-5.07-23.068 60.864-37.596 113.138 48.846 69.36 93.655z"/><path d="m328.317 197.378c-21.413-9.599-43.039-3.405-64.97-4.95-21.611-1.523-46.198-5.905-69.025 4.964-22.739 8.705-41.235 29.381-48.286 53.992-6.322 22.068-2.529 44.499 10.388 61.517 6.863 9.313 16.902 17.101 21.48 27.48 5.802 13.477 2.572 29.871 7.857 43.958 14.289 38.414 78.289 47.031 114.263 32.633 48.645-20.208 18.496-56.519 44.155-85.386 21.46-21.121 31.728-53.661 26.16-82.902-4.611-24.212-19.885-41.919-42.022-51.306zm-30.886 213.092c-16.865 6.481-39.749 7.864-59.747 3.611-22.878-4.865-38.999-16.33-45.401-32.285-4.723-13.436-1.898-29.152-7.371-42.793 13.598-31.323 42.236-50.383 75.144-49.811 31.688.545 58.565 19.574 70.491 49.76-12.468 28.118 5.457 54.715-33.116 71.518zm41.838-83.873c-1.607 1.582-3.038 3.21-4.302 4.872-13.871-30.013-41.961-48.711-74.79-49.275-33.976-.567-63.82 18.031-79.362 49.019-20.182-23.353-38.614-43.774-28.049-77.901 6.47-22.583 23.891-40.335 44.182-49.429 28.05-12.572 54.483-3.469 81.515-5.32 37.995-2.602 78.354 10.753 85 51.431 5.142 27.009-4.354 57.077-24.194 76.603z"/><path d="m226.144 335.943c10.096 10.413 34.76 2.883 27.59-13.983-3.431-7.949-14.923-12.196-23.091-11.036-12.118 1.45-12.242 18.452-4.499 25.019zm1.929-15.037c4.635-9.446 27.485 3.303 17.434 11.07-7.24 5.048-20.265-1.064-17.434-11.07z"/><path d="m265.487 337.8c21.357 13.572 41.809-19.917 18.749-26.878-14.647-3.133-34.344 15.129-18.749 26.878zm2.104-13.109c5.979-10.375 29.042-8.853 16.483 6.03-4.858 5.756-20.319 3.576-16.483-6.03z"/><path d="m309.264 350.316c-1.749-.822-3.835-.073-4.658 1.676-7.029 14.937-28.08 25.049-51.217 24.586-16.236-.323-36.062-6.523-43.012-22.957-1.709-4.209-8.277-1.429-6.447 2.727 7.01 16.575 25.447 26.753 49.32 27.228 22.034.618 48.493-8.788 57.691-28.604.822-1.748.071-3.833-1.677-4.656z"/><path d="m217.484 256.527c-1.912-.115-3.587 1.354-3.704 3.284-.503 8.373-7.006 12.374-13.227 12.625-6.211.258-13.022-3.213-14.2-11.52-.574-4.506-7.634-3.503-6.931.982 1.725 12.166 11.681 17.549 20.539 17.549 9.499-.051 19.967-6.177 20.807-19.217.116-1.929-1.354-3.587-3.284-3.703z"/><path d="m335.901 260.692c-1.868-.491-3.784.625-4.275 2.496-2.212 8.418-9.661 11.23-16.058 10.281-6.397-.948-12.707-5.799-12.383-14.498.236-4.538-6.879-4.79-6.995-.261-.483 12.958 9.175 20.324 18.352 21.684 9.882 1.295 20.452-3.063 23.855-15.426.49-1.871-.627-3.784-2.496-4.276z"/><path d="m336.15 235.57c.473-1.875-.663-3.777-2.538-4.25-49.514-12.488-103.293-9.986-151.432 7.049-4.324 1.456-1.887 8.187 2.335 6.599 46.852-16.579 99.194-19.016 147.385-6.861 1.875.476 3.777-.663 4.25-2.537z"/><path d="m213.307 219.16c25.811-5.606 52.169-7.428 78.473-4.603 4.504.545 5.252-6.561.726-6.962-26.782-2.793-53.685-1.229-79.96 4.649-4.014.789-3.27 7.03.761 6.916z"/></g></g></svg>