<svg id="Capa_1" enable-background="new 0 0 512 512" height="512" viewBox="0 0 512 512" width="512" xmlns="http://www.w3.org/2000/svg"><g><g><g fill="#f7b36f"><path d="m378.232 147.402c-11.763-14.018-31.048 3.087-36.125 11.723-4.216 4.414 12.55 15.177 15.025 20.728 1.201 1.549 3.346 1.988 5.043 1.077 9.31-4.192 30.586-20.651 16.057-33.528z"/><path d="m256.685 423.966c-39.053.777-65.51 41.752-68.365 80.672-6.173 9.771 123.208 2.028 124.222 4.367 2.289.045 4.256-2.108 3.982-4.387-4.284-40.917-19.741-78.649-59.839-80.652z"/><path d="m255.673 332.491c67.505-1.213 67.503-102.067-.002-103.27-67.511 1.213-67.491 102.067.002 103.27z"/><path d="m144.755 142.21c-8.395-1.038-18.377 10.861-16.211 17.538.753 6.723 9.853 16.815 22.497 21.664 1.202-.001 2.381-.543 3.162-1.548 4.288-5.526 9.148-10.711 14.445-15.411 1.524-1.353 1.788-3.637.61-5.302-2.81-3.974-12.885-16.941-24.503-16.941z"/></g><path d="m305.142 141.321c2.716.084 4.815-2.959 3.718-5.479 0 0-11.2-28.16-11.2-28.16-.734-1.87-2.78-2.886-4.677-2.405-5.023 1.227-30.348 9.515-31.016 25.344.652 1.212 1.88 2.005 3.252 2.1 13.874.716 27.072 4.388 39.923 8.6z" fill="#985bbc"/><path d="m209.99 125.897c1.629 1.018 3.779.729 5.081-.714 29.968-33.832 56.95-37.251 70.428-44.257 2.332-1.84-8.391-23.393-8.658-25.592-6.169-7.41-34.359 4.528-51.902 24.65-.289.337-.52.719-.683 1.13l-15.87 39.91c-.715 1.798-.04 3.851 1.604 4.873z" fill="#985bbc"/><path d="m325.708 337.2c-.498-2.531-3.583-3.936-5.818-2.642-12.378 6.744-25.851 11.438-40.044 13.954-1.409.242-2.62 1.271-3.078 2.625-4.581-3.749-14.74.612-21.079-.516-6.543 1.156-18.543-3.405-22.835.211-.432-1.349-1.633-2.376-3.023-2.632-13.379-2.545-26.11-7.038-37.842-13.352-1.676-.908-3.798-.497-5.012 1.014-18.979 20.299-24.409 67.998 10.861 70.269 11.927-.001 25.41-7.533 38.99-21.782 1.07-1.123 1.36-2.716.87-4.098 5.661 7.531 28.657 8.164 34.895.742.209 9.059 16.031 20.498 41.648 21.137 29.249-4.424 15.876-44.232 11.467-64.93z" fill="#d34242"/><path d="m370.464 115.853c-20.431.54-38.346 24.856-41.283 37.017-40.388-28.265-106.62-28.266-147.009-.004-1.999-13.488-24.998-37.726-41.561-36.336-9.809 0-19.182 5.063-27.858 15.049-27.56 30.003.439 56.028 31.897 60.839-24.508 41.14-12.767 96.921 23.75 127.28-41.725 35.92-58.216 142.018-53.528 188.122-.617 2.435 38.94.68 40.059 1.183 1.445.011 2.835-.82 3.515-2.091.629 4.076 24.227 1.346 26.756 2.091 2.023-.001 3.728-1.511 3.971-3.519 11.464-103.88 119.718-109.769 126.419-.2.148 2.094 1.89 3.718 3.99 3.718 2.348-.755 23.801 1.977 24.53-2.118.027 4.409 36.127 1.184 38.449 2.119 2.051-.001 3.77-1.553 3.98-3.593 3.486-50.025 2-134.781-39.1-189.872 33.178-30.652 42.559-84.009 19.254-123.121 26.433-3.581 62.543-28.802 31.888-60.847-9.111-10.429-18.572-15.717-28.119-15.717zm-114.791 114.368c66.2 1.189 66.18 100.09-.002 101.27-66.188-1.189-66.187-100.091.002-101.27zm-104.813-47.553c-.093-1.326-.949-2.512-2.117-3.119-11.487-5.985-27.002-19.296-14.861-31.501 10.676-11.987 28.444 1.691 34.093 11.036.692 1.105 1.919 1.839 3.23 1.862-7.777 6.428-14.626 13.726-20.345 21.722zm173.331 152.931c3.118 12.233 18.936 63.965-9.946 65.533-24.959-.001-36.598-11.911-40.443-17.032-3.711-4.902-15.278 6.914-34.305-2.189-15.528 11.967-24.594 23.229-41.231 22.956-26.623-1.729-36.802-30.532-11.038-67.652.737-1.025.997-2.392.549-3.586 38.569 23.872 98.049 23.704 136.444-.381-.237.746-.267 1.56-.03 2.351zm57.785-175.862c-.891 4.981-4.997 10.13-12.204 15.304-2.565 2.622-8.449 3.49-9.285 7.629-5.718-7.996-12.566-15.293-20.341-21.719 1.208-.028 2.347-.651 3.06-1.62 3.313-4.508 12.053-15.114 21.64-16.226 8.196-1.522 18.997 8.346 17.13 16.632z" fill="#c67045"/><path d="m288.32 84.193c-9.359-7.538-50.936 11.843-81.536 49.316-2.496 2.967.829 7.66 4.448 6.261 13.935-4.821 29.227-7.37 44.223-7.37 2.248.135 4.966.115 5.972-2.329 8.455-18.922 25.525-19.898 33.465-25.678 2.034-2.174-6.202-17.868-6.572-20.2z" fill="#5bd0fc"/><path d="m231.946 69.855c1.465 1.076 3.476 1.029 4.891-.12 13.933-11.327 27.401-14.696 34.189-15.697 2.484-.302 4.12-3.132 3.134-5.435 0 0-14.77-37.15-14.77-37.15-1.189-3.297-6.245-3.313-7.434-.001.459 2.306-26.643 58.338-20.01 58.403z" fill="#5bd0fc"/></g><g><path d="m255.673 226.222c-29.982 0-54.373 24.509-54.373 54.633 0 30.125 24.391 54.633 54.373 54.633s54.373-24.509 54.373-54.633-24.391-54.633-54.373-54.633zm0 102.266c-26.121 0-47.373-21.368-47.373-47.633 0-26.264 21.252-47.633 47.373-47.633s47.372 21.368 47.372 47.633c.001 26.265-21.251 47.633-47.372 47.633z"/><path d="m400.848 129.595c-11.018-12.6-22.613-18.131-34.457-16.45-20.148 2.864-34.438 25.954-39.261 34.885-4.146-2.519-8.467-4.825-12.944-6.901-15.996-40.226-39.333-98.907-55.261-138.96-1.039-2.893-5.465-2.892-6.504 0l-55.261 138.96c-4.476 2.076-8.798 4.382-12.944 6.901-11.982-24.87-43.566-52.782-73.718-18.434-29.872 34.029 2.457 58.916 29.398 65.325-7.247 14.216-11.286 29.993-11.286 46.594 0 29.969 13.164 57.248 34.608 77.509-4.721 5.084-14.952 17.631-25.191 40.135-22.582 49.634-27.322 108.608-27.322 149.34 0 1.933 1.567 3.5 3.5 3.5h74.076.01.005 197.4c1.753 0 3.237-1.297 3.469-3.035.151-1.128 3.673-28.067.844-65.947-2.571-34.417-11.156-84.402-37.276-128.59 18.706-19.704 30.003-45.154 30.003-72.912 0-16.601-4.039-32.378-11.286-46.594 10.17-2.999 34.875-12.003 40.735-30.024 3.514-10.804-.301-22.681-11.337-35.302zm-95.709 7.728c-12.345-4.663-25.683-7.635-39.646-8.59 7.5-13.18 22.378-18.076 28.448-19.569zm-49.466-124.388 14.772 37.146c-7.261 1.067-21.483 4.641-36.128 16.553zm-27.701 69.659c17.937-20.891 38.369-24.986 45.151-25.779l8.842 22.234c-11.112 2.467-41.214 11.742-69.862 43.45zm56.628 3.081 6.723 16.907c-8.146 2.103-25.678 8.511-33.541 25.841-16.69-.283-33.086 2.461-47.863 7.567 30.293-38.374 64.984-48.234 74.681-50.315zm-156.817 97.176c-21.404-9.306-31.213-26.55-12.013-48.648 26.69-30.719 52.339-2.945 62.535 17.648-2.382 1.632-4.697 3.338-6.94 5.114-6.637-10.604-26.323-26.34-40.368-11.685-14.076 14.686 1.266 30.238 15.904 37.822-1.231 1.809-2.401 3.654-3.518 5.528-3.217-.898-9.233-2.773-15.6-5.779zm23.265-5.444c-8.7-4.767-26.124-15.932-15.101-27.178 10.724-10.942 24.242 3.033 30.044 11.232-5.509 4.89-10.51 10.23-14.943 15.946zm41.251 327.592c8.087-88.737 109.081-115.799 120.246 0zm190.269 0h-34.929c.543-4.889 1.325-13.814 1.297-24.485-.058-21.583-3.314-39.059-9.678-51.944-1.953-4.103-8.347-.94-6.276 3.101 12.053 24.4 8.839 62.466 7.604 73.327h-21.006c-8.054-114.741-121.091-109.482-134.374 0h-23.246c-.119-9.009.95-35.831 15.797-64.782 2.131-4.012-4.215-7.264-6.229-3.195-15.62 30.459-16.761 58.105-16.59 67.977h-37.219c.269-39.676 5.21-95.413 26.444-142.416 9.981-22.095 20.05-34.31 24.294-38.888 4.836 4.07 10.031 7.804 15.535 11.165-41.83 57.53 9.422 103.419 55.508 51.054 7.676 4.497 23.113 4.705 31.108.588 4.516 6.022 17.134 18.632 43.639 18.632 33.275-.482 17.662-57.725 13.776-70.685 7.085-4.385 13.653-9.388 19.59-14.932 24.703 42.594 32.907 90.629 35.403 123.85 2.256 30.025.379 53.542-.448 61.633zm-60.762-166.931c3.726 16.737 16.388 57.417-7.559 60.068-23.49-.001-34.289-10.84-37.944-15.685 8.314-7.844 6.421-23.139 4.24-30 14.842-2.634 28.762-7.572 41.263-14.383zm-48.254 15.438c4.559 12.705 2.182 28.916-17.879 28.941-19.739.024-23.595-16.141-19.663-29.172 12.175 1.718 25.318 1.801 37.542.231zm-41.24 26.091c.501.704 1.048 1.363 1.624 1.992-47.555 49.892-77.328-1.608-43.84-43.22 11.87 6.393 25.004 11.102 38.982 13.762-1.442 6.223-3.12 18.551 3.234 27.466zm23.361-31.966c-66.203 0-120.062-47.603-120.062-106.116s53.859-106.116 120.062-106.116 120.062 47.604 120.062 106.116-53.859 106.116-120.062 106.116zm89.68-186.173c3.931-5.454 11.942-14.458 19.835-15.371 3.661-.428 7.001.932 10.212 4.142 2.981 2.98 4.164 5.917 3.619 8.98-1.336 7.511-12.364 14.807-18.722 18.196-4.433-5.716-9.436-11.057-14.944-15.947zm60.178 1.265c-5.078 15.642-29.698 23.698-37.569 25.904-1.117-1.872-2.287-3.717-3.516-5.525 2.081-1.148 4.826-2.784 7.657-4.815 8.083-5.798 12.727-11.801 13.807-17.842.966-5.408-.904-10.511-5.56-15.167-4.754-4.754-10.127-6.825-15.966-6.146-10.949 1.267-20.301 12.247-24.402 17.833-2.244-1.775-4.558-3.481-6.94-5.114 4.076-7.592 17.157-29.344 34.347-31.777 9.354-1.329 18.834 3.431 28.19 14.129 9.296 10.631 12.644 20.226 9.952 28.52z"/><path d="m297.568 218.986c-3.259 3.165 1.786 8.208 4.95 4.951 8.141-8.141 17.223-.719 18.239.16 3.361 3.035 8.067-2.315 4.618-5.262-5.089-4.48-17.443-10.212-27.807.151z"/><path d="m186.136 218.986c-3.259 3.165 1.786 8.208 4.95 4.951 8.141-8.141 17.223-.719 18.239.16 3.361 3.035 8.067-2.315 4.618-5.262-5.089-4.48-17.443-10.212-27.807.151z"/><path d="m279.231 296.325c-5.714 5.713-12.432 8.684-20.057 8.897v-41.479c3.158-.462 6.346-1.853 9.218-4.726 3.26-3.164-1.788-8.208-4.95-4.949-6.501 6.502-15.525-.038-15.919-.33-3.593-2.768-7.862 2.932-4.198 5.603 2.03 1.526 5.208 3.217 8.847 4.058v41.278c-7.424-.575-21.441-8.841-20.432-8.677-3.592-2.777-7.87 2.925-4.203 5.598 9.339 8.032 40.413 18.559 56.643-.322 1.367-1.367 1.367-3.583 0-4.95-1.367-1.368-3.582-1.367-4.949-.001z"/></g></g></svg>