<svg id="Capa_1" enable-background="new 0 0 512 512" height="512" viewBox="0 0 512 512" width="512" xmlns="http://www.w3.org/2000/svg"><g><g><g fill="#ffdac4"><path d="m442.019 272.575c-9.338-31.174-21.576-43.216-28.853-47.802-7.713-26.415-43.544-100.6-93.642-84.77-3.823 10.901-14.903 49.55 3.039 89.341 6.86 8.829 9.33-7.79 10.549-10.293 10.414 28.075 40.724 44.313 44.452 46.222-7.384 30.147 10.96 60.518 13.275 64.184-6.378 8.067-8.824 15.44-7.271 21.909 1.097 3.754 4.21 10.556 9.274 10.073 3.091-.634 3.217-4.826 5.681-6.212 10.382-5.338 19.401 2.083 21.347 15.495 1.904 6.833-1.027 11.375 2.551 15.271 6.091 4.771 16.217-1.009 18.51-6.212 13.467-.687 15.475-8.67 18.013-14.621 7.595-17.642-7.259-34.656-9.302-36.862 1.263-13.924-1.777-36.208-7.623-55.723z"/><path d="m352.081 475.47c2.871-38.634-2.327-60.901-11.017-66.804-24.542-1.913-43.873 15.72-45.758 21.561-3.42 45.794-18.349 78.58 52.413 78.797 7.755.002 14.446-.807 19.355-2.336 5.732-1.792 8.655-4.484 8.686-7.992.17-14.712-19.185-21.786-23.679-23.226z"/><path d="m304.075 130.811c-8.243-3.663-9.754-8.659-15.22-10.388 14.224-13.225 21.841-32.826 21.333-53.65-.052-1.964-1.523-3.599-3.471-3.858-12.39-1.174-25.329-13.166-32.125-25.456-12.001-9.35-7.465 19.521-6.387 23.001-9.161-6.757-14.404-15.905-17.215-22.507-1.127-2.886-5.412-3.275-7.031-.617-14.145 21.701-34.035 34.79-39.794 38.285-1.37.831-2.111 2.399-1.885 3.985 2.396 16.784 9.926 31.11 20.455 40.828-5.091 1.562-6.331 6.123-13.737 9.63-1.46.823-2.253 2.469-1.986 4.124 6.917 42.864 26.212 70.556 49.161 70.556 22.398-.002 41.069-26.018 49.957-69.593.354-1.743-.483-3.51-2.055-4.34z"/><path d="m215.859 428.642c-12.876-20.303-31.129-21.069-45.381-20.095-8.638 7.131-13.667 27.281-10.869 66.92-8.103 1.599-25.646 13.338-23.677 23.239 5.95 19.62 71.508 8.293 78.522-3.144 9.627-14.855 2.597-63.937 1.405-66.92z"/><path d="m134.127 265.277c3.696-1.891 34.227-18.23 44.569-46.524 1.241 3.772 3.891 21.145 10.897 11.347 12.227-39.556 11.693-64.216 2.671-90.313-50.6-15.098-85.921 58.536-93.789 85.104-34.467 26.364-32.45 73.557-38.49 106.058-4.746 6.223-13.572 17.807-7.296 34.075 3.85 11.496 12.008 14.685 18.073 14.758 2.306 5.189 12.403 10.983 18.499 6.217 1.162-.812 1.809-2.179 1.697-3.593-.766-9.722 2.187-20.004 7.347-25.586 5.045-5.955 14.408-5.008 17.743 2.255 6.99 9.762 20.78-13.069 4.804-29.629 2.358-3.711 20.674-33.984 13.275-64.169z"/></g><path d="m255.885 3.02c-33.539-.181-56.302 35.913-54.351 68.335.063 1.44.896 2.735 2.181 3.39 11.939-1.106 31.691-21.986 44.281-42.095-.644 1.162 15.191 36.087 19.855 19.424-.98-7.978.213-15.931 2.906-19.753 1.299 3.283 18.091 34.454 37.675 30.331 2.999-31.657-26.519-60.27-52.547-59.632z" fill="#935252"/><path d="m327.53 239.044c-35.324-74.523 10.036-101.634-17.313-105.439-2.22-.916-4.931.536-5.372 2.903-1.822 8.673-6.073 25.457-14.061 40.416-18.353 36.064-51.369 36.567-69.181-.08-7.707-15.104-11.617-32.077-13.261-40.85-.391-2.43-3.228-3.973-5.479-2.952-3.244 1.975-8.586 1.581-10.923 4.913 2.501 16.922 15.22 46.123-6.954 101.862 2.053 19.042 6.473 44.537-3.467 68.674-12.986 36.531-15.821 83.631-12.143 99.869 13.736 2.749 30.157-1.002 43.793 17.92.74 1.07 1.982 1.712 3.281 1.711 13.177-8.341 34.618-34.679 39.395-58.979.842 16.915 25.39 48.277 36.982 58.2 5.633 6.097 17.129-19.904 46.793-17.61 10.389-3.484 1.411-71.901-9.447-101.11-9.423-23.86-6.638-50.935-2.643-69.448zm-71.685 123.712c-.164-.322-.372-.623-.62-.893.223.002 1.05.002 1.24.001-.249.27-.457.571-.62.892zm23.732-85.09c-3.311 1.186 3.828 28.629 3.56 31.003-33.263-17.021-19.85-16.937-53.043 0 5.891-36.876 9.98-24.115-16.378-50.448 36.887-5.798 26.009 2.022 42.899-31.175 16.905 33.295 6.109 25.362 42.9 31.174z" fill="#985bbc"/><path d="m296.884 259.074c-.23-4.432-23.665-4.89-26.346-6.083-14.943-31.076-12.952-30.848-27.847 0-34.156 4.62-33.375 2.781-8.607 26.486-6.16 33.916-7.674 32.603 22.531 16.379 30.356 16.346 28.622 17.352 22.532-16.371 1.543-2.633 20.103-16.613 17.737-20.411z" fill="#ffbf48"/><path d="m458.878 324.133c-4.015-.267-10.808 3.041-7.347 7.758 3.244 3.945 8.763 11.901 9.266 20.853.078 1.387.87 2.634 2.091 3.294 5.003 1.908 10.016-4.732 11.652-8.062 4.3-9.117-5.449-24.325-15.662-23.843z" fill="#9499a9"/><path d="m409.157 353.268c-7.239-2.957-15.159 1.989-15.594 9.8-14.01 7.773-1.434 10.512 2.766 19.687 2.857 3.29 2.264 10.454 7.421 10.926.691.59 14.859-7.247 15.807-7.567 1.306-.666 2.143-1.991 2.182-3.456.637-23.622-9.244-28.444-12.582-29.39z" fill="#9499a9"/><path d="m92.143 386.113 13.98 7.13c2.109 1.137 4.951-.046 5.627-2.344 3.99-16.943 22.236-18.89 6.455-27.772-1.644-14.806-22.513-14.659-26.533 3.568-1.31 8.315-3.934 15.789.471 19.418z" fill="#9499a9"/><path d="m58.909 325.798c-9.256-4.563-19.443 1.224-22.184 13.74-3.546 8.469 10.43 24.398 14.181 13.192-.643-12.591 15.45-22.936 8.003-26.932z" fill="#9499a9"/><path d="m484.181 297.143c-10.877-4.12-29.474 3.535-34.395 7.085-1.306.781-2.055 2.235-1.934 3.751 1.428 5.569-1.483 13.665 2.642 18.097 2.805 1.77 5.6-1.362 8.497-.997 5.407 0 11.17 4.536 14.015 11.03 4.173 8.849-.704 11.447-2.35 17.862 2.25 5.698 11.016 6.736 16.016 7.121 32.693.517 23.68-56.665-2.491-63.949z" fill="#d8deec"/><path d="m385.956 421.761c33.016-4.338 11.609-58.627-14.696-57.539-34.06 4.193-10.416 59.212 14.696 57.539z" fill="#d8deec"/><path d="m117.72 419.685c22.494 10.652 47.755-25.217 37.067-46.72-22.796-31.889-64.254 30.416-37.067 46.72z" fill="#d8deec"/><path d="m41.033 353.971c.161-1.183-.214-2.375-1.023-3.253-8.13-8.088 2.574-26.223 12.69-25.638 2.896-.366 5.691 2.767 8.494.997 4.134-4.436 1.208-12.523 2.645-18.097.12-1.516-.629-2.971-1.935-3.752-50.685-31.796-71.24 36.246-48.994 53.065 7.865 5.176 22.848 5.566 28.123-3.322z" fill="#d8deec"/></g><g><path d="m506.191 315.492c-4.684-11.327-11.813-18.47-21.191-21.23-12.999-3.824-26.769 1.934-33.908 5.764-6.311-54.175-30.511-73.775-36.494-77.841-11.786-42.151-42.353-85.12-78.611-86.556-14.569-.055-33.808-6.408-42.086-16.007 37.561-35.977 16.458-120.396-38.054-119.598-53.35-1.676-76.138 83.48-38.055 119.598-9.901 9.997-23.52 15.09-42.086 16.007-36.258 1.436-66.824 44.404-78.611 86.556-5.983 4.066-30.183 23.665-36.494 77.84-68.727-38.733-82.326 92.435-17.953 58.096 1.913 1.181 3.741 2 5.073 2.518 3.684 7.893 4.13 18.49 21.402 22.061 1.598 2.299 4.895 6.117 9.887 7.5 3.758 1.042 7.664.541 11.632-1.485l15.704 8.005c-4.177 34.844 33.421 35.823 47.994 8.534 14.737-22.24.573-56.229-27.725-39.864l-2.904-2.047c2.816-2.32 6.067-5.997 7.331-11.268 1.664-6.943-.539-14.603-6.548-22.795 4.606-7.673 18.854-34.362 13.062-62.426 7.403-4.059 29.188-17.404 40.547-39.337 4.585 15.915 12.104 50.81.626 79.869-6.783 17.174-11.124 39.58-12.902 66.596-1.141 17.34-.811 30.765-.683 34.477-2.537 4.759-12.646 26.532-8.776 64.95-6.846 2.533-23.607 10.276-23.437 25.315-.187 10.97 19.636 13.567 30.984 13.25 20.987-.001 46.589-5.626 52.993-14.68 9.647-13.638 4.138-56.03 2.59-66.535 5.886-5.462 27.754-26.813 36.347-50.059 8.593 23.246 30.461 44.598 36.347 50.059-1.548 10.505-7.057 52.897 2.59 66.535 8.772 12.403 53.571 18.374 73.181 12.26 8.852-2.759 10.756-7.412 10.795-10.83.17-15.04-16.591-22.783-23.437-25.315 3.87-38.417-6.239-60.191-8.776-64.95.128-3.712.459-17.137-.683-34.477-1.778-27.016-6.119-49.423-12.902-66.596-11.478-29.059-3.959-63.954.626-79.869 11.359 21.933 33.144 35.278 40.547 39.337-5.792 28.064 8.456 54.753 13.062 62.426-6.01 8.192-8.213 15.852-6.548 22.795 1.264 5.271 4.515 8.948 7.331 11.268l-2.904 2.047c-28.312-16.373-42.455 17.646-27.725 39.864 7.018 12.155 18.446 19.488 28.659 19.488 14.129-.041 21.454-13.422 19.336-28.023l15.704-8.005c7.485 4.875 18.259-.018 21.519-6.016 17.283-3.585 17.707-14.151 21.402-22.061 1.332-.518 3.16-1.337 5.073-2.518 5.554 3.959 11.723 5.983 17.629 5.982 5.082 0 9.968-1.496 14.093-4.539 11.35-8.366 13.378-24.842 5.427-44.07zm-35.338 30.942c-1.201 2.726-3.6 4.664-6.067 6.088-.552-9.973-6.414-18.616-10.165-23.174 9.05-5.446 19.747 8.685 16.232 17.086zm-215.006-216.527c-24.817 0-45.486-22.01-49.61-50.862 6.514-3.951 26.585-17.289 41.069-39.521 2.983 6.998 8.935 17.532 19.718 25.007 2.538 1.887 6.291-.753 5.375-3.779-1.076-4.041-2.802-13.856-1.264-21.274 1.68 2.873 3.965 6.373 6.852 9.908 8.287 10.148 17.978 16.134 28.198 17.499.913 34.069-22.099 63.172-50.338 63.022zm0-122.883c25.345 0 46.368 22.953 49.855 52.71-20.304-3.779-31.499-29.469-31.615-29.742-.941-2.421-4.474-2.872-5.996-.767-3.939 4.73-5.327 14.205-4.215 23.332-9.268-9.983-12.296-21.883-12.33-22.024-.63-3.028-5.05-3.628-6.46-.874-11.957 21.522-30.806 35.722-39.555 41.516-1.501-34.208 21.709-64.401 50.316-64.151zm-32.978 117.394c18.388 16.455 47.568 16.454 65.956 0 2.435 2.596 6.744 6.434 13.386 9.932-19.022 93.265-77.577 83.907-91.255-.798 5.816-3.274 9.662-6.735 11.913-9.134zm-175.962 228.095c-14.107-5.395-2.699-29.824 10.165-23.165-3.75 4.556-9.61 13.196-10.165 23.165zm-31.826 1.419c-14.229-9.18-5.058-48.658 13.565-52.949 12.306-3.637 26.427 3.813 31.203 6.676-.381 4.749-.626 9.743-.718 14.988-16.184-8.196-34.088 17.745-22.059 30.781-7.497 4.645-15.707 4.559-21.991.504zm125.348 14.289c16.151.728 14.942 22.429 7.849 33.533-7.267 12.585-20.347 19.21-28.562 14.467-8.216-4.743-9.019-19.383-1.752-31.969 5.181-8.705 12.947-15.638 22.465-16.031zm-28.527 12.531c-1.687 2.922-3 5.926-3.959 8.926l-13.986-7.129c-.214-7.788 1.151-23.204 9.771-25.462 8.367-2.478 9.833 2.94 10.773 7.944.399 1.004 5.365 4.043 6.199 4.753-3.366 3.037-6.364 6.753-8.798 10.968zm66.609-166.663c-1.47.026-2.767.969-3.246 2.36-9.963 28.925-42.919 45.248-43.249 45.409-1.493.724-2.272 2.397-1.865 4.006 7.697 30.468-12.614 61.363-12.818 61.669-.851 1.269-.78 2.942.174 4.135 7.819 9.809 10.004 18.821 2.238 25.87-.792-1.9-1.977-4.078-4.174-5.504-17.718-11.509-30.152 10.993-28.597 30.689-5.114 3.563-12.269-2.842-12.744-5.032-.599-1.168-1.801-1.903-3.114-1.903-11.141-.169-13.994-10.396-14.694-12.211-7.498-19.432 9.711-31.155 9.665-35.134-.095-22.885 2.922-55.454 17.828-80.65 8.852-14.962 17.849-20.294 17.925-20.338 14.775-44.931 43.419-88.833 86.722-86.155 1.534 3.769 4.365 12.041 5.592 24.231 1.405 13.958.885 35.703-8.355 63.302-3.473-9.574-2.136-13.567-7.288-14.744zm32.684 279.164c-6.499 9.188-47.439 15.213-65.384 9.619-1.76-.549-5.854-2.058-5.879-4.227-.149-13.156 20.971-19.391 21.181-19.451 1.648-.471 2.714-2.067 2.515-3.77-4.205-36.161 4.659-57.487 7.317-62.91 6.306-.75 29.758-2.026 41.458 18.131 2.236 14.54 6.122 52.245-1.208 62.608zm136.869-17.828c-.198 1.703.867 3.299 2.515 3.77.213.061 21.328 6.453 21.181 19.451-.024 2.168-4.119 3.678-5.879 4.227-17.943 5.592-58.884-.431-65.384-9.619-7.294-10.312-3.475-47.743-1.237-62.42 2.697-3.458 16.738-19.669 41.557-18.174 2.749 5.668 11.413 26.938 7.247 62.765zm-8.447-69.829c-23.628-.803-38.423 12.506-44.017 18.735-8.575-8.249-35.007-35.577-36.187-59.76 7.978-.053 20.927-3.11 24.618-8.095 3.098-3.323-2.19-8.108-5.188-4.699-9.775 8.103-36.026 8.128-45.994 0-3-3.409-8.285 1.378-5.188 4.699 3.682 4.982 16.65 8.044 24.618 8.096-1.165 23.871-26.922 50.792-35.833 59.417-13.093-18.79-35.296-19.282-44.374-18.591-.261-13.666-.132-61.765 13.167-95.439 9.301-23.55 7.18-49.923 3.474-68.676 21.259-54.095 11.328-89.897 6.795-101.525 3.267-.879 6.226-1.907 8.897-3.023 3.116 16.587 16.093 71.419 51.441 71.419 35.421 0 49.513-54.64 52.91-70.821 2.331.909 4.876 1.745 7.631 2.478-4.496 12.864-16.193 55.429 7.229 98.388-4.069 18.867-6.987 46.888 2.837 71.76 13.363 33.834 13.43 82.238 13.164 95.637zm52.36 10.625c-8.217 4.744-21.296-1.882-28.562-14.467-3.696-6.4-5.447-13.361-4.932-19.599.476-5.763 2.85-10.156 6.685-12.37 1.807-1.044 3.872-1.564 6.097-1.564 2.496 0 5.194.655 7.958 1.96 5.66 2.673 10.812 7.67 14.507 14.07 7.266 12.587 6.463 27.227-1.753 31.97zm7.814-35.469c-2.433-4.215-5.432-7.931-8.798-10.968 1.236-1.11 6.238-3.691 6.52-5.501-.01-4.528 3.386-9.679 10.452-7.196 8.62 2.258 9.986 17.676 9.771 25.462l-13.986 7.129c-.959-3-2.272-6.003-3.959-8.926zm55.48-17.175c-2.063 4.79-3.526 11.995-14.694 12.211-1.3 0-2.501.737-3.106 1.887-.452 2.182-7.656 8.622-12.752 5.047.059-2.737-.011-7.585-.907-12.696-2.435-13.882-8.998-18.38-14.074-19.71-5.577-1.462-10.158-.885-13.616 1.716-2.094 1.573-3.381 3.604-4.173 5.503-1.8-1.594-3.739-3.949-4.492-7.093-1.268-5.29.996-11.608 6.73-18.776.953-1.191 1.023-2.864.176-4.133-.206-.308-20.517-31.204-12.82-61.672.406-1.607-.374-3.28-1.864-4.005-.332-.162-33.288-16.485-43.251-45.41-.928-3.035-5.557-3.11-6.575-.118-.223.578-1.804 4.76-3.647 11.369-17.405-38.614-6.443-76.281-2.905-86.367 43.167-2.674 71.827 41.276 86.538 86.115 25.362 14.042 38.308 75.697 35.767 100.997.021.945.399 1.861 1.066 2.53.175.17 15.632 16.273 8.599 32.605zm41.341-9.645c-6.018 4.439-14.494 4.141-21.991-.503 12.031-13.038-5.879-38.978-22.059-30.781-.093-5.245-.338-10.24-.719-14.988 4.777-2.863 18.898-10.313 31.204-6.676 7.235 2.138 12.845 7.92 16.676 17.184 6.641 16.059 5.478 29.429-3.111 35.764z"/><path d="m301.105 254.405-28.573-4.152-12.778-25.891c-1.163-2.563-5.114-2.562-6.277 0l-12.778 25.891-28.573 4.152c-2.796.313-4.016 4.072-1.939 5.969l20.675 20.154-4.881 28.457c-.565 2.756 2.631 5.078 5.078 3.69l25.556-13.436 25.556 13.436c2.442 1.389 5.645-.934 5.078-3.69l-4.881-28.457 20.675-20.154c2.079-1.897.858-5.656-1.938-5.969zm-24.939 22.395c-.825.804-1.202 1.962-1.007 3.098l3.993 23.282-20.908-10.993c-1.02-.536-2.237-.536-3.257 0l-20.908 10.993 3.993-23.282c.195-1.136-.182-2.294-1.007-3.098l-16.915-16.488 23.376-3.397c1.14-.165 2.125-.881 2.635-1.914l10.454-21.183 10.455 21.182c.51 1.033 1.495 1.749 2.635 1.914l23.376 3.397z"/></g></g></svg>