<svg id="icons" enable-background="new 0 0 64 64" viewBox="0 0 64 64" xmlns="http://www.w3.org/2000/svg"><path d="m2.039 62.854c-.008.05-.029.094-.029.146 0 .018.009.032.01.05.004.071.023.138.042.205.016.06.026.118.052.172.027.058.067.105.105.156.039.053.073.105.121.149.043.04.096.066.146.099.061.038.118.076.186.101.017.006.028.02.045.024.097.03.196.044.293.044h4c.123 0 .241-.028.354-.071.037-.015.069-.035.104-.054.071-.037.136-.079.195-.132.033-.028.063-.058.091-.091.05-.057.091-.12.128-.189.021-.039.043-.076.059-.118.007-.019.02-.033.025-.052l4.073-13.293h9.903l-3.892 12.707c-.015.049-.007.098-.015.147s-.029.094-.029.146c0 .018.009.032.01.05.004.071.023.138.042.205.016.06.026.118.052.172.027.058.067.105.105.156.039.053.073.105.121.149.043.04.096.066.146.099.061.038.118.076.186.101.017.006.028.02.045.024.098.03.196.044.293.044h4c.123 0 .241-.028.354-.071.037-.015.069-.035.104-.054.071-.037.136-.079.195-.132.033-.028.063-.058.091-.091.05-.057.091-.12.128-.189.021-.039.043-.076.059-.118.007-.019.02-.033.025-.052l4.072-13.293h7.934l4.072 13.293c.006.02.019.033.025.052.016.042.038.079.059.118.037.069.078.133.128.189.028.033.058.063.091.091.06.053.125.095.195.132.035.019.067.039.104.054.113.043.231.071.354.071h4c.097 0 .195-.014.293-.044.017-.005.028-.019.045-.024.067-.024.125-.063.186-.101.051-.032.104-.059.146-.099.048-.044.082-.097.121-.149.038-.052.078-.099.105-.156.025-.054.036-.113.052-.172.019-.068.038-.134.042-.205.001-.018.01-.032.01-.05 0-.052-.021-.097-.029-.146s0-.098-.015-.146l-1.135-3.703h9.903l1.313 4.289c.006.02.019.033.025.052.016.042.038.079.059.118.037.069.078.133.128.189.028.033.058.063.091.091.06.053.125.095.195.132.035.019.067.039.104.054.114.042.232.07.355.07h4c.097 0 .195-.014.293-.044.017-.005.028-.019.045-.024.067-.024.125-.063.186-.101.051-.032.104-.059.146-.099.048-.044.082-.097.121-.149.038-.052.078-.099.105-.156.025-.054.036-.113.052-.172.019-.068.038-.134.042-.205.001-.018.01-.032.01-.05 0-.052-.021-.097-.029-.146s0-.098-.015-.146l-18.994-62c-.005-.017-.019-.028-.024-.045-.024-.067-.062-.124-.1-.184-.032-.053-.06-.105-.101-.15s-.091-.076-.14-.113c-.056-.042-.106-.084-.168-.113-.049-.023-.102-.032-.154-.047-.073-.021-.146-.042-.224-.046-.016-.001-.028-.01-.045-.01h-4c-.017 0-.029.009-.046.009-.053.003-.102.015-.153.025-.031.007-.063 0-.094.01-.017.005-.028.019-.044.024-.031.011-.061.021-.091.036-.043.021-.078.05-.118.076-.043.028-.087.053-.124.087-.024.021-.045.044-.066.068-.026.029-.045.064-.067.097-.033.047-.068.089-.093.141-.016.032-.025.066-.038.101-.004.013-.014.021-.018.033l-1.623 5.299h-6.84l-1.623-5.299c-.005-.017-.019-.028-.024-.045-.024-.067-.062-.124-.1-.185-.032-.052-.06-.104-.101-.148-.042-.046-.092-.078-.142-.115-.055-.041-.104-.083-.166-.112-.049-.023-.103-.032-.155-.047-.073-.021-.145-.042-.223-.046-.016 0-.028-.009-.045-.009h-4c-.017 0-.03.009-.046.01-.055.002-.104.014-.156.024-.03.007-.061 0-.091.01-.017.005-.028.019-.044.024-.031.011-.06.021-.089.035-.046.021-.084.052-.126.081-.041.027-.083.051-.118.083-.023.021-.043.042-.063.064-.03.033-.052.071-.077.108-.03.044-.063.084-.086.133-.015.031-.025.063-.036.095-.006.015-.017.024-.021.039l-18.994 62c-.016.05-.008.099-.016.148zm23.224-60.854 1.61 5.256c.016.062.027.123.055.179l.862 2.814c.017.064.028.127.057.186l15.797 51.565h-1.908l-18.382-60zm15.994 0 18.381 60h-1.908l-18.381-60zm-1.341 41.004h9.902l3.371 11.002h-9.903zm.099-32 3.371 11.002h-6.776l3.371-11.002zm3.983 13.002.306.998h-9.902l-.306-.998zm.919 2.998 3.37 11.002h-9.902l-3.37-11.002zm-5.92 13.002h9.903l.306.998h-9.903zm-4.477-18h-1.036l-.437-1.426 2.936-9.576h1.907zm-2.519-4.838-1.889-6.164h3.778zm-1.046 16.47-4.399 14.362h-1.909l5.354-17.478zm-8.952-29.221.955 3.117-16.687 54.466h-1.909zm-9.352 43.583 11.353-37.053 4.951 16.162-6.4 20.891zm9.616 14h-1.908l3.676-12h1.908zm6.379-14 3.354-10.948 3.354 10.948zm15.559 9.004-.306-.998h9.902l.306.998zm-6.207-52.584.486 1.586h-.972zm1.099 3.586.306.998h-9.903l-.306-.998z"/></svg>