<svg viewBox="0 0 60 60" xmlns="http://www.w3.org/2000/svg"><g id="Page-1" fill="none" fill-rule="evenodd"><g id="011---Shark" fill-rule="nonzero" transform="translate(-1)"><g id="Icons" transform="translate(1 1)"><path id="Shape" d="m56.9 58s-6.44 0-9.66-3.16c-2.74-2.69-5.38-3.17-7.52-2.11-12.25 5.01-31.27-2.36-33.14-21.18-1.33202198.5828627-2.62181212 1.2578306-3.86 2.02-.39429469.2377335-.89304059.2142084-1.26320738-.0595836s-.5386752-.7437982-.42679262-1.1904164c.94190371-3.6668634 3.01289096-6.9447605 5.92-9.37.84114041-4.5573104 3.2676712-8.6700144 6.85-11.61.6101295-3.49254543-.8409362-7.02489851-3.73-9.08-.34253252-.25163625-.49895222-.68537858-.39586764-1.09771691.10308459-.41233833.44521604-.72144288.86586764-.78228309 9.19-1.75 13.14 3.03 14.55 5.54 5.1365803-1.27174705 10.4083287-1.91644495 15.7-1.92h17.13c.2947531-.00425148.5781083.11374218.7827283.32594061.2046199.21219843.3122351.49965562.2972717.79405939-.35 4.57-2.88 19.75-19.61 20.18-2.8210128-.0662435-5.6428968.0875559-8.44.46-4.51.8-8.95 3.21-8.95 9.24-.014728 3.6662282 1.40257 7.1933267 3.95 9.83 3.417 3.484 9.3 4.132 14.06 3.16 1.4909923-.2548376 2.8189532-1.0933604 3.69-2.33 1.0129326-1.396959 1.8398687-2.9197316 2.46-4.53 2.15-5.28 6.45-5.28 8.59-5.28 0 0-5.37 3.17-4.29 11.6s6.44 10.55 6.44 10.55z" fill="#7f8e94"/><path id="Shape" d="m56 5.12c-.35 4.57-2.88 19.75-19.61 20.18-2.8210128-.0662435-5.6428968.0875559-8.44.46-4.51.8-8.95 3.21-8.95 9.24-.014728 3.6662282 1.40257 7.1933267 3.95 9.83 2.823 2.878 7.327 3.817 11.494 3.51-3.160613-.1136644-6.1751312-1.3593624-8.494-3.51-2.54743-2.6366733-3.964728-6.1637718-3.95-9.83 0-6.03 4.44-8.44 8.95-9.24 2.7971032-.3724441 5.6189872-.5262435 8.44-.46 16.73-.43 19.26-15.61 19.61-20.18.0149634-.29440377-.0926518-.58186096-.2972717-.79405939-.20462-.21219843-.4879752-.33019209-.7827283-.32594061h-3c.2947531-.00425148.5781083.11374218.7827283.32594061.2046199.21219843.3122351.49965562.2972717.79405939z" fill="#545c60"/><path id="Shape" d="m50.46 47.45c-1.08-8.43 4.29-11.6 4.29-11.6-1.1995811-.0405294-2.3985592.0966218-3.558.407-1.342 1.083-4.592 4.454-3.732 11.193.81 6.392 4.084 9.15 5.626 10.113 1.255562.2603328 2.5320933.4065951 3.814.437 0 0-5.37-2.11-6.44-10.55z" fill="#545c60"/><path id="Shape" d="m39.39 25.3c-.9134264 2.4149933-2.4821755 4.5274368-4.53 6.1-.295861.2382802-.6945092.305164-1.0519365.1764902-.3574272-.1286739-.6219696-.4343062-.6980635-.8064902-.2537808-1.8345784-1.0002671-3.5660117-2.16-5.01 2.7971032-.3724441 5.6189872-.5262435 8.44-.46z" fill="#607d8b"/><circle id="Oval" cx="42" cy="10" fill="#3f51b5" r="2"/><g fill="#02a9f4"><circle id="Oval" cx="56" cy="27" r="3"/><circle id="Oval" cx="5" cy="48" r="3"/><circle id="Oval" cx="45" cy="31" r="2"/><circle id="Oval" cx="16" cy="56" r="2"/></g><path id="Shape" d="m35.93 45.41c-.3850858.9450275-.5689956 1.9599376-.54 2.98-1.9849861-.0266259-3.9479556-.4198978-5.79-1.16 1.3720648-1.435689 3.0650578-2.5255105 4.94-3.18.389568-.1387575.8241556-.0433267 1.1197463.2458843s.4004796.7216133.2702537 1.1141157z" fill="#607d8b"/></g><g id="Icons_copy" fill="#000"><path id="Shape" d="m1.888 35.335c.36206557.2644407.79864763.4072839 1.247.408.39371307.0001394.77948196-.1107735 1.113-.32.669-.417 1.526-.9 2.505-1.377 1.00945405 7.6473086 5.4602882 14.4132542 12.083 18.368 6.924 4.165 15.453 5.022 22.321 2.211 2.432-1.2 4.811.388 6.377 1.925 3.474 3.411 10.088 3.45 10.366 3.45.480843.0004722.8939451-.3413439.9834894-.813776.0895444-.472432-.1698241-.9417076-.6174894-1.117224-.049-.019-4.831-1.982-5.819-9.741-.971-7.628 3.621-10.5 3.812-10.612.3890409-.228779.5766232-.6897961.4578326-1.1252057-.1187905-.4354095-.5145096-.7372875-.9658326-.7367943-2.129 0-7.116 0-9.518 5.9-.5853516 1.5312096-1.3686763 2.9791837-2.33 4.307-.7262136 1.0443041-1.8446929 1.7496677-3.1 1.955-1.1098465.2224848-2.2365366.350609-3.368.383.0752178-.5555072.2165533-1.1000349.421-1.622.2812467-.7179246.1226901-1.533693-.407-2.094-.5627216-.6061429-1.4244645-.8335526-2.213-.584-1.8172268.6181556-3.4768477 1.6271724-4.862 2.956-1.0103349-.4801041-1.9304468-1.1306097-2.72-1.923-2.3579118-2.4538345-3.6683827-5.7289359-3.654-9.132-.1621951-3.1248014 1.6717273-6.0097178 4.57-7.189l.017-.006.013-.005c.9450825-.4180638 1.9333904-.73062 2.947-.932.8245597 1.219109 1.3620282 2.6092786 1.572 4.066.1139741.7027605.5908534 1.2929652 1.254 1.552.2507021.0998906.5181303.1511364.788.151.4692524-.0008644.925509-.1542367 1.3-.437 2.0233926-1.548368 3.6121279-3.5935374 4.612-5.937 8.2-.407 13.038-4.308 15.882-8.7.02-.014.045-.017.065-.033.2053898-.1628717.338616-.399878.371-.66 2.0404199-3.5767762 3.2694355-7.5584454 3.6-11.663.0484556-.55957657-.14062-1.11373863-.521-1.527-.3979282-.43355308-.9595146-.68024477-1.548-.68h-17.131c-5.1338536.01457638-10.2495106.61105078-15.249 1.778-1.842-2.833-6.206-7.095-15.191-5.384-.8150305.14139222-1.46727441.75508371-1.658 1.56-.18695536.79124972.11646855 1.61769616.771 2.1 2.4929585 1.76376672 3.799272 4.76674626 3.39 7.793-2.6789034 2.2755218-4.72291216 5.2059682-5.933 8.506-.35857985.9884433-.64696273 2.0009579-.863 3.03-2.94758147 2.54138-5.0422659 5.9277865-6 9.7-.21051318.8498012.11834424 1.7420746.83 2.252zm33.945 10.671c.0583155-.0209581.1234943-.006127.167.038-.2913252.7378812-.4826872 1.5114006-.569 2.3-.9859081-.0744452-1.9625796-.2418554-2.917-.5.9844327-.8107612 2.1094388-1.4337685 3.319-1.838zm-.578-14.4c-.0469901.0389118-.1150099.0389118-.162 0-.2217394-1.4287574-.6896783-2.8082127-1.383-4.077 1.704298-.1631307 3.4159927-.2365653 5.128-.22-.8654837 1.677562-2.0885876 3.1447404-3.583 4.298zm-32.255 1.955c2.767-11.2 16.368-14.412 16.505-14.443.5387538-.1220549.8765549-.6577462.7545-1.1965s-.6577462-.8765549-1.1965-.7545c-3.33405.852391-6.4997656 2.2629823-9.363 4.172.034-.1.059-.2.1-.294.9042907-2.4640642 2.3266191-4.7054847 4.171-6.573.1614915.1208684.3582975.1851818.56.183.454671-.000212.8519683-.3071211.967-.747 1.3145056-4.26360726-.2369564-8.89063324-3.856-11.5.006-.026.034-.043.085-.053 11.209-2.13 13.959 5.96 14.073 6.306.1772412.51115665.7288664.78866213 1.2449389.62629006.5160726-.16237206.809428-.70573404.6620611-1.22629006 0-.013-.06-.181-.179-.461 4.6822025-1.04923138 9.4646979-1.58572388 14.263-1.6l17.209.043c-.2595494 3.58893571-1.2627991 7.0846446-2.946 10.265-.853-.3-2.113-.247-3.966.667-3.788 1.855-10.202 3.025-10.266 3.041-.3538605.0611845-.6477433.3074121-.769944.6450922-.1222007.33768-.0539536.7149563.1788008.9884269.2327544.2734707.594273.4011399.9471432.3344809.274-.049 6.747-1.234 10.792-3.214.5944188-.3225741 1.2439126-.5311583 1.915-.615-2.707 3.789-7.168 6.954-14.533 7.144-.274.012-.682.012-1.19.012-2.4702028-.0424456-4.9398212.1137239-7.385.467-1.2928628.2209418-2.55477.5952506-3.759 1.115-.008 0-.017 0-.025 0-4.770477 1.446325-8.5668963 5.0782315-10.223 9.78-.1435108.3351658-.0932342.7218746.1312078 1.0092024.2244421.2873277.5874745.4297316.9474137.3716345.3599391-.058097.659733-.3074864.7823785-.6508369.6666482-1.7545416 1.6458094-3.3737151 2.89-4.779-.3528807 1.0902799-.5287771 2.2300617-.521 3.376-.010474 3.9263193 1.5076946 7.7025529 4.233 10.529 3.906 3.978 10.294 4.386 14.973 3.443 1.7327597-.3002511 3.2763983-1.2737428 4.294-2.708 1.0669717-1.4662281 1.9367434-3.0662449 2.587-4.759.7304176-2.2401731 2.5931617-3.9255855 4.895-4.429-1.539 1.924-3.182 5.278-2.517 10.505.3002655 3.3476364 1.6697567 6.5098079 3.906 9.019-2.0063456-.3074908-3.8879039-1.1660491-5.435-2.48-3.866-3.8-7.086-3.066-8.6-2.322-6.233 2.551-14.077 1.744-20.471-2.1-6.2724498-3.7604632-10.42018797-10.243016-11.206-17.514 2.8124756-1.2971657 5.8908901-1.9138078 8.986-1.8.3554793.0357266.7030156-.1209066.9116953-.4108974.2086798-.2899908.2467996-.6692827.1-.9950001-.1467995-.3257173-.456216-.548376-.8116953-.5841025-4.9-.491-10.957 2.022-14.656 4.328-.03902129.0278178-.09229167.0240428-.127-.009-.05209457-.0313052-.07733699-.0931898-.062-.152z"/><path id="Shape" d="m43 14c1.6568542 0 3-1.3431458 3-3 0-1.65685425-1.3431458-3-3-3s-3 1.34314575-3 3c0 1.6568542 1.3431458 3 3 3zm0-4c.5522847 0 1 .4477153 1 1s-.4477153 1-1 1-1-.4477153-1-1 .4477153-1 1-1z"/><path id="Shape" d="m30.49 20.86c.4739775.2700943 1.0769679.11047 1.3552312-.3587583.2782632-.4692282.129107-1.0748929-.3352312-1.3612417-3.211-1.9-2.425-6.925-2.417-6.975.0821787-.5399264-.2840286-1.0459216-.8225939-1.1365928s-1.0502648.2675222-1.1494061.8045928c-.044.267-1.028 6.422 3.369 9.027z"/><path id="Shape" d="m36.567 19.9c.1348313.0658823.2829335.100086.433.1.4655978-.0013415.8686651-.3238376.9721203-.7777981s-.1200786-.9192557-.5391203-1.1222019c-2.6707055-1.0774069-4.0609373-4.0300152-3.19-6.775.1800448-.5221852-.0973148-1.0914551-.6195-1.2715-.5221852-.18004478-1.0914552.0973148-1.2715.6195-1.2272213 3.7048408.6110946 7.7290735 4.215 9.227z"/><path id="Shape" d="m57 24c-2.209139 0-4 1.790861-4 4s1.790861 4 4 4 4-1.790861 4-4-1.790861-4-4-4zm0 6c-1.1045695 0-2-.8954305-2-2s.8954305-2 2-2 2 .8954305 2 2-.8954305 2-2 2z"/><path id="Shape" d="m10 49c0-2.209139-1.790861-4-4-4s-4 1.790861-4 4 1.790861 4 4 4c1.06086596 0 2.07828161-.4214274 2.82842712-1.1715729.75014552-.7501455 1.17157288-1.7675611 1.17157288-2.8284271zm-6 0c0-1.1045695.8954305-2 2-2s2 .8954305 2 2-.8954305 2-2 2c-.53043298 0-1.03914081-.2107137-1.41421356-.5857864-.37507276-.3750728-.58578644-.8837806-.58578644-1.4142136z"/><path id="Shape" d="m43 32c0 1.6568542 1.3431458 3 3 3s3-1.3431458 3-3-1.3431458-3-3-3-3 1.3431458-3 3zm4 0c0 .5522847-.4477153 1-1 1s-1-.4477153-1-1 .4477153-1 1-1 1 .4477153 1 1z"/><path id="Shape" d="m17 60c1.6568542 0 3-1.3431458 3-3s-1.3431458-3-3-3-3 1.3431458-3 3 1.3431458 3 3 3zm0-4c.5522847 0 1 .4477153 1 1s-.4477153 1-1 1-1-.4477153-1-1 .4477153-1 1-1z"/><circle id="Oval" cx="52" cy="33" r="1"/><circle id="Oval" cx="13" cy="52" r="1"/></g></g></g></svg>