<svg viewBox="0 0 46 60" xmlns="http://www.w3.org/2000/svg"><g id="026---Throne" fill="none"><g id="Layer_3" transform="translate(1 1)"><rect id="Rectangle-path" fill="#9f522d" height="4" rx="1" width="10" y="26"/><path id="Shape" d="m9 26h-3c.55228475 0 1 .4477153 1 1v2c0 .5522847-.44771525 1-1 1h3c.55228475 0 1-.4477153 1-1v-2c0-.5522847-.44771525-1-1-1z" fill="#783e22"/><path id="Rectangle-path" d="m3 30h4v10h-4z" fill="#6d4122"/><rect id="Rectangle-path" fill="#9f522d" height="4" rx="1" width="10" x="34" y="26"/><path id="Shape" d="m43 26h-3c.5522847 0 1 .4477153 1 1v2c0 .5522847-.4477153 1-1 1h3c.5522847 0 1-.4477153 1-1v-2c0-.5522847-.4477153-1-1-1z" fill="#783e22"/><path id="Rectangle-path" d="m37 30h4v10h-4z" fill="#6d4122"/><path id="Rectangle-path" d="m3 40h38v8h-38z" fill="#90562d"/><path id="Shape" d="m37 40h-30c0-3.3137085 2.6862915-6 6-6h18c3.3137085 0 6 2.6862915 6 6z" fill="#f34335"/><path id="Shape" d="m31 34h-3c3.3137085 0 6 2.6862915 6 6h3c0-3.3137085-2.6862915-6-6-6z" fill="#c71e1e"/><path id="Shape" d="m8 48v9c0 .5522847-.44771525 1-1 1h-5c-.55228475 0-1-.4477153-1-1v-2c0-.5522847.44771525-1 1-1h1v-6z" fill="#90562d"/><path id="Shape" d="m12 48v6c0 .5522847-.4477153 1-1 1h-3v-7z" fill="#815a2c"/><path id="Shape" d="m36 48v7h-3c-.5522847 0-1-.4477153-1-1v-6z" fill="#815a2c"/><path id="Shape" d="m43 55v2c0 .5522847-.4477153 1-1 1h-5c-.5522847 0-1-.4477153-1-1v-9h5v6h1c.5522847 0 1 .4477153 1 1z" fill="#90562d"/><path id="Shape" d="m39 5.91v20.09h-4v-17.35c-.0073939-.3615207-.2050902-.69228192-.52-.87-1.3484841-.78881871-2.4711813-1.9115159-3.26-3.26-.1777181-.31490978-.5084793-.51260614-.87-.52h-16.7c-.3615207.00739386-.6922819.20509022-.87.52-.7888187 1.3484841-1.9115159 2.47118129-3.26 3.26-.31490978.17771808-.51260614.5084793-.52.87v17.35h-4v-20.09c.00347398-.48782969.3584408-.90195764.84-.98 2.09270873-.35807623 3.73192377-1.99729127 4.09-4.09.0780424-.4815592.4921703-.83652602.98-.84h22.18c.4878297.00347398.9019576.3584408.98.84.3580762 2.09270873 1.9972913 3.73192377 4.09 4.09.4815592.07804236.836526.49217031.84.98z" fill="#ffdb00"/><path id="Shape" d="m37 30v10c0-3.3137085-2.6862915-6-6-6h-18c-3.3137085 0-6 2.6862915-6 6v-10h2c.55228475 0 1-.4477153 1-1v-2c0-.5522847-.44771525-1-1-1v-17.35c.00739386-.3615207.20509022-.69228192.52-.87 1.3484841-.78881871 2.4711813-1.9115159 3.26-3.26.1777181-.31490978.5084793-.51260614.87-.52h16.7c.3615207.00739386.6922819.20509022.87.52.7888187 1.3484841 1.9115159 2.47118129 3.26 3.26.3149098.17771808.5126061.5084793.52.87v17.35c-.5522847 0-1 .4477153-1 1v2c0 .5522847.4477153 1 1 1z" fill="#f34335"/><path id="Shape" d="m29 19v-8.208c0-.189386-.1070012-.3625176-.2763932-.4472136s-.372098-.066418-.5236068.0472136l-2.853 2.138c-.1992779.1494112-.4781346.1293711-.654-.047l-2.339-2.337c-.0938043-.0940417-.2211727-.14689378-.354-.14689378s-.2601957.05285208-.354.14689378l-2.339 2.337c-.1758654.1763711-.4547221.1964112-.654.047l-2.853-2.138c-.1515088-.1136316-.3542148-.1319096-.5236068-.0472136s-.2763932.2578276-.2763932.4472136v8.208" fill="#ffdb00"/><path id="Shape" d="m29 19v3c0 .5522847-.4477153 1-1 1h-12c-.5522847 0-1-.4477153-1-1v-3z" fill="#ff9701"/></g><g id="Layer_11" fill="#000"><path id="Shape" d="m39.324 4.943c-1.6727411-.28845658-2.9821011-1.5998199-3.268-3.273-.1607615-.96100068-.9906526-1.66630255-1.965-1.67h-22.182c-.9753659.00337609-1.8060449.70983353-1.966 1.672-.28473058 1.6726698-1.59376772 2.98371098-3.266 3.271-.96452431.15783701-1.67370276.98965216-1.677 1.967v19.09h-3c-1.1045695 0-2 .8954305-2 2v2c0 1.1045695.8954305 2 2 2h1v22c-1.1045695 0-2 .8954305-2 2v2c0 1.1045695.8954305 2 2 2h5c1.1045695 0 2-.8954305 2-2v-1h2c1.1045695 0 2-.8954305 2-2v-5h18v5c0 1.1045695.8954305 2 2 2h2v1c0 1.1045695.8954305 2 2 2h5c1.1045695 0 2-.8954305 2-2v-2c0-1.1045695-.8954305-2-2-2v-22h1c1.1045695 0 2-.8954305 2-2v-2c0-1.1045695-.8954305-2-2-2h-3v-19.09c-.003216-.97702677-.7118729-1.8087261-1.676-1.967zm-32.318 1.972c2.51479668-.42597652 4.4831721-2.39916954 4.903-4.915h22.175c.4236863 2.51767122 2.3978132 4.48938871 4.916 4.91v19.09h-2v-16.347c-.002072-.71946954-.3904258-1.38238224-1.017-1.736-1.2001574-.7009509-2.1990491-1.69984263-2.9-2.9-.3576799-.62207742-1.0174706-1.00882507-1.735-1.017h-16.7c-.7178878.00782268-1.3781394.39461752-1.736 1.017-.7009509 1.20015737-1.6998426 2.1990491-2.9 2.9-.62464714.35490319-1.01094929 1.0175717-1.012 1.736v16.347h-1.994zm24.994 27.085h-18c-1.883359-.0004407-3.6868075.7609752-5 2.111v-4.111h1c1.1045695 0 2-.8954305 2-2v-2c.0024487-.7088959-.3739003-1.3651235-.987-1.721v-16.635c1.5078764-.87404173 2.7620565-2.12580934 3.639-3.632h16.7c.879997 1.50923797 2.1370746 2.76390339 3.648 3.641v16.625c-.6167513.3544126-.997855 1.0106732-1 1.722v2c0 1.1045695.8954305 2 2 2h1v4.111c-1.3131925-1.3500248-3.116641-2.1114407-5-2.111zm4.9 6h-27.8c.47808203-2.3266291 2.5247614-3.9973877 4.9-4h18c2.3752386.0026123 4.421918 1.6733709 4.9 4zm-34.9-10v-2h8v2zm5 2v8h-2v-8zm1 26h-5v-2h2c.55228475 0 1-.4477153 1-1s-.44771525-1-1-1v-4h3zm4-3h-2v-5h2zm24 0h-2v-5h2zm-31-7v-6h36v6zm34-8v-8h2v8zm4 18h-5v-8h3v4c-.5522847 0-1 .4477153-1 1s.4477153 1 1 1h2zm1-30v2h-8v-2z"/><path id="Shape" d="m28.6 10.592-2.506 1.878-2.033-2.031c-.2813322-.2815125-.6630087-.43967977-1.061-.43967977s-.7796678.15816727-1.061.43967977l-2.033 2.031-2.506-1.877c-.4545265-.3408949-1.0626444-.3957288-1.5708204-.1416408s-.8291796.7734827-.8291796 1.3416408v11.207c0 1.1045695.8954305 2 2 2h12c1.1045695 0 2-.8954305 2-2v-11.208c0-.5681581-.3210036-1.0875528-.8291796-1.3416408s-1.1162939-.1992541-1.5708204.1416408zm.4 12.408h-12v-2h12zm0-4h-12v-6.208l2.055 1.539c.598427.4419458 1.4295009.3825531 1.959-.14l1.986-1.984 1.987 1.984c.5293847.5230623 1.3610636.5820737 1.959.139l2.054-1.538z"/></g></g></svg>