<svg id="Capa_1" enable-background="new 0 0 512 512" height="512" viewBox="0 0 512 512" width="512" xmlns="http://www.w3.org/2000/svg"><g><g><path d="m296.73 438.15s-81.54 0-81.559 0c-12.89-.277-12.932 21.327-.007 21.052 3.578-1.154 89.986 3.149 88.941-3.299 5.733-6.229 1.603-17.983-7.375-17.753z" fill="#f7b36f"/><g fill="#fff"><path d="m269.3 200.57c-1.122.432-12.114-6.043-13.3-6.477-2.938.811-12.556 8.684-15.65 5.714-3.782-1.974.728-13.673.592-16.653-1.675-2.543-12.149-9.271-10.278-13.129.708-4.206 13.235-3.535 16.027-4.585 1.901-2.378 5.061-14.409 9.308-13.82 4.218-.626 7.449 11.489 9.309 13.82 2.849 1.074 15.273.362 16.026 4.583 1.898 3.82-8.635 10.641-10.277 13.13-.135 3.847 5.816 17.343-1.757 17.417z"/><path d="m266.82 118.63c-1.327.29-9.537-4.671-10.82-5.177-2.809.878-10.159 7.189-13.169 4.415-3.571-1.964.147-11.004.113-13.902-1.698-2.401-9.973-7.446-8.258-11.162.766-4.002 10.496-3.249 13.24-4.174 1.76-2.355 4.011-11.793 8.073-11.311 4.041-.508 6.345 8.988 8.074 11.311 2.785.943 12.443.159 13.24 4.173 1.734 3.688-6.581 8.801-8.258 11.162.068 3.696 4.829 14.58-2.235 14.665z"/><path d="m266.82 273.19c-1.324.29-9.539-4.663-10.82-5.168-2.81.876-10.163 7.179-13.171 4.405-3.568-1.965.149-11.005.115-13.901-1.7-2.399-9.97-7.432-8.259-11.149.762-4.003 10.503-3.26 13.246-4.187 1.759-2.356 4.005-11.792 8.068-11.31 4.042-.508 6.34 8.986 8.069 11.31 2.784.947 12.453.172 13.246 4.186 1.729 3.688-6.58 8.791-8.259 11.15.068 3.695 4.829 14.58-2.235 14.664z"/></g><path d="m363.515 46.904c-3.694-8.033-84.44-55.949-72.127-31.126 85.329 53.533 87.609 247.838 9.535 318.266-12.731 12.449-22.788 22.283-22.683 55.169.007 2.204 1.796 3.987 4 3.987 3.313-.495 10.306 1.492 10.318-3.931.564-32.062 15.888-43.152 22.451-46.433 111.817-49.577 139.303-220.758 48.506-295.932z" fill="#d34242"/><path d="m256.04 3c-60.643 27.642-58.323 260.219-17.108 339.626 4.564 8.07 6.281 29.36 6.368 46.594.011 2.201 1.799 3.98 4 3.98h13.4c2.201 0 3.989-1.779 4-3.98 1.616-76.916 35.834-62.222 35.587-216.031-1.806-70.974-8.361-155.209-46.247-170.189zm13.448 253.716c-2.986 1.965 1.426 15.258 1.318 17.954-17.587-9.247-12.065-9.209-29.613 0 3.358-19.578 5.039-14.316-9.146-28.157 19.665-2.852 15.171.362 23.952-17.406 8.789 17.819 4.339 14.545 23.952 17.406zm2-75.38c-3.05 1.835 1.929 18.049 1.799 20.712-20.845-10.887-13.775-10.841-34.574 0 3.923-23.194 6.048-16.448-10.686-32.886 23.27-3.443 17.517.676 27.973-20.326 10.465 21.064 4.765 16.874 27.973 20.326zm-3.15-75.641 2.469 14.414c-17.593-9.26-12.059-9.222-29.613 0 3.361-19.581 5.031-14.319-9.146-28.166 19.68-2.841 15.171.37 23.953-17.406 8.787 17.819 4.324 14.556 23.944 17.415-1.544 2.295-12.828 10.356-11.607 13.743z" fill="#d34242"/><path d="m219.019 341.815c-85.191-65.108-86.952-271.285 1.593-326.036 3.798-2.245.954-8.607-3.28-7.198-117.437 28.64-165.464 187.921-81.294 285.97 22.334 26.652 47.775 41.693 60.953 48.286 14.446 5.571 23.029 30.836 22.439 46.446-.029 5.121 7.091 3.789 10.33 3.917 11.083-.948-2.364-48.12-10.741-51.385z" fill="#d34242"/><path d="m272.188 342.142c-4.172 7.189-11.356 52.076-2.489 51.058 3.215-.301 9.558 1.154 9.532-3.949.052-4.004.326-10.204 1.337-17.006 2.146-14.52 6.449-24.432 12.789-29.462 107.868-99.657 72.159-303.294-20.006-336.89-3.63-1.239-6.905 3.361-4.333 6.345 6.163 7.512 11.98 19.682 16.824 35.195 21.545 58.826 23.011 231.946-13.654 294.709z" fill="#ffbf48"/><path d="m218.642 342.772c18.197 14.393 9.707 52.039 18.127 50.428 3.184-.268 9.663 1.116 9.531-4.017-.034-8.402-.603-36.629-6.489-47.044-3.7-6.536-10.849-21.465-17.148-48.021-17.72-76.953-19.928-225.432 20.319-281.88 2.171-2.412.157-6.695-3.092-6.537-42.392 12.664-86.112 71.076-86.409 167.49-1.985 63.379 23.144 137.614 65.161 169.581z" fill="#ffbf48"/><path d="m296.057 462.782c.397-2.335-1.586-4.638-3.957-4.582h-71.93c-2.465-.059-4.49 2.432-3.912 4.836 0 0 9.14 42.8 9.14 42.8-2.448 6.559 58.443 1.806 60.412 3.167 1.985-.002 3.669-1.457 3.957-3.42z" fill="#c67045"/></g><g><path d="m365.526 44.686c-30.876-27.965-71.793-44.665-109.463-44.684-.006 0-.011 0-.017 0-.016 0-.031-.002-.046-.002s-.03.002-.045.002c-.006 0-.011 0-.017 0-37.671.019-78.587 16.719-109.464 44.684-25.481 23.079-55.857 64.107-55.857 128.505 0 47.678 14.507 89.158 43.117 123.288 22.704 27.085 48.536 42.35 61.914 49.039 22.046 11.023 20.81 45.83 20.763 46.955l-3.795 42.958c-13.767 2.403-13.514 24.533.351 26.556l10.088 47.244c.345 1.615 1.771 2.769 3.423 2.769h62.353c1.736 0 3.21-1.273 3.463-2.991l6.923-47.051c13.728-2.199 13.843-24.149.17-26.528l-3.795-42.961c-.05-1.206-1.257-35.942 20.763-46.952 13.378-6.689 39.21-21.954 61.914-49.039 28.61-34.13 43.117-75.61 43.117-123.288-.002-64.397-30.378-105.425-55.86-128.504zm-76.633 351.516 3.441 38.953h-72.667l3.441-38.953zm-53.5-24.545c-2.301-15.556-7.1-26.327-14.267-32.012-8.063-6.396-23.643-21.014-37.396-47.05-17.42-32.974-26.253-73.147-26.253-119.404 0-94.869 43.797-150.945 82.417-163.491-6.441 7.853-12.469 20.27-17.549 36.536-7.132 22.836-15.633 63.398-15.633 126.954 0 47.104 4.058 88.1 12.059 121.847 6.407 27.021 13.75 42.344 17.556 49.073 4.824 8.527 5.923 32.884 5.979 45.093h-5.538c-.049-3.845-.31-10.341-1.375-17.546zm27.308 17.545h-13.401c-.051-9.921-.754-37.708-6.881-48.539-26.637-47.087-28.707-140.09-28.707-167.473 0-62.674 8.328-102.496 15.314-124.867 9.507-30.44 20.441-41.278 26.936-41.32h.039s.026 0 .039 0c6.495.042 17.429 10.88 26.936 41.32 6.986 22.371 15.314 62.193 15.314 124.867 0 108.309-21.973 155.568-28.707 167.473-6.128 10.831-6.832 38.618-6.882 48.539zm12.532 0h-5.538c.056-12.209 1.155-36.566 5.978-45.093 3.807-6.729 11.149-22.052 17.557-49.073 8.001-33.747 12.059-74.742 12.059-121.847 0-63.556-8.501-104.118-15.633-126.954-5.08-16.266-11.108-28.684-17.549-36.536 38.62 12.546 82.417 68.621 82.417 163.491 0 27.202-4.59 119.598-63.65 166.455-7.166 5.685-11.965 16.456-14.266 32.012-1.066 7.205-1.327 13.701-1.375 17.545zm-76.455-49.945c-12.893-6.446-37.789-21.159-59.681-47.275-27.525-32.835-41.481-72.802-41.481-118.791 0-61.832 29.124-101.188 53.557-123.316 19.494-17.655 43.116-30.629 67.245-37.445-11.861 7.761-23.145 18.924-32.837 32.851-16.015 23.014-35.105 63.887-35.105 127.91 0 47.409 9.105 88.683 27.063 122.674 14.352 27.167 30.252 43.197 39.235 49.264 8.287 5.597 13.556 32.337 12.986 44.074h-6.333c-.077-3.914-.5-10.529-2.213-17.832-3.633-15.488-11.391-26.592-22.436-32.114zm87.029 165.743h-56.498l-9.139-42.796h71.934zm16.874-56.896c.438 3.646-2.146 7.13-5.95 7.099h-81.462c-7.922.114-7.919-13.163 0-13.049h81.462c3.281.001 5.95 2.67 5.95 5.95zm70.221-156.122c-21.892 26.116-46.788 40.829-59.681 47.275-21.969 10.984-24.483 39.664-24.659 49.945h-6.324c-.172-53.202 25.793-40.945 52.221-93.337 17.958-33.992 27.063-75.266 27.063-122.674 0-64.022-19.09-104.895-35.105-127.91-9.692-13.928-20.976-25.09-32.837-32.851 24.129 6.815 47.752 19.79 67.246 37.445 24.433 22.128 53.557 61.484 53.557 123.316.001 45.989-13.955 85.956-41.481 118.791z"/><path d="m288.377 167.736c-.412-1.267-1.508-2.19-2.826-2.382l-18.25-2.652-8.162-16.538c-1.163-2.563-5.115-2.562-6.277 0l-8.161 16.538-18.25 2.652c-2.796.314-4.018 4.072-1.94 5.97l13.206 12.872-3.117 18.177c-.566 2.757 2.632 5.078 5.078 3.69l16.322-8.583 16.323 8.582c2.442 1.389 5.646-.933 5.078-3.69l-3.117-18.176 13.207-12.873c.954-.929 1.297-2.32.886-3.587zm-20.297 12.732c-.824.804-1.201 1.962-1.006 3.098l2.23 13.001-11.675-6.138c-1.02-.536-2.238-.536-3.258 0l-11.675 6.138 2.229-13.001c.195-1.136-.182-2.294-1.006-3.098l-9.445-9.207 13.053-1.897c1.141-.166 2.126-.881 2.636-1.915l5.837-11.827 5.838 11.828c.51 1.033 1.495 1.749 2.636 1.915l13.053 1.897z"/><path d="m239.725 105.02-2.643 15.412c-.566 2.757 2.632 5.079 5.078 3.69l13.84-7.277 13.841 7.277c2.442 1.389 5.646-.933 5.078-3.69l-2.643-15.412 11.197-10.914c2.078-1.898.856-5.657-1.94-5.97l-15.474-2.249-6.921-14.022c-1.163-2.563-5.115-2.562-6.277 0l-6.92 14.022-15.475 2.249c-2.796.314-4.018 4.073-1.94 5.97zm9.044-12.471c1.141-.166 2.126-.882 2.636-1.915l4.595-9.313 4.597 9.314c.51 1.033 1.495 1.748 2.636 1.914l10.276 1.493-7.436 7.249c-.824.804-1.201 1.962-1.006 3.098l1.755 10.236-9.192-4.833c-1.02-.536-2.238-.536-3.258 0l-9.192 4.833 1.756-10.236c.195-1.135-.182-2.294-1.006-3.098l-7.438-7.249z"/><path d="m281.533 242.698-15.474-2.249-6.921-14.022c-1.163-2.563-5.115-2.562-6.277 0l-6.92 14.022-15.475 2.249c-2.796.314-4.018 4.073-1.94 5.97l11.198 10.914-2.643 15.412c-.566 2.757 2.632 5.079 5.078 3.69l13.841-7.276 13.841 7.277c2.442 1.389 5.646-.933 5.078-3.69l-2.643-15.412 11.197-10.914c2.079-1.899.856-5.657-1.94-5.971zm-15.461 13.157c-.824.804-1.201 1.962-1.006 3.098l1.755 10.236-9.192-4.833c-1.02-.536-2.238-.536-3.258 0l-9.192 4.833 1.756-10.236c.195-1.135-.182-2.294-1.006-3.098l-7.438-7.249 10.277-1.493c1.141-.166 2.126-.882 2.636-1.915l4.596-9.313 4.597 9.314c.51 1.033 1.495 1.749 2.636 1.915l10.276 1.493z"/></g></g></svg>