<svg viewBox="0 0 60 60" xmlns="http://www.w3.org/2000/svg"><g id="034---Castle" fill="none"><g id="Layer_3" transform="translate(1 2)"><path id="Shape" d="m19.82 17c-.100256.2196188-.2391253.4194552-.41.59l-3.41 3.41h-12l-3.41-3.41c-.17087467-.1705448-.30974401-.3703812-.41-.59z" fill="#ff9701"/><path id="Shape" d="m20 10v6.17c.0011247.28647-.0603056.5697318-.18.83h-19.64c-.11969439-.2602682-.18112466-.54353-.18-.83v-6.17c0-.55228475.44771525-1 1-1h2c.55228475 0 1 .44771525 1 1v2c0 .5522847.44771525 1 1 1h2c.55228475 0 1-.4477153 1-1v-2c0-.55228475.44771525-1 1-1h2c.5522847 0 1 .44771525 1 1v2c0 .5522847.4477153 1 1 1h2c.5522847 0 1-.4477153 1-1v-2c0-.55228475.4477153-1 1-1h2c.5522847 0 1 .44771525 1 1z" fill="#ffdb00"/><path id="Shape" d="m16 21v36h-10c-1.10320187-.0032948-1.9967052-.8967981-2-2v-34z" fill="#ffdb00"/><path id="Shape" d="m57.82 17c-.100256.2196188-.2391253.4194552-.41.59l-3.41 3.41h-12l-3.41-3.41c-.1708747-.1705448-.309744-.3703812-.41-.59z" fill="#ff9701"/><path id="Shape" d="m54.82 17c-.100256.2196188-.2391253.4194552-.41.59l-3.41 3.41h3l3.41-3.41c.1708747-.1705448.309744-.3703812.41-.59z" fill="#f47c00"/><path id="Shape" d="m58 10v6.17c.0011247.28647-.0603056.5697318-.18.83h-19.64c-.1196944-.2602682-.1811247-.54353-.18-.83v-6.17c0-.55228475.4477153-1 1-1h2c.5522847 0 1 .44771525 1 1v2c0 .5522847.4477153 1 1 1h2c.5522847 0 1-.4477153 1-1v-2c0-.55228475.4477153-1 1-1h2c.5522847 0 1 .44771525 1 1v2c0 .5522847.4477153 1 1 1h2c.5522847 0 1-.4477153 1-1v-2c0-.55228475.4477153-1 1-1h2c.5522847 0 1 .44771525 1 1z" fill="#ffdb00"/><path id="Shape" d="m57 9h-2c-.1776341.0045183-.3506058.05779358-.5.154.3048904.17338788.4951395.49528946.5.846v6.17c.0011247.28647-.0603056.5697318-.18.83h3c.1196944-.2602682.1811247-.54353.18-.83v-6.17c0-.26521649-.1053568-.5195704-.2928932-.70710678s-.4418903-.29289322-.7071068-.29289322z" fill="#fdc008"/><path id="Shape" d="m54 21v34c-.0032948 1.1032019-.8967981 1.9967052-2 2h-10v-36z" fill="#ffdb00"/><path id="Shape" d="m51 21v34c-.0032948 1.1032019-.8967981 1.9967052-2 2h3c1.1032019-.0032948 1.9967052-.8967981 2-2v-34z" fill="#fdc008"/><path id="Shape" d="m42 24v33h-6v-12c0-3.8659932-3.1340068-7-7-7s-7 3.1340068-7 7v12h-6v-33h5c.5522847 0 1 .4477153 1 1v2c0 .5522847.4477153 1 1 1h2c.5522847 0 1-.4477153 1-1v-2c0-.5522847.4477153-1 1-1h4c.5522847 0 1 .4477153 1 1v2c0 .5522847.4477153 1 1 1h2c.5522847 0 1-.4477153 1-1v-2c0-.5522847.4477153-1 1-1z" fill="#ff9701"/><path id="Shape" d="m36 45v12h-7v-19c3.8659932 0 7 3.1340068 7 7z" fill="#90562d"/><path id="Shape" d="m29 38v19h-7v-12c0-3.8659932 3.1340068-7 7-7z" fill="#9f522d"/><path id="Shape" d="m23 36h-2c-.5522847 0-1-.4477153-1-1v-1c0-1.1045695.8954305-2 2-2s2 .8954305 2 2v1c0 .5522847-.4477153 1-1 1z" fill="#3f51b4"/><path id="Shape" d="m37 36h-2c-.5522847 0-1-.4477153-1-1v-1c0-1.1045695.8954305-2 2-2s2 .8954305 2 2v1c0 .5522847-.4477153 1-1 1z" fill="#3f51b4"/><g fill="#f34335"><path id="Shape" d="m10 0h8c.5522847 0 1 .44771525 1 1v3c0 .55228475-.4477153 1-1 1h-8z"/><path id="Shape" d="m48 0h8c.5522847 0 1 .44771525 1 1v3c0 .55228475-.4477153 1-1 1h-8z"/></g></g><g id="Layer_11" fill="#000"><path id="Shape" d="m58 10h-2c-1.1045695 0-2 .8954305-2 2v2h-2v-2c0-1.1045695-.8954305-2-2-2v-2h7c1.1045695 0 2-.8954305 2-2v-3c0-1.1045695-.8954305-2-2-2h-7c0-.55228475-.4477153-1-1-1s-1 .44771525-1 1v9c-1.1045695 0-2 .8954305-2 2v2h-2v-2c0-1.1045695-.8954305-2-2-2h-2c-1.1045695 0-2 .8954305-2 2v6.171c-.0025349.7964142.3140402 1.5606602.879 2.122l3.121 3.121v1.586h-4c-1.1045695 0-2 .8954305-2 2v2h-2v-2c0-1.1045695-.8954305-2-2-2h-4c-1.1045695 0-2 .8954305-2 2v2h-2v-2c0-1.1045695-.8954305-2-2-2h-4v-1.586l3.121-3.121c.5649598-.5613398.8815349-1.3255858.879-2.122v-6.171c0-1.1045695-.8954305-2-2-2h-2c-1.1045695 0-2 .8954305-2 2v2h-2v-2c0-1.1045695-.8954305-2-2-2v-2h7c1.1045695 0 2-.8954305 2-2v-3c0-1.1045695-.8954305-2-2-2h-7c0-.55228475-.4477153-1-1-1s-1 .44771525-1 1v9c-1.1045695 0-2 .8954305-2 2v2h-2v-2c0-1.1045695-.8954305-2-2-2h-2c-1.1045695 0-2 .8954305-2 2v6.171c-.00253492.7964142.31404016 1.5606602.879 2.122l3.121 3.121v33.586c0 1.6568542 1.34314575 3 3 3h46c1.6568542 0 3-1.3431458 3-3v-33.586l3.121-3.121c.5649598-.5613398.8815349-1.3255858.879-2.122v-6.171c0-1.1045695-.8954305-2-2-2zm-8-7h7v3h-7zm-38 0h7v3h-7zm-10 9h2v2c0 1.1045695.8954305 2 2 2h2c1.1045695 0 2-.8954305 2-2v-2h2v2c0 1.1045695.8954305 2 2 2h2c1.1045695 0 2-.8954305 2-2v-2h2v6h-18zm14 22h-6c-.55228475 0-1 .4477153-1 1s.44771525 1 1 1h6v13h-6c-.55228475 0-1 .4477153-1 1s.44771525 1 1 1h6v7h-9c-.55228475 0-1-.4477153-1-1v-13h6c.5522847 0 1-.4477153 1-1s-.4477153-1-1-1h-6v-13h6c.5522847 0 1-.4477153 1-1s-.4477153-1-1-1h-6v-3h10zm.586-12h-11.172l-2-2h15.172zm12.414 28h-2c-.5522847 0-1 .4477153-1 1s.4477153 1 1 1h2v6h-5v-11c.0054296-2.9246159 2.1166966-5.4201335 5-5.91zm7 8h-5v-6h2c.5522847 0 1-.4477153 1-1s-.4477153-1-1-1h-2v-8.91c2.8833034.4898665 4.9945704 2.9853841 5 5.91zm6 0h-4v-11c0-4.418278-3.581722-8-8-8s-8 3.581722-8 8v11h-4v-31h4v2c0 1.1045695.8954305 2 2 2h2c1.1045695 0 2-.8954305 2-2v-2h4v2c0 1.1045695.8954305 2 2 2h2c1.1045695 0 2-.8954305 2-2v-2h4zm12-24h-6c-.5522847 0-1 .4477153-1 1s.4477153 1 1 1h6v13h-6c-.5522847 0-1 .4477153-1 1s.4477153 1 1 1h6v6c0 .5522847-.4477153 1-1 1h-9v-14h6c.5522847 0 1-.4477153 1-1s-.4477153-1-1-1h-6v-13h6c.5522847 0 1-.4477153 1-1s-.4477153-1-1-1h-6v-3h10zm.586-12h-11.172l-2-2h15.172zm3.414-4h-18v-6h2v2c0 1.1045695.8954305 2 2 2h2c1.1045695 0 2-.8954305 2-2v-2h2v2c0 1.1045695.8954305 2 2 2h2c1.1045695 0 2-.8954305 2-2v-2h2z"/><path id="Shape" d="m23 33c-1.6568542 0-3 1.3431458-3 3v1c0 1.1045695.8954305 2 2 2h2c1.1045695 0 2-.8954305 2-2v-1c0-1.6568542-1.3431458-3-3-3zm-1 4v-1c0-.5522847.4477153-1 1-1s1 .4477153 1 1v1z"/><path id="Shape" d="m34 36v1c0 1.1045695.8954305 2 2 2h2c1.1045695 0 2-.8954305 2-2v-1c0-1.6568542-1.3431458-3-3-3s-3 1.3431458-3 3zm4 0v1h-2v-1c0-.5522847.4477153-1 1-1s1 .4477153 1 1z"/></g></g></svg>