<svg id="Capa_1" enable-background="new 0 0 511.999 511.999" height="512" viewBox="0 0 511.999 511.999" width="512" xmlns="http://www.w3.org/2000/svg"><g><g><path d="m393.17 505.279c6.036-76.359-9.354-113.281-72.572-129.407-21.754 20.155-46.393 30.243-63.554 28.717-25.794.985-48.21-13.453-65.734-28.681-48.871 18.955-77.202 19.597-72.485 129.31.117 2.122 1.87 3.783 3.995 3.783h58.14c3.002.08 5.029-3.462 3.46-6.008-9.931-15.095-37.516-75.79 4.404-83.557 23.68-7.861 56.034.397 64.047 14.168 6.269 7.423 13.636-18.647 47.032-17.206 73.89 1.609 40.179 55.139 27.67 90.598-.789 4.304 59.834 1.045 61.607 2.006 2.1-.003 3.843-1.628 3.99-3.723z" fill="#ffdac4"/><path d="m232.241 323.397c-6.145 7.334-6.574 22.124-20.941 36.989-.716.795-1.085 1.843-1.024 2.911 5.701 9.257 23.505 20.28 46.329 21.664 15.544.116 30.238-6.248 43.88-18.934 1.6-1.49 1.708-3.99.24-5.612-14.391-14.89-14.825-29.641-20.967-37.018 84.332-27.626 67.82-179.294-23.764-178.587-91.573-.696-108.088 150.98-23.753 178.587z" fill="#ffdac4"/><path d="m257.046 405.631c14.357-.056 45.972-5.357 60.937-29.712-2.16-4.999-8.997-6.37-12.589-10.807-1.611-1.466-4.106-1.376-5.605.215-28.011 27.496-63.45 21.582-87.625-.065-5.669-4.207-10.91 6.266-16.306 7.811-2.176 1.214-2.638 4.435-.87 6.202 15.666 16.503 38.865 26.357 62.058 26.356z" fill="#ed6d66"/><g fill="#d34242"><path d="m342.169 473.981c8.769-26.277 8.13-48.231-18.748-55.517-18.296-4.632-38.943-4.646-54.023 4.83-7.724 5.728-15.94 11.171-12.243 17.163-.738-.234-1.573-.234-2.311 0 3.735-5.973-4.545-11.445-12.227-17.159-18.062-11.307-64.056-13.565-75.511 12.202-3.732 9.57-2.816 22.515 2.725 38.481.522 1.503 1.87 2.512 3.396 2.659-1.066 1.106-1.385 2.819-.792 4.238 5.921 12.248 10.99 27.02 16.693 28.122.001-.001 133.741-.001 133.741-.001 1.393 0 2.686-.725 3.412-1.913 2.348-3.837 8.34-14.072 13.282-26.208.592-1.421.279-3.13-.789-4.238 1.527-.148 2.873-1.157 3.395-2.659z"/><path d="m163.444 99.826c-.722 5.764 3.619 11.51 9.604 11.373.001 0 165.975.001 165.998.001 12.442.374 12.504-21.151-.097-20.71h-165.899c-5.208 0-9.461 4.163-9.606 9.336z"/><path d="m305.36 69.859c2.129 0 3.885-1.667 3.995-3.794.991-19.223-2.623-34.418-10.744-45.169-14.836-24.414-72.252-22.806-87.217.455-8.001 10.343-16.598 29.595-13.344 47.275.756.787 1.799 1.232 2.89 1.232h104.42z"/></g><path d="m389.159 192.279c-6.019-13.193-14.659-21.533-16.419-23.144-2.269-38.329-33.079-55.765-41.69-58.937-.001.001-150.1.001-150.1.001-8.701 3.176-39.342 20.712-41.689 58.903-17.634 14.653-31.669 53.115-14.035 81.026-13.493 21.002-22.091 72.994 22.702 90.038-3.16 3.358-17.638 19.727-17.658 37.753-.352 5.967 4.74 25.339 13.201 21.676 38.563-28.215 68.854-14.912 87.526-73.758.617-1.966-.36-4.078-2.257-4.881-80.104-31.738-60.721-175.881 27.265-175.146 87.987-.642 107.377 143.333 27.252 175.146-1.893.803-2.87 2.916-2.253 4.882 18.703 58.89 48.947 45.523 87.524 73.756 8.703 3.669 13.387-15.818 13.203-21.701-.031-18.098-14.554-34.443-17.658-37.728 44.919-17.025 36.083-69.431 22.683-90.071 10.275-19.304 11.084-38.753 2.403-57.815z" fill="#ffbf48"/><path d="m304.799 68.859h-103.96c-7.807.869-2.261 16.32-2.917 19.153-4.147 7.441 103.269 1.84 104.456 3.48 6.378-1.16 4.47-9.787 6.399-18.201.297-2.292-1.663-4.484-3.978-4.432z" fill="#5bd0fc"/></g><path d="m398.4 308.95c8.141-25.131-4.524-51.872-8.244-58.89 12.493-24.63 7.832-45.768 1.611-59.284-5.582-12.128-13.233-20.236-16.093-23.013-1.609-28.601-20.338-46.037-32.363-54.36 12.967-4.371 9.852-26.32-4.367-25.914h-29.374c2.664-12.198 8.096-46.427-8.622-68.475-17.654-26.014-73.526-24.79-91.794.334-18.364 22.156-15.882 56.309-14.345 68.141h-21.755c-14.224-.405-17.329 21.544-4.367 25.914-12.025 8.323-30.754 25.759-32.363 54.36-17.634 17.914-31.865 47.985-14.481 82.296-3.72 7.018-16.385 33.758-8.244 58.89 4.45 13.741 14.342 24.556 29.433 32.202-5.456 6.478-15.732 20.792-15.76 36.732-.016 8.642 2.977 16.49 8.889 23.377-15.29 16.958-24.748 47.022-20.085 107.508.141 1.823 1.66 3.231 3.489 3.231h272.867c1.829 0 3.349-1.408 3.489-3.231 4.663-60.486-4.794-90.55-20.085-107.508 5.912-6.887 8.905-14.735 8.889-23.377-.027-15.94-10.304-30.254-15.76-36.732 15.093-7.645 24.985-18.461 29.435-32.201zm-183.841-285.153c15.567-21.647 65.659-22.939 80.801-.567 9.147 12.05 10.71 28.874 10.005 42.626h-104.426c.584-13.568 3.668-30.066 13.62-42.059zm-13.717 49.059h103.962c-.699 6.455-1.757 11.7-2.426 14.634h-100.488c-.404-3.029-.957-8.253-1.048-14.634zm-33.399 27.244c0-3.094 2.518-5.611 5.611-5.611h165.891c7.536-.108 7.533 12.818 0 12.709h-165.891c-3.807.037-6.094-3.547-5.611-7.098zm20.897 375.92c10.128-4.002 16.757-10.324 19.408-18.434 9.467 3.297 33.484 8.775 48.251-13.311 14.768 22.085 38.785 16.607 48.251 13.311 2.729 11.616 19.639 20.413 31.612 21.778-4.833 11.867-10.692 21.877-12.989 25.635h-133.747c-2.298-3.758-8.156-13.768-12.989-25.635 3.171-.535 7.614-1.53 12.203-3.344zm-14.733-3.353c-4.288-12.362-6.713-25.759-2.725-35.826 4.564-14.631 28.56-17.308 41.125-17.43 25.779 0 36.924 13.442 39.976 18.034-14.864 26.661-43.906 12.868-45.153 12.259-2.035-1.072-4.73.338-5.009 2.62-2.276 15.174-21.224 19.324-28.214 20.343zm86.409-35.22c3.842-5.775 20.37-25.398 62.454-15.095 9.616 2.354 15.716 7.093 18.646 14.489 3.988 10.067 1.564 23.464-2.725 35.826-6.99-1.019-25.938-5.168-28.214-20.342-.279-2.278-2.971-3.686-5.003-2.623-1.251.613-30.293 14.406-45.158-12.255zm129.165 67.552h-58.142c7.735-13.319 25.588-48 16.589-70.73-3.772-9.528-11.677-15.825-23.493-18.717-41.667-10.197-61.175 6.813-68.135 15.556-6.959-8.743-26.467-25.754-68.135-15.555-11.816 2.892-19.721 9.189-23.493 18.717-8.999 22.73 8.854 57.411 16.589 70.73h-58.143c-5.835-107.212 25.071-107.507 68.496-125.089 28.178 31.514 88.23 44.435 129.286-.037 3.913 1.738 8.125 3.171 12.098 4.635 32.556 11.789 63.326 22.928 56.483 120.49zm-133.181-181.479c-41.855 0-75.907-39.188-75.907-87.355s34.051-87.355 75.907-87.355 75.907 39.188 75.907 87.355-34.052 87.355-75.907 87.355zm0 7c7.689 0 15.135-1.202 22.205-3.442 2.006 7.104 7.467 22.66 19.558 36.024-12.907 12.01-26.711 17.981-41.124 17.86-20.219-.229-36.419-12.648-42.37-17.894 12.069-13.357 17.522-28.892 19.526-35.99 7.07 2.24 14.516 3.442 22.205 3.442zm-46.689 37.535c20.776 21.193 64.999 30.133 93.388.009 3.348 3.06 7.105 5.913 11.323 8.405-36.632 38.498-89.427 28.19-116.128.05 4.257-2.506 8.044-5.38 11.417-8.464zm152.492-31.26c-2.218.9-2.805 4.051-1.059 5.688.169.169 16.95 17.044 16.982 35.413.012 6.745-2.306 12.932-6.888 18.436-41.561-29.433-68.482-15.857-86.022-71.695 31.551-13.354 54.09-47.972 54.09-88.472 0-52.027-37.192-94.355-82.907-94.355s-82.907 42.328-82.907 94.355c0 40.5 22.539 75.119 54.09 88.473-17.512 55.794-44.451 42.272-86.022 71.695-4.576-5.497-6.894-11.675-6.888-18.409.015-18.317 16.815-35.273 16.982-35.44 1.746-1.638 1.159-4.788-1.059-5.688-15.629-6.866-25.698-16.949-29.927-29.969-8.315-25.603 8.396-54.661 8.565-54.95.616-1.052.642-2.349.065-3.424-16.342-25.215-4.326-62.213 13.162-76.475.727-.636 1.157-1.544 1.191-2.508 1.249-35.381 32.833-52.797 37.697-55.271h150.102c4.863 2.459 36.44 19.784 37.693 55.271.034.961.466 1.869 1.188 2.505.093.082 9.391 8.373 15.582 21.962 8.173 17.938 7.36 36.279-2.416 54.515-.576 1.075-.551 2.373.065 3.424.17.29 16.888 29.255 8.576 54.917-4.22 13.036-14.292 23.13-29.935 30.002z"/></g></svg>