<svg viewBox="0 0 60 60" xmlns="http://www.w3.org/2000/svg"><g id="021---Royal-Horse" fill="none"><g id="Layer_3" transform="translate(1)"><path id="Shape" d="m46 15c-.0032948 1.1032019-.8967981 1.9967052-2 2h-18c-1.1045695 0-2-.8954305-2-2s.8954305-2 2-2h18c1.1032019.0032948 1.9967052.8967981 2 2z" fill="#ff9701"/><path id="Shape" d="m44 13h-3c1.1045695 0 2 .8954305 2 2s-.8954305 2-2 2h3c1.1045695 0 2-.8954305 2-2s-.8954305-2-2-2z" fill="#f47c00"/><path id="Shape" d="m44 2.66v10.34h-18v-10.34c.001757-.38249226.221544-.73047533.5661738-.8964082.3446298-.16593286.7537221-.12074354 1.0538262.1164082l2.68 2.13c.3966442.31822897.9689524.28810749 1.33-.07l2.66-2.65c.3930079-.38997787 1.0269921-.38997787 1.42 0l2.66 2.65c.3610476.35810749.9333558.38822897 1.33.07l2.68-2.13c.3001041-.23715174.7091964-.28234106 1.0538262-.1164082.3446298.16593287.5644168.51391594.5661738.8964082z" fill="#ffdb00"/><path id="Shape" d="m42.38 1.88-1.38 1.097v10.023h3v-10.34c-.001757-.38249226-.221544-.73047533-.5661738-.8964082-.3446298-.16593286-.7537221-.12074354-1.0538262.1164082z" fill="#fdc008"/><path id="Shape" d="m15 54h3v4c0 .5522847-.4477153 1-1 1h-3c-.5522847 0-1-.4477153-1-1v-2c0-1.1045695.8954305-2 2-2z" fill="#9d9d9d"/><path id="Shape" d="m29.69 41c-.1832718.5848706-.4493019 1.1405031-.79 1.65-.5921751.8877772-.9562592 1.9078994-1.06 2.97l-.84 8.38h-3v-13z" fill="#6d4122"/><path id="Shape" d="m24 54h3v4c0 .5522847-.4477153 1-1 1h-3c-.5522847 0-1-.4477153-1-1v-2c0-1.1045695.8954305-2 2-2z" fill="#707070"/><path id="Shape" d="m44 41.79v12.21h3l.84-8.38c.0375607-.3958844.1111999-.787511.22-1.17" fill="#6d4122"/><path id="Shape" d="m44 54h3v4c0 .5522847-.4477153 1-1 1h-3c-.5522847 0-1-.4477153-1-1v-2c0-1.1045695.8954305-2 2-2z" fill="#707070"/><path id="Shape" d="m53 54h3v4c0 .5522847-.4477153 1-1 1h-3c-.5522847 0-1-.4477153-1-1v-2c0-1.1045695.8954305-2 2-2z" fill="#9d9d9d"/><path id="Shape" d="m56 54h-3l-4.72-9.49-.22-.06-.71-.21c-2.5754513-.7366512-4.3505958-3.0912682-4.35-5.77v-3c-4.31 5.53-12 5.53-12 5.53h-10.31c-.1832718.5848706-.4493019 1.1405031-.79 1.65-.5921751.8877772-.9562592 1.9078994-1.06 2.97l-.84 8.38h-3v-16c-1.1032019-.0032948-1.9967052-.8967981-2-2v-9.57c.1454862-1.6429243-1.0177083-3.1133776-2.65-3.35-.43605518 1.1611971-1.54965091 1.9275425-2.79 1.92-.46874443-.0003808-.93095678-.1099422-1.35-.32l-2.9 1.45c-.97306895.4834956-2.15415552.1016405-2.66-.86l-.41-.77c-.40916379-.7606426-.27980072-1.6985249.32-2.32l4-4.18c.06395772-1.8299119 1.26119278-3.4262253 3-4l-1.56-2s4-1 6 1c2.6222635.7481343 5.0241505 2.1206411 7 4 3 3 5 8 12 8 0 0 2.8.24 9-1 3.54-.71 8.59.09 11.23 3.46 1.6002363 2.1696586 1.9491954 5.0182272.92 7.51-.54 1.42-1.15 2.38-1.15 4.03 0 0 0 3.42 2.37 3.93.3878174.0857826.6892285.3911081.77.78z" fill="#90562d"/><path id="Shape" d="m54.14 43.71c-.0807715-.3888919-.3821826-.6942174-.77-.78-2.37-.51-2.37-3.93-2.37-3.93 0-1.65.61-2.61 1.15-4.03 1.0291954-2.4917728.6802363-5.3403414-.92-7.51-2.4-3.063-6.787-4-10.225-3.611 2.7934745.192158 5.3944849 1.4921232 7.225 3.611 1.6002363 2.1696586 1.9491954 5.0182272.92 7.51-.54 1.42-1.15 2.38-1.15 4.03 0 0 0 3.42 2.37 3.93.3878174.0857826.6892285.3911081.77.78l1.86 10.29h3z" fill="#6d4122"/></g><g id="Layer_11" fill="#000"><path id="Shape" d="m42.753 1.1-2.681 2.13-2.659-2.647c-.782457-.77439631-2.042543-.77439631-2.825 0l-2.664 2.646-2.677-2.129c-.5998453-.47837843-1.4204844-.57143954-2.1122173-.23952706s-1.1326189 1.03028812-1.1347827 1.79752706v9.526c-1.3765475.4848523-2.2026937 1.8918441-1.9553873 3.330178s1.49595 2.4885874 2.9553873 2.485822h18c1.4594373.0027654 2.7080809-1.0474881 2.9553873-2.485822s-.5788398-2.8453257-1.9553873-3.330178v-9.526c-.0021638-.76723894-.4430498-1.46561458-1.1347827-1.79752706s-1.512372-.23885137-2.1122173.23952706zm-14.753 1.563 2.678 2.131c.7951004.63372828 1.9391397.57005102 2.659-.148l2.663-2.646 2.66 2.646c.7201227.71774771 1.8641477.78099392 2.659.147l2.681-2.135v9.342h-16zm17 13.337h-18c-.5522847 0-1-.4477153-1-1s.4477153-1 1-1h18c.5522847 0 1 .4477153 1 1s-.4477153 1-1 1z"/><circle id="Oval" cx="31" cy="9" r="1"/><circle id="Oval" cx="41" cy="9" r="1"/><circle id="Oval" cx="36" cy="9" r="1"/><path id="Shape" d="m50.359 24.534c-2.907199-1.618723-6.2938761-2.1551211-9.559-1.514-2.8830023.680795-5.8378567 1.0098583-8.8.98-6.542-.145-8.288-4.7-11.293-7.707-2.0367601-1.9481803-4.5067623-3.3852164-7.207-4.193-2.412-2.123-6.565-1.117-6.746-1.072-.32821087.0820836-.59266338.3245521-.70285287.6444245s-.05117268.6737695.15685287.9405755l.8 1.02c-1.35376645.88606-2.24149007 2.3300317-2.421 3.938l-3.754 3.919c-.89667618.9337525-1.09006066 2.338717-.479 3.48l.407.762c.76294284 1.4398117 2.53233093 2.0121826 3.994 1.292l2.492-1.245c1.69768023.5609683 3.5627733-.0496469 4.6-1.506.7820486.4227896 1.2359083 1.2718575 1.153 2.157v9.57c.0052514 1.2667854.8056491 2.3937454 2 2.816v14.368c-1.1943509.4222546-1.9947486 1.5492146-2 2.816v2c0 1.1045695.8954305 2 2 2h3c1.1045695 0 2-.8954305 2-2 0-4.973-.167-2.278.833-12.282.181-1.807.933-2.316 1.539-3.718h1.628v11.184c-1.1943509.4222546-1.9947486 1.5492146-2 2.816v2c0 1.1045695.8954305 2 2 2h3c1.1045695 0 2-.8954305 2-2 0-4.974-.167-2.279.835-12.286.171-1.8.917-2.28 1.534-3.714 4.2306206.064126 8.3486174-1.364126 11.631-4.034-.0817805 1.4246154.2666322 2.8409131 1 4.065v11.153c-1.1943509.4222546-1.9947486 1.5492146-2 2.816v2c0 1.1045695.8954305 2 2 2h3c1.1045695 0 2-.8954305 2-2 0-4.972-.132-2.628.656-10.49l2.917 5.867c-.965366.5200359-1.5689265 1.5264818-1.573 2.623v2c0 1.1045695.8954305 2 2 2h3c1.1045695 0 2-.8954305 2-2 0-4.957.006-3.841-.019-4.1-.031-.327-.181-1.1-1.859-10.391-.1591972-.7784096-.7640619-1.3887696-1.541-1.555-1.547-.336-1.581-2.931-1.581-2.954 0-1.412.536-2.234 1.084-3.672 1.3775647-3.3017998.5545385-7.1121358-2.063-9.551.6289497-.5447178 1.4486941-.8169736 2.2785552-.7567599.8298612.0602138 1.6017171.447954 2.1454448 1.0777599 3.092 3.086.646 10.508.62 10.583-.1141464.3394023-.038553.7139193.1983049.9824741.2368578.2685548.5989958.3903475.95.3195s.6375487-.3235718.7516951-.6629741c.12-.352 2.869-8.674-1.1-12.636-2.207-2.205-4.965-2.24-7.506-.15zm-35.359 33.466v-2c0-.5522847.4477153-1 1-1h2v3zm9 0v-2c0-.5522847.4477153-1 1-1h2v3zm3.845-12.479-.745 7.479h-1.1v-11h3.122c-.7120107 1.0491268-1.1509394 2.2593602-1.277 3.521zm16.155 12.479v-2c0-.5522847.4477153-1 1-1h2v3zm3.1-5h-1.1v-8.787c.5822469.4032915 1.2230769.7145999 1.9.923-.074.497.06-.77-.8 7.864zm8.9 5h-3v-2c0-.5522847.4477153-1 1-1h2zm-3.785-23.385c-.7118102 1.3587959-1.1260016 2.8536348-1.215 4.385 0 1.567.664 4.365 3.158 4.887l1.642 9.113h-1.18l-4.445-8.936c-.222-.447-.487-.477-1.552-.786-2.1424937-.6186572-3.6189118-2.5779778-3.623-4.808v-5.47c0-.5522847-.4477153-1-1-1s-1 .4477153-1 1v2.1c-3.987 4.812-10.93 4.9-11 4.9h-9.072c.1-.782.072-.625.072-8 0-.5522847-.4477153-1-1-1s-1 .4477153-1 1v7.023c0 2.829-1.837 3.309-2.157 6.5l-.743 7.477h-1.1v-14c.5522847 0 1-.4477153 1-1s-.4477153-1-1-1h-1c-.5522847 0-1-.4477153-1-1v-9.57c.135767-2.1262111-1.3734541-4.0046036-3.479-4.33-.4749478-.083353-.9417356.1841038-1.11.636-.2014113.525978-.61708741.9414265-1.14317556 1.1425498-.52608816.2011233-1.11289936.1689252-1.61382444-.0885498-.28141076-.1406214-.61258924-.1406214-.894 0l-2.9 1.447c-.48837371.2406918-1.07955721.0464458-1.33-.437l-.412-.775c-.20192424-.3787668-.13648144-.8445417.162-1.153l4-4.181c.17516392-.1850703.27438836-.4292053.278-.684.05880697-1.4025476.98186355-2.621333 2.316-3.058.30816776-.1027375.54723071-.3487609.64108406-.6597496.09385334-.3109886.03080118-.6481874-.16908406-.9042504l-.487-.624c1.2245432-.1572647 2.4609693.1835451 3.432.946.1279995.1275432.2879012.2183729.463.263 2.4457515.7074305 4.6872353 1.9886213 6.538 3.737 2.855 2.856 5.222 8.293 12.617 8.293 3.125765.0154456 6.2430349-.3267797 9.291-1.02 3.359-.673 7.957.174 10.248 3.1 1.377198 1.8957596 1.6678147 4.3718746.767 6.535z"/></g></g></svg>