<svg viewBox="0 0 59 59" xmlns="http://www.w3.org/2000/svg"><g id="Page-1" fill="none" fill-rule="evenodd"><g id="039---Dolphin" fill-rule="nonzero"><path id="Shape" d="m26.039 25.772c3.31073.7159443 6.2677728 2.564936 8.361 5.228 1.4049484-2.4252473 1.5705813-5.3747016.446-7.942z" fill="#67b9cc"/><path id="Shape" d="m53 20s1.02-17-22-17c-4.287332-.06104091-8.5601512.5118134-12.68 1.7-2.1181845-2.36421539-5.1457114-3.71059154-8.32-3.7-7 0-9 3-9 3s5.48 2.75 6.793 6.537c-4.80846399 4.5587991-7.61126914 10.8394851-7.793 17.463 0 5 0 13 8 20s22 3 22 3 0 6 8 8c0 0 1-7-4-10 5-3 4-10 4-10-8 2-8 8-8 8h-.06c-.69 0-7.05-.11-10.94-4-2.1264026-2.0809419-2.9336803-5.163974-2.1-8.02.7309308-2.6313239 2.3788314-4.9144785 4.646-6.437.2769691 1.8063569.4286645 3.6297082.454 5.457 4.875-2.031 6.945-5.383 7.683-8.647h.007c1.9041783-.2763613 3.8346284-.3233636 5.75-.14 3.5974407.4027083 7.1391024 1.2032714 10.56 2.387 2.888385.9654457 5.9835594 1.1347131 8.96.49 1.92-.56 3.04-1.67 3.04-3.09 0-2-5-5-5-5z" fill="#9fc9d3"/><path id="Shape" d="m29.93 20.29c1.1890677-.0636143 2.3805946-.0669519 3.57-.01 5.66.27 9.97 1.91 14.5 3.72 2.5115475 1.007466 4.857676 2.3861536 6.96 4.09-2.9764406.6447131-6.071615.4754457-8.96-.49-.66-.19-1.31-.4-1.96-.6-4.2841231-1.4742388-8.8192182-2.0793714-13.34-1.78-.791.093-1 .13-1.02.13z" fill="#ecf0f1"/><path id="Shape" d="m21.55 28.54c-2.2701833 1.521598-3.9199087 3.806379-4.65 6.44-.8336803 2.856026-.0264026 5.9390581 2.1 8.02 3.89 3.89 10.25 4 10.94 4-12.96.98-17.94-5.01-18.94-11-.8-4.83.99-10.33 7.48-13.31.3-.15.62-.28.94-.41z" fill="#ecf0f1"/><circle id="Oval" cx="46" cy="17" fill="#ecf0f1" r="3"/><g fill="#3b97d3"><path id="Shape" d="m37 8h-1c-.5522847 0-1-.44771525-1-1s.4477153-1 1-1h1c.5522847 0 1 .44771525 1 1s-.4477153 1-1 1z"/><circle id="Oval" cx="55" cy="35" r="3"/><circle id="Oval" cx="50" cy="42" r="2"/><circle id="Oval" cx="56" cy="9" r="2"/></g><circle id="Oval" cx="56" cy="42" fill="#2980ba" r="1"/><circle id="Oval" cx="58" cy="14" fill="#2980ba" r="1"/><path id="Shape" d="m8 14c-.06718704.0004396-.13423044-.0062648-.2-.02-.2599387-.0529946-.48816778-.2071045-.63445513-.428411-.14628734-.2213065-.19864341-.4916715-.14554487-.751589.7-3.478-4.433-6.889-6.468-7.91-.25637065-.12843305-.44527377-.36073968-.51872777-.63791376s-.0243907-.57254427.13472777-.81108624c.094-.136 2.383-3.441 9.832-3.441 4.5547492.03930227 8.7289261 2.54878677 10.9 6.553.2485281.49401871.0495187 1.09597186-.4445 1.3445s-1.0959719.04951871-1.3445-.4445c-1.8278784-3.33110222-5.3115239-5.41608948-9.111-5.453-4.02 0-6.238 1.045-7.318 1.8 2.362 1.443 7.181 4.98 6.3 9.394-.09270615.4687893-.50413225.8064771-.982.806z" fill="#67b9cc"/><path id="Shape" d="m30.7 25.22c-.71 3.63-2.89 7.44-8.32 9.7-.3076385.1263879-.657982.091556-.9347126-.0929311-.2767307-.1844871-.4436306-.4944842-.4452874-.8270689 0-3.036-.617-8.94-2.52-11.31-.2462375-.3328922-.5640472-.6062769-.93-.8-.3460386-.1440974-.5824323-.4696151-.6123817-.8432591s.1515756-.73266.4702434-.9300368c.3186678-.1973769.7209575-.1999648 1.0421383-.0067041 3.446 1.723 4.329 8.485 4.51 12.33 5.73-3.05 6.39-8.3 6.02-11.97-.131106-1.4025326-.4368035-2.7832101-.91-4.11-.1522582-.5008835.1075655-1.0344216.5957779-1.223407s1.0395503.0305546 1.2642221.503407c.5128044 1.4911287.841899 3.0392164.98 4.61.1797238 1.6578207.1089311 3.3332492-.21 4.97z" fill="#67b9cc"/><circle id="Oval" cx="47" cy="17" fill="#3f5c6c" r="2"/><circle id="Oval" cx="46" cy="16" fill="#ecf0f1" r="1"/></g></g></svg>