<svg id="Capa_1" enable-background="new 0 0 512 512" height="512" viewBox="0 0 512 512" width="512" xmlns="http://www.w3.org/2000/svg"><g><g><path d="m302.334 270.756c-9.448-.262-5.427 26.929-43.475 27.387-37.759-.986-32.555-26.377-43.507-25.508-38.336 1.493-54.719 26.898-52.355 58.742 24.122 21.217 52.29 29.988 100.62 31.944 35.72-1.015 68.77-9.963 91.251-36.889 2.153-30.325-23.003-55.833-52.534-55.676z" fill="#ffb3b3"/><path d="m159.701 329.16c-8.801-3.432-11.8-11.478-16.241-14.352-39.125 2.101-38.486-28.171-20.518-50.233 4.444-3.792 12.353.828 17.337-.281 36.096-1.122 41.975-29.054 36.261-66.14-.529-2.64 2.026-5.189 4.665-4.618 28.512 4.854 67.726-8.851 74.726-37.31.393-1.637 1.769-2.853 3.442-3.041 1.651-.188 3.289.686 4.032 2.201 14.097 28.269 53.088 58.24 86.169 43.519 2.668-1.309 6.046 1.091 5.624 4.065-4.028 48.118 11.062 76.768 51.032 57.88 8.966 1.722 5.768 24.893 1.888 27.508-10.462 12.422-22.219 9.518-32.699 11.235-1.189 2.577-5.722 11.663-14.905 22.275-2.272 2.754-7.031 1.035-7.023-2.517-.701-28.031-26.724-47.566-49.64-47.566-9.928 1.254-.097-17.102-13.227-29.33-7.227-7.766-18.713-12.219-31.513-12.219-23.402-.003-43.06 14.88-39.623 38.987.144 1.151-.219 2.309-.994 3.172-1.024 1.233-2.654 1.42-4.154 1.315-28.213-.787-52.592 23.419-50.647 51.215.184 2.234-1.762 4.282-3.992 4.235z" fill="#f0f1fa"/><path d="m441.992 150.226c-2.741-12.856-11.05-23.611-24.702-31.98 11.428-38.923-4.214-69.826-56.018-70.545-16.968-41.716-61.88-53.359-101.507-37.363-29.463-10.362-71.488-13.094-92.338 34.596-35.828.859-71.305 34.206-67.517 71.743-34.917 24.439-40.918 65.443-14.626 100.378 1.084 9.089.65 19.478 13.164 33.345 12.53 15.537 57.545 21.947 71.545 3.118 14.377-16.286 7.529-41.038 7.396-59.424 32.482 6.025 75.696-8.031 81.605-44.604 12.252 29.976 57.955 69.346 95.577 48.649-2.151 12.251-.874 55.517 12.346 64.24 37.039 20.026 93.41-31.029 64.103-65.212 1.953-2.9 15.757-24.45 10.972-46.941z" fill="#59bd8b"/><path d="m351.378 408.062c14.151-19.971 6.228-51.296-7.966-66.657-1.321-1.616-3.657-1.931-5.355-.763-16.685 11.454-36.134 18.449-57.806 20.791-1.521.155-2.868 1.224-3.348 2.676-2.991-4.102-8.823-1.036-13.469-1.799-5.318 1.054-13.972-2.91-17.856 1.589-.474-1.468-1.832-2.556-3.369-2.707-20.091-2.116-38.756-7.24-55.474-15.231-1.506-.722-3.326-.429-4.53.757-5.01 4.929-16.798 18.202-18.053 34.953-1.578 16.242 11.048 40.434 30.618 40.28 7.347 1.312 45.126-18.436 52.354-20.759 2.053-.853 3-3.494 1.957-5.448 5.667 4.335 22.529 3.219 26.485-1.813-.602 1.819.311 3.951 2.051 4.77l40.48 19.88c12.51 5.392 25.494 1.681 33.281-10.519zm-109.243-34.45c-.093.403-.18.811-.261 1.223-.172-.31-.428-.571-.691-.803.337-.097.656-.241.952-.42zm.049 13.448c.2.627.436 1.245.712 1.852-.449-.296-.947-.51-1.477-.607.334-.36.581-.788.765-1.245zm38.388-11.5c-.066-.395-.137-.787-.215-1.174.282.179.585.324.905.428-.262.218-.492.47-.69.746zm-.336 10.834c.162-.566.293-1.139.401-1.715.234.372.527.706.872.984-.468.157-.892.416-1.273.731z" fill="#d34242"/><path d="m258.979 299.63c54.192-1.306 54.107-69.86-.066-71.089-54.105 1.392-54.018 69.777.066 71.089z" fill="#d34242"/><g fill="#ffbf48"><path d="m380.616 416.255c-25.815-11.59-62.199 95.311-46.945 92.734h22.74c2.313.048 4.279-2.138 3.977-4.434-3.303-32.349 16.938-55.514 31.781-63.747-.355-8.698-7.676-16.716-11.553-24.553z"/><path d="m263.029 410.41c-24.462.23-24.441 37.187.021 37.39 24.472-.214 24.49-37.175-.021-37.39z"/><path d="m263.029 458.4c-24.462.231-24.44 37.187.021 37.39 24.472-.214 24.49-37.174-.021-37.39z"/><path d="m168.84 505.055c.036 2.184 1.816 3.935 3.999 3.935h15.62c2.194.041 4.115-1.931 3.998-4.128-3.064-45.356-25.654-89.764-38.373-101.957-3.477-.467-13.301 11.325-10.665 14.67 5.787 9.529 24.715 43.995 25.421 87.48z"/></g><path d="m407.631 507.775c2.744-5.67-1.355-43.632-14.966-65.822-31.59 8.14-34.064 53.527-33.221 63.202.089 2.144 1.852 3.835 3.996 3.835 1.476-.541 44.333 1.299 44.191-1.215z" fill="#5bd0fc"/><path d="m374.622 416.273c8.871-4.143-8.304-18.177-11.116-23.279-1.918-2.342-5.946-1.548-6.829 1.334-7.62 22.71-18.211 25.335-25.522 25.335-18.541.767-40.956-20.027-60.021-23.744-4.307 2.232-12.447 1.268-17.619 1.363-7.416 2.583-15.17 6.427-22.669 10.143-26.272 11.366-47.097 27.645-63.672-10.443-2.616-6.646-14.934 2.226-11.65 7.141 81.781 136.457-36.447 100.057 171.068 104.867 2.128 0 3.884-1.669 3.992-3.796 1.273-24.958 22.461-81.872 44.038-88.921zm-111.572 78.516c-23.316-.477-23.315-34.911.001-35.389 23.307.48 23.312 34.912-.001 35.389zm0-47.99c-23.316-.476-23.316-34.911 0-35.388 23.308.477 23.313 34.911 0 35.388z" fill="#5bd0fc"/><path d="m168.693 507.794c4.019-37.363-16.789-76.104-22.582-87.53-16.304-13.799-28.114 79.914-25.829 84.675-.071 2.165 1.83 4.096 3.998 4.051 1.331-.517 44.747 1.249 44.413-1.196z" fill="#5bd0fc"/></g><g><path d="m444.932 149.653c-2.794-13.192-11.011-24.26-24.438-32.933 12.54-35.126-6.959-72.169-57.22-71.947-12.886-33.045-58.037-58.031-102.24-37.076-26.271-12.692-78.994-9.848-95.609 34.409-31.829 4.017-69.027 23.364-68.38 74.626-32.699 17.172-42.733 62.679-14.645 101.346-1.397 14.328 12.491 42.799 36.35 47.283-18.6 26.091-15.262 52.843 23.607 52.418 1.818 3.544 22.1 21.914 36.083 28.465-7.361 6.478-20.839 28.389-16.83 45.058-9.925 5.743-44.349 31.821-44.349 117.19 0 1.933 1.567 3.5 3.5 3.5 28.132-.048 253.558.035 287.528 0 6.875-.517 3.306-17.98-1.92-43.356-7.189-28.491-22.968-58.661-44.202-81.67 2.798-14.409-7.768-38.237-16.186-47.174 12.166-8.185 29.419-31.312 31.43-37.41 20.164 1.345 46.354-11.059 35.177-40.612 24.51-12.439 38.976-41.616 22.091-64.749 4.018-6.501 14.702-26.36 10.253-47.368zm-276.788 232.315c1.17-15.609 12.572-28.181 16.863-32.394 14.276 6.814 33.141 13.103 56.779 15.599-.561 1.439-1.164 3.143-1.713 5.021l-35.504-4.613c-4.49-.648-5.415 6.421-.901 6.941l34.907 4.535c-.39 2.804-.491 5.714-.086 8.519l-30.97 7.609c-4.446 1.021-2.689 7.958 1.67 6.797l31.511-7.741c1.173 2.125 2.827 3.885 4.81 5.285l-42.21 18.619c-8.511 3.755-18.349 1.537-24.479-5.52-7.834-9.018-11.426-18.659-10.677-28.657zm105.252-15.951c5.373 11.692 7.121 28.526-12.369 28.522-19.612-.004-17.4-17.115-11.948-28.73 7.719.536 16.453.705 24.317.208zm-119.674 40.875c7.912 12.414 33.379 55.544 34.734 98.1h-15.615c-.728-44.967-20.697-80.762-26.002-89.493 2.348-3.397 4.681-6.24 6.883-8.607zm-11.098 15.324c6.647 11.86 22.538 44.157 23.216 82.776h-41.556c.302-24.786 3.949-57.511 18.34-82.776zm245.842 17.06c-22.252 8.311-34.438 43.908-32.054 65.716h-22.738c2.186-15.161 12.22-70.634 43.541-86.623 4.418 7.081 8.133 14.098 11.251 20.907zm-25.031 65.716c-.435-10.614.336-45.572 27.826-59.297 11.422 27.641 13.241 50.885 13.502 59.297zm9.941-92.524c-24.233 7.92-45.53 67.808-46.781 92.524h-131.135c-1.363-46.345-29.201-91.789-36.585-103.06 1.755-1.5 3.313-2.647 4.58-3.493 19.729 50.321 58.801 13.957 91.372 2.626 5.515.942 13.207.498 17.85-1.451 32.033 13.756 70.175 48.507 87.789-4.016 4.804 5.589 9.089 11.236 12.91 16.87zm-21.626-49.174c9.817 22.101-2.981 63.262-31.888 51.695.001-.001-40.481-19.881-40.481-19.881 1.493-1.607 2.66-3.585 3.388-5.65l26.177 7.113c4.33 1.268 6.254-5.626 1.836-6.754l-26.763-7.272c.051-1.555-.028-3.116-.197-4.652l28.545-3.997c4.507-.565 3.517-7.625-.971-6.932l-28.901 4.047c-.567-2.106-1.215-4.016-1.817-5.6 25.909-2.796 45.484-11.747 59.638-21.476 2.777 3.388 7.521 10.549 11.434 19.359zm-88.052-3.978c-48.659-.988-73.472-12.8-96.738-28.492-3.591-25.497 13.547-55.338 50.503-54.154 12.413 34.864 73.242 33.669 83.723-1.899 24.351-.614 51.018 18.325 49.685 51.501-16.986 16.082-42.688 32.646-87.173 33.044zm-4.717-63.686c-48.575-.81-48.569-62.285.001-63.089 48.574.81 48.568 62.285-.001 63.089zm145.924-9.662c-11.642 13.953-29.507 5.837-32.899 11.466-.051.124-4.294 10.01-14.513 21.818-.804-32.003-30.993-52.109-54.786-51.451 4.06-56.633-94.307-54.824-87.187 1.923-34.827-.642-57.496 27.127-55.824 55.438-11.865-9.434-10.256-12.692-15.619-14.37-38.061 1.203-33.147-23.189-17.917-43.838 45.451 8.145 62.662-21.413 54.324-69.485 27.74 5.105 71.623-8.219 79.334-40.307 15.084 30.467 56.642 61.088 91.398 45.383-3.567 33.814 4.722 86.541 55.015 62.306 2.819 9.052 2.382 16.148-1.326 21.117zm28.149-55.887c-4.984 17.699-42.176 43.324-63.935 28.959-11.257-7.432-12.95-51.656-10.365-61.382.436-2.607-2.482-4.806-4.864-3.676-39.629 21.386-81.333-20.925-91.955-47.833-1.256-3.059-6.085-2.514-6.625.752-4.482 39.066-53.418 48.925-78.389 42.989-10.759-2.618 7.967 41.271-9.974 61.029-13.832 17.264-53.781 10.458-65.53-3.195-13.99-14.85-10.869-29.602-12.586-32.594-30.767-42.122-12.14-78.336 15.257-96.455-4.256-42.333 33.709-68.991 63.873-69.756 1.339-.066 2.525-.892 3.051-2.129 16.093-45.122 67.53-42.728 88.556-32.114 49.651-18.895 83.745 1.279 98.098 34.779.508 1.315 1.758 2.198 3.169 2.236 24.6.679 41.336 7.443 49.742 20.104 15.072 23.81-1.751 43.988 3.902 49.429 13.109 7.834 21.047 17.873 23.594 29.837 4.703 22.088-10.387 43.898-10.538 44.112-.908 1.287-.845 3.022.154 4.239 7.354 8.952 9.258 19.844 5.365 30.669z"/><path d="m206.338 221.499c-5.136-.034-9.896 2.123-14.192 6.416-3.259 3.165 1.787 8.207 4.949 4.95 2.898-2.898 5.966-4.367 9.121-4.367 5.396-.008 9.728 4.233 9.83 4.341 3.125 3.285 8.216-1.688 5.009-4.889-.254-.261-6.31-6.391-14.717-6.451z"/><path d="m318.382 221.499c-5.101-.019-9.898 2.123-14.192 6.416-3.258 3.165 1.786 8.206 4.95 4.95 2.897-2.898 5.965-4.367 9.12-4.367 5.405-.008 9.743 4.248 9.831 4.342 3.125 3.284 8.215-1.688 5.008-4.89-.254-.261-6.311-6.392-14.717-6.451z"/><path d="m309.409 298.34c-32.883 37.089-79.242 24.253-98.019 1.833-2.965-3.437-8.296 1.299-5.234 4.649 20.656 25.167 72.577 38.591 108.202-1.536 3.259-3.162-1.786-8.202-4.949-4.946z"/><path d="m263.049 407.413c-28.51.511-28.506 42.881.001 43.388 28.509-.512 28.505-42.881-.001-43.388zm0 36.388c-19.213-.102-19.211-29.29.001-29.389 19.212.102 19.21 29.29-.001 29.389z"/><path d="m263.049 455.4c-28.51.511-28.506 42.88.001 43.387 28.509-.511 28.504-42.88-.001-43.387zm0 36.388c-19.213-.102-19.211-29.29.001-29.389 19.212.102 19.21 29.291-.001 29.389z"/></g></g></svg>